<?xml version="1.0" encoding="UTF-8"?>
<svg xmlns="http://www.w3.org/2000/svg" xmlns:xlink="http://www.w3.org/1999/xlink" version="1.1" viewBox="0 0 389 598">
  <!-- Generator: Adobe Illustrator 29.1.0, SVG Export Plug-In . SVG Version: 2.1.0 Build 142)  -->
  <defs>
    <style>
      .st0 {
        fill: none;
      }

      .st1 {
        filter: url(#drop-shadow-5);
      }

      .st2 {
        fill: url(#linear-gradient);
      }

      .st2, .st3, .st4, .st5, .st6, .st7 {
        stroke: #241f20;
        stroke-miterlimit: 10;
      }

      .st2, .st4 {
        stroke-width: 4px;
      }

      .st8 {
        mix-blend-mode: soft-light;
        opacity: .2;
      }

      .st9 {
        isolation: isolate;
      }

      .st10 {
        clip-path: url(#clippath-1);
      }

      .st11 {
        clip-path: url(#clippath-3);
      }

      .st12 {
        clip-path: url(#clippath-2);
      }

      .st13 {
        fill: #4882d0;
      }

      .st3, .st14 {
        fill: #241f20;
      }

      .st3, .st5, .st6, .st7 {
        stroke-width: 4px;
      }

      .st15 {
        mix-blend-mode: overlay;
      }

      .st16 {
        opacity: .9;
      }

      .st17 {
        opacity: .8;
      }

      .st4 {
        fill: #7ca0d0;
      }

      .st5 {
        fill: #cbdcef;
      }

      .st6 {
        fill: url(#linear-gradient1);
      }

      .st7 {
        fill: url(#linear-gradient2);
      }

      .st18 {
        clip-path: url(#clippath);
      }
    </style>
    <filter id="drop-shadow-5" x="26.5" y="72.8" width="347" height="487.2" filterUnits="userSpaceOnUse">
      <feOffset dx="5.6" dy="5.6"/>
      <feGaussianBlur result="blur" stdDeviation="5.6"/>
      <feFlood flood-color="#000" flood-opacity="0"/>
      <feComposite in2="blur" operator="in"/>
      <feComposite in="SourceGraphic"/>
    </filter>
    <linearGradient id="linear-gradient" x1="66.6" y1="407.4" x2="322" y2="407.4" gradientUnits="userSpaceOnUse">
      <stop offset="0" stop-color="#2970d0"/>
      <stop offset="1" stop-color="#4882d0"/>
    </linearGradient>
    <linearGradient id="linear-gradient1" x1="66.6" y1="248.6" x2="322" y2="248.6" gradientUnits="userSpaceOnUse">
      <stop offset="0" stop-color="#7ca0d0"/>
      <stop offset="1" stop-color="#2970d0"/>
    </linearGradient>
    <linearGradient id="linear-gradient2" y1="167.7" y2="167.7" xlink:href="#linear-gradient1"/>
    <clipPath id="clippath">
      <rect class="st0" x="-3673.5" y="1328.2" width="1633.8" height="201"/>
    </clipPath>
    <clipPath id="clippath-1">
      <rect class="st0" x="-3676.6" y="850.4" width="1640" height="2360"/>
    </clipPath>
    <clipPath id="clippath-2">
      <rect class="st13" x="-1852.8" y="1328.2" width="1633.8" height="201"/>
    </clipPath>
    <clipPath id="clippath-3">
      <rect class="st13" x="-1855.9" y="850.4" width="1640" height="2360"/>
    </clipPath>
  </defs>
  <g class="st9">
    <g id="Layer_1">
      <g class="st1">
        <g>
          <ellipse class="st5" cx="194.3" cy="436.5" rx="154.4" ry="98.7"/>
          <ellipse class="st2" cx="194.3" cy="407.4" rx="127.7" ry="81.6"/>
          <ellipse class="st4" cx="194.3" cy="330" rx="127.7" ry="81.6"/>
          <ellipse class="st6" cx="194.3" cy="248.6" rx="127.7" ry="81.6"/>
          <ellipse class="st7" cx="194.3" cy="167.7" rx="127.7" ry="81.6"/>
          <path class="st14" d="M254.4,164.3c-32.1,23.2-88.2,22.8-120.3-.3,0,0,.3-.9.3-.9,18,5.4,37.2,8.1,56,8.5,6.2.1,12.7,0,18.9-.3,7.5-.6,15.1-1.4,22.6-2.7,4.2-.9,10.7-2.1,14.8-3.3,0,0,7.3-1.9,7.3-1.9,0,0,.3.9.3.9h0Z"/>
          <g>
            <path class="st5" d="M226.6,165.2v2.1c0,1.2-1.2,2.2-3.6,2.9-2.4.8-6,1.4-10.8,1.8-4.8.4-10.7.6-17.8.6s-13.1-.2-17.8-.6c-4.8-.4-8.4-1-10.8-1.8-2.4-.8-3.6-1.8-3.6-2.9v-49.5h64.5v47.4Z"/>
            <ellipse class="st3" cx="194.3" cy="117.8" rx="32.3" ry="20.7"/>
          </g>
        </g>
      </g>
      <g class="st18">
        <g class="st16">
          <g class="st10">
            <g class="st15">
              <g class="st8">
                <image width="2100" height="3724" transform="translate(-4067.4 83) scale(2)" xlink:href="(2) elements-10-1.png"/>
              </g>
            </g>
          </g>
        </g>
      </g>
      <g class="st17">
        <g>
          <rect class="st13" x="-1852.8" y="1328.2" width="1633.8" height="201"/>
          <g class="st12">
            <g class="st16">
              <rect class="st13" x="-1855.9" y="850.4" width="1640" height="2360"/>
              <g class="st11">
                <g class="st15">
                  <g class="st8">
                    <image width="2100" height="3724" transform="translate(-2246.8 83) scale(2)" xlink:href="(2) elements-10-2.png"/>
                  </g>
                </g>
              </g>
            </g>
          </g>
        </g>
      </g>
    </g>
  </g>
</svg>