<svg xmlns="http://www.w3.org/2000/svg" id="Layer_1" data-name="Layer 1" viewBox="0 0 283.46 283.46"><defs><filter id="drop-shadow-5" width="260.4" height="168.24" x="9.03" y="90.42" filterUnits="userSpaceOnUse"><feOffset dy=".1"/><feGaussianBlur result="blur" stdDeviation=".1"/><feFlood flood-color="#000" flood-opacity=".1"/><feComposite in2="blur" operator="in"/><feComposite in="SourceGraphic"/></filter><filter id="drop-shadow-6" width="260.4" height="168.24" x="9.03" y="18.9" filterUnits="userSpaceOnUse"><feOffset dy=".1"/><feGaussianBlur result="blur-2" stdDeviation=".1"/><feFlood flood-color="#000" flood-opacity=".1"/><feComposite in2="blur-2" operator="in"/><feComposite in="SourceGraphic"/></filter><style>.cls-3{fill:#231f20}.cls-4{fill:#4882d0;stroke:#231f20;stroke-miterlimit:10;stroke-width:4px}</style></defs><g style="filter:url(#drop-shadow-5)"><ellipse cx="139.11" cy="174.28" class="cls-4" rx="127.73" ry="81.62"/><path d="M79.19 157.61c17.52 2.85 34.77 5.12 52.43 5.33 22.62.43 45.04-1.7 67.39-5.66l.13.38c-14.44 4.76-29.68 7.29-44.8 8.64-1.45.09-8.23.49-9.51.57-1.2.02-4.47.06-5.72.08-10.14.05-20.36-.61-30.38-2.16-10.09-1.32-19.94-3.93-29.68-6.79l.12-.38Z" class="cls-3"/></g><g style="filter:url(#drop-shadow-6)"><ellipse cx="139.11" cy="102.75" class="cls-4" rx="127.73" ry="81.62"/><path d="M79.19 86.08c17.52 2.85 34.77 5.12 52.43 5.33 22.62.43 45.04-1.7 67.39-5.66l.13.38c-14.44 4.76-29.68 7.29-44.8 8.64-1.45.09-8.23.49-9.51.57-1.2.02-4.47.06-5.72.08-10.14.05-20.36-.61-30.38-2.16-10.09-1.32-19.94-3.93-29.68-6.79l.12-.38Z" class="cls-3"/></g></svg>