<?xml version="1.0" encoding="UTF-8"?>
<svg id="Layer_1" data-name="Layer 1" xmlns="http://www.w3.org/2000/svg" viewBox="0 0 283.46 283.46">
  <defs>
    <style>
      .cls-1 {
        fill: #fff;
      }

      .cls-1, .cls-2, .cls-3, .cls-4 {
        stroke: #231f20;
        stroke-miterlimit: 10;
        stroke-width: 3.43px;
      }

      .cls-5, .cls-2 {
        fill: #4882d0;
      }

      .cls-3 {
        fill: #231f20;
      }

      .cls-4 {
        fill: #2970d0;
      }
    </style>
  </defs>
  <g>
    <g>
      <g>
        <path class="cls-1" d="M96.41,85.92v54.26s0,1.34,0,2.18c0,.51.22.98.65,1.42,2.8,9.98,16.45,17.57,32.85,17.57,16.95,0,30.93-8.1,33.07-18.55.04-.22.04-.44.07-.62,0-.83,0-2,0-2v-52.34c-1.52,10.89-15.83,19.42-33.25,19.42-18.44,0-33.4-9.55-33.4-21.35Z"/>
        <path class="cls-1" d="M96.41,85.92c0,11.8,14.96,21.35,33.4,21.35,17.43,0,31.73-8.53,33.25-19.42v-1.92s-66.65,0-66.65,0Z"/>
      </g>
      <path class="cls-1" d="M96.34,85.92c0,11.8,14.96,21.35,33.4,21.35,17.43,0,31.73-8.53,33.25-19.42.11-.62.15-1.27.15-1.92,0-11.8-14.96-21.35-33.4-21.35-18.44,0-33.4,9.55-33.4,21.35Z"/>
    </g>
    <g>
      <ellipse class="cls-3" cx="129.74" cy="81.73" rx="61.13" ry="39.07"/>
      <g>
        <g>
          <path class="cls-5" d="M92.64,52.37c8.16-.6,16.51.36,23.96,3.91,5.97,2.79,11.51,6.78,15.89,11.71,7.73,8.38,12.67,19.94,12.21,31.36-2.27-12.53-8.58-23.93-18.01-32.34-4.54-4.25-9.96-7.56-15.63-10.07-5.85-2.54-12.15-3.58-18.42-4.57h0Z"/>
          <path class="cls-5" d="M155.77,52.37c-6.27.99-12.57,2.03-18.42,4.57-5.67,2.52-11.09,5.83-15.63,10.07-9.43,8.42-15.73,19.81-18.01,32.34-.46-11.42,4.48-22.99,12.21-31.36,4.38-4.93,9.92-8.93,15.89-11.71,7.45-3.55,15.8-4.51,23.96-3.91h0Z"/>
        </g>
        <path class="cls-5" d="M76.6,82.65c5.34-4.56,11-8.95,17.28-12.14,8.36-4.34,17.52-7.42,26.77-9.16,20.34-3.97,43.63-2.83,62.22,6.84-16.52-5.71-34.11-6.76-51.35-5.07-10.24,1.18-20.55,3.31-30.24,6.85-8.8,3-16.85,7.72-24.68,12.68h0Z"/>
      </g>
    </g>
  </g>
  <ellipse class="cls-1" cx="179.79" cy="179.35" rx="66.84" ry="42.72"/>
  <g>
    <path class="cls-1" d="M259.28,160.48c-6.7,0-9.88-5.52-9.48-10.73l-32.55,5.74c.09-2.09-.06-4.21-.44-6.3-.16-.87-.34-1.71-.59-2.56l31.52-5.55c-4.52-5.61-2.06-16.37,7.33-16.37s11.85,10.91,7.23,16.49c9.57,2.84,8.54,19.27-3.02,19.27Z"/>
    <path class="cls-4" d="M224.68,153.26c.71,7.74-1.11,14.01-4.52,14.6-3.86.69-8.31-6.18-9.92-15.34-1.61-9.16.21-17.13,4.07-17.82,3.38-.59,7.17,4.54,9.16,11.93l5.42-.97c.19.64.33,1.28.45,1.94.28,1.59.4,3.19.33,4.78l-4.99.88Z"/>
    <path class="cls-2" d="M178.17,194.13c10.67-1.88,16.42-19.81,12.86-40.03-3.37-19.11-13.85-33.43-24-33.36-.58-.02-1.18.04-1.77.15-10.67,1.88-16.42,19.81-12.86,40.03,3.57,20.22,15.1,35.1,25.77,33.22Z"/>
    <path class="cls-1" d="M170.93,169.3c3.44-.61,5.29-6.38,4.14-12.89-1.09-6.15-4.46-10.77-7.73-10.75-.19,0-.38.01-.57.05-3.44.61-5.29,6.38-4.14,12.89,1.15,6.51,4.86,11.3,8.3,10.7Z"/>
    <path class="cls-3" d="M229.67,152.39c-.45,17.56-19.86,34.65-46.6,40.59.88-1.04,1.68-2.18,2.41-3.41,5.16-8.47,7.27-21.11,4.9-34.55-2.89-16.28-11.53-29.2-21.54-34.01.12-.02.24-.02.36-.05,29.09-4.19,54.9,6.51,59.69,24.71.19.64.33,1.28.45,1.94.28,1.59.4,3.19.33,4.78Z"/>
  </g>
  <g>
    <g>
      <path class="cls-2" d="M133.5,164.8c3.61,2.09,6.72,4.21,9.32,6.38,2.6,2.17,4.63,4.35,6.08,6.55,1.45,2.2,2.28,4.38,2.47,6.54.2,2.16-.3,4.28-1.5,6.35s-2.78,3.57-4.76,4.5c-1.98.93-4.3,1.31-6.95,1.13-2.65-.17-5.56-.84-8.74-2.01-3.18-1.17-6.58-2.79-10.19-4.88-5.1-2.94-9.11-5.89-12.03-8.82-2.92-2.94-4.74-5.83-5.45-8.68-.71-2.85-.29-5.61,1.26-8.3,1.61-2.78,3.88-4.53,6.82-5.25,2.94-.72,6.41-.52,10.4.6,4,1.12,8.42,3.08,13.27,5.88ZM128.64,172.56c2.55,1.47,4.73,2.64,6.52,3.49,1.79.85,3.2,1.38,4.22,1.59,1.02.21,1.65.11,1.89-.3s.02-1-.66-1.76c-.68-.76-1.83-1.7-3.45-2.82-1.62-1.12-3.73-2.44-6.35-3.95-3.89-2.25-6.89-3.77-8.98-4.57-2.09-.8-3.32-.88-3.69-.25-.24.42,0,1.02.71,1.8.71.78,1.88,1.74,3.51,2.87,1.63,1.13,3.73,2.43,6.28,3.91Z"/>
      <path class="cls-2" d="M86.87,194.34c4.03-1.08,7.73-1.77,11.1-2.08,3.37-.3,6.35-.19,8.93.33,2.58.53,4.7,1.49,6.37,2.88,1.67,1.39,2.81,3.24,3.43,5.55s.56,4.49-.19,6.55c-.75,2.06-2.11,3.96-4.11,5.71-1.99,1.75-4.53,3.34-7.6,4.76-3.07,1.42-6.62,2.67-10.65,3.75-5.69,1.52-10.6,2.28-14.75,2.27-4.14-.01-7.47-.77-9.99-2.28-2.51-1.51-4.17-3.76-4.97-6.76s-.46-5.95,1.1-8.54c1.57-2.59,4.16-4.9,7.78-6.93,3.62-2.03,8.13-3.78,13.54-5.22ZM88.92,203.26c2.85-.76,5.21-1.48,7.08-2.15,1.87-.67,3.24-1.29,4.11-1.86.87-.57,1.25-1.09,1.12-1.55s-.7-.72-1.72-.78c-1.02-.06-2.5.09-4.43.44-1.94.35-4.36.92-7.28,1.7-4.34,1.16-7.54,2.2-9.58,3.12-2.04.92-2.97,1.73-2.78,2.43.12.46.72.72,1.77.77,1.06.05,2.56-.1,4.51-.45,1.95-.36,4.35-.92,7.2-1.68Z"/>
      <path class="cls-2" d="M125.81,207.01c4.17,0,7.93.29,11.26.87,3.34.58,6.18,1.46,8.54,2.63,2.36,1.18,4.16,2.65,5.41,4.43,1.25,1.78,1.88,3.86,1.88,6.25,0,2.39-.63,4.48-1.88,6.28-1.25,1.79-3.07,3.28-5.45,4.46-2.38,1.18-5.24,2.06-8.58,2.63-3.34.58-7.09.87-11.26.87-5.89,0-10.83-.54-14.83-1.63-4-1.08-7.02-2.68-9.06-4.79-2.04-2.11-3.05-4.72-3.05-7.82s1.09-5.87,3.28-7.96c2.18-2.09,5.29-3.65,9.31-4.68,4.02-1.03,8.83-1.54,14.43-1.54ZM125.48,216.16c2.95,0,5.41-.08,7.39-.24,1.98-.16,3.46-.41,4.45-.73.99-.32,1.48-.73,1.48-1.21s-.49-.88-1.46-1.2c-.97-.32-2.44-.56-4.4-.72-1.96-.16-4.45-.24-7.47-.24-4.5,0-7.85.18-10.06.53-2.21.36-3.32.9-3.32,1.62,0,.48.5.88,1.51,1.21,1.01.32,2.5.57,4.48.73,1.98.16,4.44.24,7.39.24Z"/>
    </g>
    <g>
      <path class="cls-2" d="M94.24,160.63c3.62,2.03,6.22,4.34,7.78,6.93,1.57,2.59,1.94,5.43,1.1,8.54-.8,3-2.46,5.25-4.97,6.76-2.51,1.51-5.84,2.27-9.99,2.28-4.14.01-9.06-.75-14.75-2.27-4.03-1.08-7.58-2.33-10.65-3.75-3.08-1.42-5.61-3.01-7.6-4.76-2-1.75-3.36-3.66-4.11-5.71-.74-2.06-.81-4.24-.19-6.55s1.76-4.16,3.43-5.55c1.67-1.39,3.79-2.35,6.37-2.88,2.58-.53,5.56-.64,8.93-.33,3.37.3,7.07,1,11.1,2.08,5.4,1.45,9.92,3.19,13.54,5.22ZM85.85,166c1.95.36,3.46.51,4.51.45,1.06-.05,1.65-.31,1.77-.77.19-.7-.74-1.51-2.78-2.43-2.04-.92-5.24-1.96-9.58-3.12-2.92-.78-5.35-1.35-7.28-1.7-1.94-.35-3.41-.5-4.43-.44-1.02.06-1.59.32-1.72.78s.25.98,1.12,1.55c.87.57,2.24,1.19,4.11,1.86,1.87.67,4.23,1.38,7.08,2.15s5.25,1.32,7.2,1.68Z"/>
      <path class="cls-2" d="M56.19,169.61c4.02,1.03,7.13,2.59,9.31,4.68,2.18,2.09,3.28,4.75,3.28,7.96,0,3.1-1.02,5.71-3.05,7.82-2.04,2.11-5.06,3.71-9.06,4.79-4,1.08-8.94,1.63-14.83,1.63-4.17,0-7.93-.29-11.26-.87-3.34-.58-6.2-1.46-8.58-2.63-2.38-1.18-4.2-2.66-5.45-4.46-1.25-1.79-1.88-3.89-1.88-6.28s.63-4.47,1.88-6.25c1.25-1.77,3.06-3.25,5.41-4.43,2.36-1.18,5.2-2.05,8.54-2.63,3.34-.58,7.09-.87,11.26-.87,5.6,0,10.4.51,14.43,1.54ZM49.49,176.97c1.98-.16,3.47-.41,4.48-.73,1.01-.32,1.51-.73,1.51-1.21,0-.73-1.11-1.27-3.32-1.62-2.21-.36-5.57-.53-10.06-.53-3.02,0-5.51.08-7.47.24-1.96.16-3.43.4-4.4.72-.97.32-1.46.72-1.46,1.2,0,.48.49.88,1.48,1.21.99.32,2.47.57,4.45.73,1.98.16,4.44.24,7.39.24,2.95,0,5.41-.08,7.39-.24Z"/>
    </g>
  </g>
</svg>