<svg xmlns="http://www.w3.org/2000/svg" id="Layer_1" data-name="Layer 1" viewBox="0 0 283.46 283.46"><defs><style>.cls-1{fill:#fff;stroke:#231f20;stroke-miterlimit:10;stroke-width:4px}.cls-3{fill:#231f20}</style></defs><path d="M108.04 123.66v57.05c0 .51.22.99.66 1.43 2.83 10.09 16.62 17.76 33.21 17.76 17.14 0 31.27-8.18 33.43-18.75.04-.22.04-.44.07-.62v-54.92c-1.54 11.01-16 19.63-33.62 19.63-18.64 0-33.76-9.65-33.76-21.58Z" class="cls-1"/><path d="M108.04 123.66c0 11.93 15.12 21.58 33.76 21.58 17.62 0 32.07-8.62 33.62-19.63v-1.95z" class="cls-1"/><path d="M107.97 123.66c0 11.93 15.12 21.58 33.76 21.58 17.62 0 32.07-8.62 33.62-19.63.11-.62.15-1.28.15-1.95 0-11.93-15.12-21.58-33.76-21.58s-33.76 9.65-33.76 21.58Z" class="cls-1"/><ellipse cx="141.73" cy="119.43" rx="61.8" ry="39.49" style="stroke:#231f20;stroke-miterlimit:10;stroke-width:4px;fill:#4882d0"/><path d="M104.23 89.75c20.53-2.45 40.3 9.49 48.77 28.17 2.78 6.08 4.24 12.78 3.85 19.33-1.28-6.42-3.52-12.44-6.64-17.92-6.26-10.92-15.91-19.71-27.44-24.77-5.88-2.61-12.23-3.7-18.55-4.82Z" class="cls-3"/><path d="M168.04 89.75c-6.32 1.11-12.66 2.21-18.55 4.82-11.54 5.06-21.18 13.85-27.44 24.77-3.12 5.48-5.35 11.5-6.64 17.92-.39-6.55 1.07-13.25 3.85-19.33 8.47-18.68 28.24-30.62 48.77-28.17Z" class="cls-3"/><path d="M88.02 120.36c5.35-4.68 11.06-9.17 17.4-12.43 8.44-4.44 17.72-7.59 27.09-9.36 20.6-4.04 44.21-2.84 62.95 7.17-16.77-5.57-34.46-6.58-51.88-4.86-10.33 1.2-20.73 3.33-30.52 6.86-8.9 2.99-17.06 7.7-25.02 12.62Z" class="cls-3"/></svg>