<svg xmlns="http://www.w3.org/2000/svg" data-name="Layer 1" viewBox="0 0 283.46 283.46"><defs><filter id="a" width="282.48" height="282.24" x="-5.36" y="3.1" filterUnits="userSpaceOnUse"><feOffset dx="-5.61" dy="5.61"/><feGaussianBlur result="blur" stdDeviation="5.61"/><feFlood flood-color="#000" flood-opacity=".1"/><feComposite in2="blur" operator="in"/><feComposite in="SourceGraphic"/></filter></defs><path d="M141.43 16.36c-67.47 0-122.16 54.69-122.16 122.16s54.69 122.16 122.16 122.16 122.16-54.69 122.16-122.16S208.9 16.36 141.43 16.36Zm0 164.37c-23.32 0-42.22-18.9-42.22-42.22s18.9-42.22 42.22-42.22 42.22 18.9 42.22 42.22-18.9 42.22-42.22 42.22Z" style="stroke:#231f20;stroke-miterlimit:10;fill:#4882d0;filter:url(#a);stroke-width:4px"/><path d="m146.08 53.45 2.39-18.04 7.04.93c1.58.21 2.9.64 3.95 1.28 1.05.65 1.81 1.48 2.29 2.51.48 1.02.63 2.19.46 3.5s-.62 2.39-1.35 3.24c-.73.86-1.68 1.47-2.86 1.82-1.18.36-2.57.43-4.15.22l-5.62-.74 1.32-1.06-.88 6.68-2.58-.34Zm3.42-6.08-.99-1.44 5.54.73c1.65.22 2.95.03 3.89-.56s1.5-1.53 1.67-2.82-.12-2.34-.88-3.16-1.96-1.33-3.61-1.55l-5.54-.73 1.33-1.14zm20.25 11.21c-1.39-.48-2.52-1.19-3.37-2.13-.86-.94-1.4-2.01-1.64-3.21s-.13-2.45.32-3.74 1.13-2.34 2.04-3.14 1.96-1.31 3.15-1.54c1.19-.22 2.4-.12 3.65.32 1.26.44 2.28 1.1 3.05 1.99a6.3 6.3 0 0 1 1.46 3.13c.2 1.2.07 2.47-.4 3.81-.03.1-.08.21-.13.34s-.11.25-.16.36l-11.08-3.84.59-1.69 9.85 3.42-1.16.26c.31-.83.39-1.63.26-2.41s-.45-1.46-.95-2.05q-.75-.885-2.01-1.32c-.82-.28-1.61-.35-2.38-.21-.77.15-1.45.49-2.04 1.03s-1.03 1.23-1.33 2.08l-.14.39c-.3.87-.37 1.71-.2 2.53s.54 1.54 1.13 2.17 1.35 1.1 2.28 1.43c.77.27 1.51.38 2.24.34q1.08-.06 2.07-.6l.77 1.97c-.83.48-1.74.75-2.74.81q-1.5.09-3.12-.48Zm9.33 3.73 6.54-12.13 2.11 1.14-1.78 3.3.24-.94c.79-.66 1.7-.99 2.73-1.01 1.03-.01 2.13.29 3.29.92l-1.15 2.13c-.08-.06-.17-.12-.25-.17s-.16-.09-.24-.13c-1.18-.63-2.29-.78-3.36-.45s-1.96 1.16-2.67 2.49l-3.26 6.04zm12.61 7.93c-.92-.68-1.7-1.45-2.34-2.32-.64-.86-1.07-1.65-1.27-2.37l2.01-.97c.24.67.62 1.38 1.15 2.11.53.74 1.16 1.38 1.88 1.91.93.69 1.7 1.06 2.31 1.1s1.09-.18 1.44-.65c.26-.35.33-.71.23-1.09-.11-.38-.33-.77-.67-1.17s-.73-.83-1.17-1.27q-.66-.675-1.29-1.41c-.41-.49-.75-1-1.01-1.52-.26-.53-.37-1.07-.34-1.64s.29-1.17.76-1.81c.5-.67 1.12-1.11 1.86-1.34.75-.22 1.57-.21 2.46.02s1.81.71 2.76 1.41q1.08.81 2.01 1.89c.62.73 1.04 1.42 1.28 2.1l-2.03.95c-.25-.71-.61-1.32-1.06-1.85s-.95-.99-1.49-1.4c-.88-.65-1.64-.99-2.28-1.03-.64-.03-1.13.17-1.46.62-.28.38-.36.76-.26 1.15.11.39.33.8.65 1.21.33.42.71.85 1.16 1.3q.66.675 1.29 1.41c.41.49.75.99 1 1.5.26.51.37 1.05.35 1.62s-.26 1.16-.73 1.79c-.5.67-1.12 1.1-1.87 1.3s-1.58.17-2.49-.08-1.86-.75-2.85-1.48Zm11.31 10c-.95-1.01-1.58-2.11-1.88-3.31s-.28-2.39.07-3.58c.34-1.19 1.01-2.24 1.99-3.17.99-.94 2.09-1.55 3.29-1.82s2.38-.23 3.55.14 2.24 1.06 3.19 2.06c.94.99 1.57 2.09 1.88 3.29s.3 2.38-.04 3.55-1.01 2.23-2.02 3.18c-.99.94-2.09 1.55-3.28 1.83a6.63 6.63 0 0 1-3.56-.13c-1.19-.37-2.25-1.05-3.19-2.05Zm1.59-1.5q.915.96 2.07 1.32c.77.24 1.56.24 2.37.03.81-.22 1.57-.66 2.27-1.33.72-.68 1.2-1.41 1.45-2.2.25-.78.28-1.57.08-2.35-.19-.78-.59-1.5-1.2-2.14s-1.3-1.08-2.06-1.31c-.77-.23-1.55-.25-2.36-.05-.81.19-1.57.63-2.29 1.31-.71.67-1.18 1.41-1.43 2.21-.25.81-.28 1.6-.09 2.38s.58 1.49 1.19 2.13m21.28 8.36c.6.96.94 1.91 1.02 2.87.09.96-.12 1.88-.61 2.75-.49.88-1.32 1.68-2.46 2.39l-6.73 4.19-1.32-2.12 6.49-4.04c1.13-.71 1.82-1.51 2.05-2.42s.03-1.86-.59-2.86c-.47-.75-1.02-1.31-1.66-1.69s-1.34-.54-2.11-.48c-.76.06-1.57.35-2.42.88l-6.03 3.75-1.32-2.12 11.7-7.28 1.26 2.03-3.16 1.96.63-.85c1-.09 1.97.12 2.89.65s1.71 1.32 2.37 2.38Zm-5.53 20.34c-.36-.96-.51-1.86-.46-2.7s.29-1.57.73-2.17a3.6 3.6 0 0 1 1.74-1.32c.7-.26 1.39-.33 2.09-.21.69.12 1.35.49 1.98 1.12.62.63 1.18 1.58 1.66 2.86l1.53 4.09-1.68.63-1.5-3.99c-.44-1.17-.93-1.88-1.47-2.14s-1.09-.29-1.64-.08c-.63.24-1.05.68-1.24 1.33q-.285.975.21 2.31c.33.88.81 1.57 1.45 2.08s1.38.77 2.24.78l-1.43 1.07c-.88-.02-1.69-.34-2.43-.95s-1.33-1.51-1.77-2.69Zm1.74 4.18 2.73-1.02.47-.31 4.65-1.75c.99-.37 1.65-.95 1.98-1.73s.27-1.75-.16-2.9c-.29-.76-.69-1.46-1.22-2.1s-1.09-1.13-1.7-1.47l1.39-1.63c.79.46 1.49 1.11 2.13 1.94.63.83 1.14 1.75 1.53 2.77.66 1.77.75 3.29.24 4.57-.5 1.28-1.64 2.25-3.4 2.92l-7.79 2.92-.83-2.21Zm1.97 7.08 18.83-4.2.54 2.44-18.83 4.2zm1.46 7.68 13.67-1.75.32 2.48-13.67 1.75zm16.46-.84c-.06-.48.04-.9.31-1.26s.63-.56 1.07-.62c.46-.06.87.05 1.22.33s.56.66.62 1.14-.04.9-.3 1.26-.61.56-1.06.62c-.46.06-.88-.05-1.23-.31-.36-.27-.57-.65-.63-1.15Zm-15.77 12.37q-.03-1.71.42-3.27c.3-1.04.66-1.85 1.1-2.45l1.99 1.01c-.39.6-.72 1.33-.98 2.2s-.39 1.76-.37 2.66c.02 1.16.2 1.99.53 2.5.34.51.8.75 1.39.74.43 0 .77-.17 1.01-.48.24-.32.41-.73.53-1.24q.165-.765.3-1.71c.08-.63.2-1.25.33-1.88.14-.63.34-1.2.6-1.73.26-.52.63-.95 1.1-1.27s1.11-.49 1.9-.5c.83-.01 1.56.21 2.2.67.63.46 1.12 1.11 1.48 1.97.35.85.54 1.87.56 3.05.01.9-.08 1.82-.28 2.75s-.5 1.69-.89 2.29l-1.99-1.03c.41-.63.68-1.29.83-1.96.15-.68.21-1.36.2-2.03-.02-1.09-.21-1.9-.57-2.44q-.54-.795-1.38-.78c-.47 0-.83.17-1.07.5-.25.32-.43.74-.56 1.26-.13.51-.24 1.08-.32 1.71-.09.63-.2 1.25-.33 1.88-.14.63-.33 1.2-.58 1.71-.25.52-.61.94-1.07 1.27q-.69.495-1.86.51c-.83.01-1.56-.22-2.17-.69-.61-.48-1.1-1.15-1.45-2.03s-.54-1.93-.56-3.16Zm-1.27 15.37c.25-1.45.76-2.68 1.54-3.68s1.75-1.72 2.89-2.15 2.39-.53 3.74-.3 2.5.73 3.44 1.49c.94.77 1.62 1.71 2.04 2.85.41 1.13.51 2.35.29 3.65-.22 1.32-.71 2.43-1.46 3.34s-1.7 1.56-2.85 1.96-2.42.47-3.82.24c-.1-.02-.22-.04-.36-.07s-.26-.07-.38-.1l1.95-11.56 1.77.3-1.74 10.28-.45-1.1c.87.16 1.68.12 2.42-.14.75-.26 1.37-.69 1.86-1.28.5-.59.82-1.33.96-2.2.14-.85.08-1.65-.19-2.38s-.72-1.34-1.35-1.84q-.945-.735-2.28-.96l-.41-.07c-.91-.15-1.75-.08-2.53.22s-1.43.79-1.95 1.48-.86 1.52-1.03 2.49c-.14.8-.12 1.56.04 2.26s.47 1.35.94 1.94l-1.82 1.09a6.06 6.06 0 0 1-1.25-2.57c-.22-.98-.24-2.03-.05-3.16Zm-5.69 19.58 3.47 1.34 2.93 1.29 3.08.91 8.56 3.3-.9 2.33-18-6.93.86-2.23Zm1.62-4.64c.48-1.25 1.18-2.25 2.11-3.02s1.99-1.24 3.2-1.43c1.2-.19 2.46-.03 3.77.48 1.31.5 2.35 1.23 3.11 2.17s1.23 2.01 1.4 3.2.02 2.41-.46 3.65c-.42 1.08-1.04 1.97-1.86 2.66s-1.82 1.11-2.99 1.26-2.49-.05-3.94-.61-2.57-1.28-3.35-2.17c-.77-.88-1.24-1.86-1.4-2.92s-.02-2.15.41-3.27m1.96.98c-.31.81-.41 1.61-.29 2.41q.18 1.2.99 2.16c.54.64 1.26 1.14 2.17 1.49.92.35 1.79.47 2.61.35s1.54-.44 2.16-.95 1.09-1.17 1.4-1.98c.32-.83.41-1.63.29-2.42s-.45-1.51-.97-2.16-1.24-1.15-2.17-1.5c-.91-.35-1.78-.46-2.61-.34-.84.12-1.57.44-2.19.94s-1.09 1.17-1.41 1.99Zm-12.45 19.02 1.59-2.05 14.38 11.15-7.87 10.15-1.79-1.39 6.28-8.09zm7.74 5.67-5.75 7.42-1.77-1.37 5.75-7.42zm-20.71 8.3c1.04-.92 2.17-1.5 3.37-1.76 1.21-.25 2.4-.19 3.57.2s2.21 1.09 3.1 2.1c.9 1.03 1.47 2.15 1.7 3.35.23 1.21.14 2.39-.27 3.55s-1.14 2.2-2.18 3.11c-1.03.9-2.15 1.49-3.35 1.76-1.21.27-2.39.21-3.54-.17s-2.19-1.09-3.11-2.13c-.9-1.03-1.48-2.14-1.71-3.34-.24-1.2-.15-2.39.26-3.56s1.13-2.21 2.16-3.11m1.44 1.64c-.66.58-1.13 1.26-1.39 2.02s-.3 1.55-.11 2.37.6 1.59 1.24 2.32c.65.74 1.37 1.25 2.14 1.53s1.56.33 2.35.17 1.52-.54 2.18-1.12 1.12-1.26 1.38-2.01c.26-.76.3-1.54.14-2.36-.16-.81-.57-1.59-1.22-2.33-.64-.73-1.36-1.23-2.16-1.51q-1.2-.42-2.37-.18c-.78.16-1.51.53-2.17 1.11Zm-14.87 8.03c1.2-.7 2.42-1.05 3.65-1.07s2.39.28 3.46.89c1.08.61 1.95 1.5 2.63 2.66.69 1.18 1.03 2.39 1.02 3.62s-.33 2.37-.95 3.43c-.63 1.06-1.54 1.93-2.74 2.63-1.18.69-2.39 1.05-3.63 1.07-1.24.03-2.39-.26-3.44-.85-1.06-.6-1.94-1.5-2.63-2.69-.69-1.18-1.03-2.39-1.03-3.61s.32-2.37.95-3.44 1.54-1.95 2.72-2.64Zm1.1 1.89a4.8 4.8 0 0 0-1.76 1.71c-.41.7-.6 1.46-.57 2.3s.28 1.68.77 2.51c.5.85 1.1 1.49 1.8 1.91.71.42 1.46.63 2.27.62.81 0 1.59-.23 2.36-.68s1.35-1.01 1.74-1.71c.4-.69.6-1.46.6-2.29s-.25-1.67-.75-2.53c-.49-.84-1.1-1.47-1.83-1.9s-1.49-.64-2.29-.64-1.58.23-2.35.67Zm-20.54 6.63 1.18 3.53.87 3.08 1.26 2.95 2.92 8.7-2.37.79-6.13-18.29zm4.61-1.71c1.27-.42 2.49-.52 3.67-.3 1.18.23 2.23.74 3.14 1.55q1.365 1.215 2.04 3.21c.45 1.33.55 2.59.31 3.78a6.5 6.5 0 0 1-1.57 3.12c-.81.89-1.84 1.55-3.11 1.97-1.1.37-2.18.46-3.23.26s-2.01-.7-2.88-1.5c-.86-.81-1.54-1.95-2.04-3.43s-.65-2.8-.46-3.96.64-2.14 1.36-2.94 1.65-1.39 2.78-1.77Zm.49 2.14c-.82.28-1.5.71-2.04 1.31s-.88 1.32-1.04 2.14c-.15.83-.07 1.7.23 2.62.31.94.78 1.68 1.39 2.23s1.32.91 2.11 1.06 1.6.09 2.42-.18c.84-.28 1.52-.72 2.05-1.32s.88-1.3 1.05-2.12c.17-.81.09-1.69-.22-2.63-.31-.92-.78-1.66-1.41-2.23s-1.33-.93-2.12-1.09q-1.17-.24-2.43.18Zm-20.48 2.14q.72-.06 1.29.39c.38.31.59.72.63 1.24.05.52-.09.96-.4 1.32q-.48.54-1.2.6c-.47.04-.88-.09-1.25-.38-.37-.3-.57-.71-.62-1.22-.05-.52.08-.96.39-1.33s.69-.57 1.16-.61Zm-13.54.57-2.64 18.01-7.02-1.03c-1.58-.23-2.89-.68-3.93-1.34s-1.79-1.51-2.26-2.54c-.46-1.03-.6-2.2-.41-3.5s.65-2.38 1.39-3.23 1.7-1.44 2.89-1.78 2.57-.4 4.15-.17l5.61.82-1.33 1.04.98-6.66zm-3.51 6.02.97 1.46-5.53-.81q-2.475-.36-3.9.51c-.95.58-1.52 1.51-1.71 2.8s.09 2.34.84 3.17 1.94 1.36 3.59 1.6l5.53.81-1.35 1.12 1.56-10.65Zm-20.09-11.49c1.39.5 2.5 1.23 3.34 2.18s1.38 2.03 1.59 3.23c.22 1.2.09 2.45-.37 3.74-.47 1.29-1.16 2.33-2.08 3.12s-1.98 1.29-3.17 1.49c-1.19.21-2.4.08-3.64-.37-1.25-.46-2.26-1.13-3.02-2.04q-1.14-1.35-1.41-3.15c-.18-1.2-.03-2.47.45-3.8.04-.1.08-.21.14-.34s.11-.25.17-.35l11.02 4-.61 1.69-9.8-3.55 1.17-.24c-.32.83-.42 1.63-.29 2.41.12.78.43 1.47.92 2.06s1.16 1.04 1.99 1.34c.81.3 1.61.38 2.37.24s1.45-.47 2.05-1 1.05-1.22 1.36-2.07l.14-.39c.31-.86.39-1.71.24-2.53s-.52-1.55-1.1-2.18-1.34-1.12-2.26-1.46c-.77-.28-1.51-.4-2.23-.37s-1.41.22-2.08.58l-.75-1.99c.83-.47 1.75-.73 2.75-.77s2.04.13 3.12.52Zm-9.27-3.84-6.71 12.04-2.09-1.16 1.82-3.27-.25.93c-.8.65-1.71.97-2.74.97q-1.545 0-3.27-.96l1.18-2.11c.08.07.17.12.25.17s.16.09.24.13c1.17.65 2.28.82 3.35.5s1.97-1.13 2.7-2.45l3.34-6zm-12.49-8.1c.91.69 1.68 1.48 2.31 2.35s1.05 1.67 1.24 2.38l-2.02.94c-.23-.67-.6-1.38-1.12-2.13a8.6 8.6 0 0 0-1.86-1.94c-.92-.7-1.69-1.08-2.3-1.13s-1.09.16-1.45.63c-.26.34-.34.71-.24 1.09s.32.78.65 1.18c.33.41.72.84 1.16 1.29s.86.93 1.27 1.42c.41.5.74 1.01.99 1.54s.36 1.08.32 1.65-.3 1.17-.79 1.8c-.5.66-1.13 1.1-1.88 1.31q-1.125.315-2.46-.06c-.89-.25-1.8-.73-2.74-1.45q-1.08-.825-1.98-1.92c-.61-.73-1.02-1.44-1.25-2.11l2.05-.93c.24.71.59 1.33 1.03 1.86s.93 1.01 1.47 1.42c.87.66 1.62 1.01 2.27 1.06q.96.06 1.47-.6c.28-.37.37-.76.27-1.15s-.32-.8-.64-1.22-.7-.86-1.14-1.31-.86-.93-1.27-1.42c-.41-.5-.74-1-.98-1.52a3.3 3.3 0 0 1-.33-1.62c.03-.57.28-1.16.75-1.78.5-.66 1.13-1.09 1.89-1.28q1.125-.285 2.49.12c.91.27 1.85.77 2.83 1.52Zm-11.2-10.18q1.41 1.53 1.83 3.33t-.12 3.57c-.36 1.18-1.04 2.23-2.03 3.15-1.01.93-2.11 1.52-3.31 1.78s-2.38.19-3.55-.19-2.22-1.09-3.16-2.11c-.93-1.01-1.54-2.11-1.83-3.31s-.26-2.38.09-3.55c.35-1.16 1.04-2.21 2.06-3.15 1.01-.93 2.11-1.52 3.3-1.79a6.74 6.74 0 0 1 3.56.18c1.18.39 2.23 1.08 3.16 2.09m-1.61 1.48c-.6-.65-1.28-1.1-2.05-1.34q-1.155-.375-2.37-.06c-.81.21-1.57.64-2.29 1.3-.73.67-1.22 1.39-1.48 2.17s-.3 1.56-.11 2.35c.18.79.57 1.5 1.17 2.15s1.28 1.1 2.04 1.33c.76.24 1.55.27 2.36.09s1.58-.61 2.31-1.28c.71-.66 1.2-1.39 1.46-2.19.26-.81.3-1.6.12-2.38s-.56-1.5-1.16-2.15Zm-21.14-8.63c-.58-.96-.91-1.93-.98-2.88-.07-.96.14-1.87.65-2.75.51-.87 1.34-1.66 2.5-2.36l6.79-4.1 1.29 2.14-6.54 3.95c-1.14.69-1.84 1.49-2.08 2.39s-.06 1.86.55 2.87c.46.76 1 1.33 1.64 1.71s1.34.56 2.1.51c.76-.04 1.57-.33 2.43-.85l6.08-3.67 1.29 2.14-11.8 7.12-1.24-2.05 3.18-1.92-.64.84q-1.5.12-2.88-.69c-.91-.54-1.69-1.35-2.34-2.42Zm4.12-24.48-2.74.99-.47.31-4.67 1.68c-.99.36-1.66.92-2 1.7s-.3 1.74.12 2.9c.28.77.67 1.47 1.19 2.11s1.08 1.14 1.68 1.49l-1.41 1.61c-.78-.48-1.48-1.13-2.1-1.97-.62-.83-1.12-1.77-1.49-2.79-.64-1.78-.7-3.3-.18-4.58.52-1.27 1.67-2.23 3.44-2.87l7.83-2.82.8 2.23Zm1.67 4.21c.35.96.49 1.87.42 2.71-.06.84-.32 1.56-.76 2.16s-1.02 1.03-1.76 1.3c-.7.25-1.4.31-2.09.19-.69-.13-1.34-.51-1.96-1.15s-1.15-1.6-1.62-2.89l-1.48-4.11 1.69-.61 1.44 4.01c.42 1.17.9 1.9 1.44 2.16.54.27 1.08.3 1.64.1.64-.23 1.06-.66 1.26-1.31q.3-.96-.18-2.31c-.32-.88-.79-1.58-1.42-2.1s-1.37-.79-2.23-.82l1.45-1.05c.88.03 1.68.36 2.41.98s1.31 1.53 1.74 2.72Zm-3.55-11.32-18.89 3.94-.51-2.44 18.89-3.94zm-17.82-7.06c.06.48-.05.9-.33 1.25-.27.35-.63.56-1.08.61-.46.05-.87-.06-1.22-.35-.35-.28-.55-.67-.6-1.15-.06-.48.05-.9.31-1.25.27-.35.62-.56 1.07-.61q.69-.075 1.23.33c.35.27.56.66.62 1.16Zm16.47-.62-13.69 1.56-.28-2.48 13.69-1.56zm-.54-11.55c-.02 1.14-.19 2.23-.52 3.25-.33 1.03-.72 1.83-1.18 2.41l-1.96-1.07c.41-.58.76-1.31 1.05-2.17s.44-1.74.46-2.65q.03-1.74-.45-2.52c-.32-.52-.78-.78-1.37-.79-.43 0-.77.14-1.02.45q-.375.465-.57 1.23c-.13.51-.25 1.08-.35 1.7-.11.62-.24 1.24-.39 1.87-.16.62-.37 1.19-.65 1.71q-.42.78-1.14 1.23c-.48.3-1.12.45-1.92.44-.83-.01-1.56-.26-2.17-.74q-.93-.72-1.41-2.01c-.48-1.29-.48-1.88-.46-3.06.01-.9.14-1.81.37-2.74.23-.92.55-1.68.96-2.26l1.96 1.1c-.43.62-.72 1.26-.89 1.94-.17.67-.26 1.35-.27 2.02-.02 1.09.15 1.91.49 2.45.35.54.8.82 1.35.83.47 0 .83-.15 1.09-.46.26-.32.46-.73.61-1.24s.27-1.07.38-1.7c.11-.62.24-1.24.39-1.87.16-.62.37-1.19.64-1.69q.405-.765 1.11-1.23c.705-.465 1.1-.46 1.88-.45.83.01 1.55.27 2.15.76.6.5 1.06 1.19 1.38 2.08s.48 1.95.46 3.18Zm1.49-15.35c-.27 1.45-.8 2.67-1.6 3.66s-1.77 1.69-2.92 2.11-2.4.5-3.75.25-2.49-.76-3.42-1.54-1.6-1.74-2-2.88-.48-2.36-.24-3.65c.24-1.31.74-2.42 1.51-3.32q1.14-1.35 2.88-1.92c1.15-.38 2.43-.44 3.83-.19.1.02.22.05.36.08s.26.07.38.11l-2.11 11.53-1.76-.32 1.88-10.26.43 1.11c-.87-.18-1.67-.14-2.43.11-.75.25-1.38.67-1.88 1.25-.5.59-.84 1.31-.99 2.18-.16.85-.1 1.65.16 2.38s.7 1.35 1.33 1.85c.62.5 1.38.83 2.26 1l.41.07c.9.17 1.75.1 2.53-.18a4.4 4.4 0 0 0 1.97-1.45c.53-.68.88-1.5 1.06-2.48.15-.8.14-1.55 0-2.26-.15-.71-.46-1.36-.91-1.95l1.83-1.06c.6.74 1.01 1.61 1.22 2.59s.21 2.03 0 3.16Zm5.95-19.5-3.45-1.38-2.91-1.33-3.07-.95-8.52-3.42.93-2.32 17.91 7.18zm-1.68 4.62c-.5 1.24-1.21 2.24-2.15 2.99s-2.01 1.22-3.22 1.39-2.46 0-3.77-.53c-1.3-.52-2.33-1.26-3.08-2.21s-1.2-2.03-1.36-3.22.01-2.41.51-3.65c.43-1.08 1.06-1.95 1.89-2.63s1.83-1.08 3.01-1.22c1.17-.14 2.49.09 3.93.67 1.45.58 2.55 1.32 3.32 2.21.76.89 1.21 1.87 1.36 2.94.14 1.07 0 2.15-.45 3.26Zm-1.95-1.01c.32-.8.43-1.61.32-2.41s-.43-1.53-.96-2.18-1.25-1.16-2.15-1.52c-.92-.37-1.79-.5-2.6-.39-.82.11-1.54.42-2.18.92-.63.5-1.11 1.16-1.43 1.96-.33.82-.44 1.63-.33 2.42s.42 1.51.94 2.17c.51.65 1.23 1.16 2.14 1.53.9.36 1.77.49 2.61.37a4.46 4.46 0 0 0 2.2-.91c.63-.49 1.11-1.15 1.44-1.97Zm12.7-18.83-1.62 2.03-14.23-11.35 8.01-10.04 1.77 1.41-6.39 8.01zm-7.66-5.78 5.85-7.34 1.75 1.39-5.85 7.34zm20.84-8.04c-1.05.9-2.19 1.47-3.4 1.71s-2.4.15-3.57-.25-2.19-1.12-3.07-2.15c-.89-1.04-1.44-2.16-1.66-3.37-.21-1.21-.11-2.39.32-3.54s1.17-2.18 2.22-3.08c1.04-.89 2.17-1.46 3.38-1.71a6.55 6.55 0 0 1 3.54.22c1.15.4 2.17 1.12 3.08 2.18.89 1.04 1.45 2.16 1.67 3.37.22 1.2.12 2.39-.31 3.55-.43 1.17-1.16 2.19-2.2 3.08Zm-1.42-1.66c.67-.57 1.14-1.24 1.42-2q.405-1.14.15-2.37c-.18-.82-.58-1.6-1.21-2.33-.64-.75-1.35-1.27-2.12-1.56a4.26 4.26 0 0 0-2.34-.2c-.79.15-1.52.52-2.2 1.09-.67.57-1.14 1.24-1.41 1.99s-.33 1.54-.17 2.36c.15.82.55 1.6 1.19 2.35.63.74 1.34 1.25 2.14 1.54q1.2.435 2.37.21c1.17-.225 1.51-.51 2.19-1.08Zm14.99-7.83q-1.815 1.02-3.66 1.02a6.7 6.7 0 0 1-3.45-.94c-1.07-.62-1.93-1.52-2.6-2.7-.67-1.19-.99-2.4-.97-3.63a6.7 6.7 0 0 1 1-3.41c.64-1.05 1.57-1.91 2.78-2.59 1.19-.67 2.41-1.01 3.65-1.02a6.6 6.6 0 0 1 3.43.9c1.05.61 1.92 1.52 2.6 2.73.67 1.19 1 2.4.98 3.62a6.67 6.67 0 0 1-1 3.43c-.65 1.06-1.57 1.93-2.76 2.6Zm-1.07-1.9c.77-.43 1.36-1 1.78-1.69s.62-1.46.6-2.29c-.01-.84-.26-1.68-.74-2.52-.48-.86-1.08-1.51-1.78-1.94s-1.45-.65-2.26-.65-1.6.21-2.37.65q-1.155.645-1.77 1.68a4.5 4.5 0 0 0-.63 2.28c0 .83.23 1.68.71 2.54.48.85 1.08 1.49 1.8 1.93s1.49.66 2.29.67c.8 0 1.58-.21 2.36-.64Zm15.99-4.69c-1.27.41-2.5.49-3.67.25a6.4 6.4 0 0 1-3.12-1.6c-.9-.82-1.56-1.9-1.99-3.24s-.51-2.6-.25-3.78.8-2.22 1.62-3.1 1.86-1.52 3.14-1.93c1.11-.35 2.18-.43 3.23-.21 1.05.21 2 .73 2.85 1.54.85.82 1.52 1.97 1.99 3.46s.61 2.81.41 3.96c-.2 1.16-.67 2.13-1.4 2.92s-1.67 1.36-2.8 1.73Zm-.47-2.14a4.6 4.6 0 0 0 2.06-1.29c.55-.59.9-1.3 1.07-2.13.16-.83.1-1.7-.2-2.63-.3-.94-.75-1.69-1.36-2.25a4.43 4.43 0 0 0-2.1-1.09c-.79-.17-1.6-.12-2.42.15q-1.26.405-2.07 1.29c-.54.59-.9 1.29-1.07 2.1-.18.81-.12 1.69.19 2.63.3.92.75 1.67 1.37 2.25a4.4 4.4 0 0 0 2.1 1.12c.78.17 1.59.12 2.44-.15Zm5.1.5-1.13-3.54-.82-3.09-1.22-2.97-2.79-8.74 2.38-.76 5.87 18.38-2.28.73Zm15.42-2.36c-.48.04-.91-.1-1.28-.41s-.58-.73-.62-1.24c-.04-.52.1-.95.42-1.31.32-.35.72-.55 1.21-.59.47-.04.88.1 1.24.4q.54.45.6 1.23c.04.52-.1.96-.41 1.32s-.7.56-1.17.6Z" style="fill:#231f20"/></svg>