<?xml version="1.0" encoding="UTF-8"?>
<svg id="Layer_1" data-name="Layer 1" xmlns="http://www.w3.org/2000/svg" xmlns:xlink="http://www.w3.org/1999/xlink" viewBox="0 0 283.46 283.46">
  <defs>
    <style>
      .cls-1 {
        fill: #4882d0;
        opacity: 0;
        stroke-width: 6.53px;
      }

      .cls-1, .cls-2 {
        stroke: #231f20;
        stroke-miterlimit: 10;
      }

      .cls-3 {
        fill: #231f20;
      }

      .cls-2 {
        fill: #bbdb0c;
        filter: url(#drop-shadow-5);
        stroke-width: 3.78px;
      }
    </style>
    <filter id="drop-shadow-5" x="-6.08" y="5.68" width="282" height="282" filterUnits="userSpaceOnUse">
      <feOffset dx="-5.61" dy="5.61"/>
      <feGaussianBlur result="blur" stdDeviation="5.61"/>
      <feFlood flood-color="#000" flood-opacity=".1"/>
      <feComposite in2="blur" operator="in"/>
      <feComposite in="SourceGraphic"/>
    </filter>
  </defs>
  <g>
    <path class="cls-2" d="M140.42,18.82c-67.47,0-122.16,54.69-122.16,122.16,0,67.47,54.69,122.16,122.16,122.16,67.47,0,122.16-54.69,122.16-122.16,0-67.47-54.69-122.16-122.16-122.16ZM140.42,183.2c-23.32,0-42.22-18.9-42.22-42.22,0-23.32,18.9-42.22,42.22-42.22,23.32,0,42.22,18.9,42.22,42.22,0,23.32-18.9,42.22-42.22,42.22Z"/>
    <circle class="cls-1" cx="140.42" cy="140.98" r="42.22"/>
  </g>
  <g>
    <path class="cls-3" d="M146.89,55.86l2.81-15.85,1.86.33,4.99,13.24-1-.18,9.14-10.74,1.86.33-2.78,15.86-2.17-.38,2.18-12.44.52.09-8.11,9.4-1.04-.18-4.44-11.62.57.1-2.2,12.43-2.17-.38Z"/>
    <path class="cls-3" d="M172.77,62.57c-1.21-.49-2.17-1.17-2.88-2.04s-1.15-1.84-1.3-2.91c-.15-1.07,0-2.17.46-3.29.46-1.12,1.1-2.02,1.95-2.68.84-.67,1.79-1.07,2.85-1.21,1.06-.14,2.13,0,3.21.45,1.09.44,1.96,1.08,2.6,1.9.64.82,1.02,1.77,1.14,2.84.12,1.07-.06,2.18-.53,3.35-.03.09-.08.18-.13.29-.05.11-.11.21-.16.31l-9.61-3.9.6-1.47,8.54,3.47-1.04.17c.31-.72.42-1.43.34-2.12-.08-.7-.33-1.31-.75-1.86-.42-.54-.99-.96-1.71-1.25-.71-.29-1.41-.39-2.09-.29-.68.09-1.3.37-1.85.81-.55.45-.97,1.04-1.27,1.78l-.14.34c-.31.75-.41,1.5-.3,2.23.11.73.41,1.39.9,1.97.49.58,1.14,1.04,1.95,1.36.67.27,1.32.4,1.96.4.64,0,1.26-.15,1.85-.44l.59,1.78c-.75.39-1.57.59-2.46.59-.89,0-1.8-.18-2.74-.57Z"/>
    <path class="cls-3" d="M184.82,68.72c-1-.63-1.75-1.41-2.26-2.34-.51-.93-.74-1.94-.7-3.02.04-1.08.39-2.14,1.05-3.19.66-1.05,1.46-1.83,2.41-2.33.95-.5,1.95-.73,3.02-.67,1.06.05,2.09.39,3.09,1.02.87.55,1.53,1.23,1.99,2.06.46.83.65,1.77.59,2.81-.07,1.04-.47,2.15-1.2,3.32-.73,1.17-1.55,2.01-2.45,2.54-.9.52-1.82.76-2.77.72s-1.87-.35-2.77-.91ZM186,67.18c.65.41,1.33.63,2.04.66.71.03,1.4-.13,2.05-.49.65-.36,1.21-.9,1.66-1.63.46-.74.71-1.48.75-2.21.03-.73-.12-1.41-.46-2.04-.34-.63-.83-1.15-1.48-1.55-.66-.42-1.35-.64-2.05-.66-.71-.03-1.39.13-2.04.47-.65.34-1.21.89-1.67,1.63-.46.73-.7,1.46-.74,2.21-.03.75.11,1.43.45,2.06.33.62.83,1.14,1.49,1.56ZM188.57,70.92l1.75-2.79,1.62-2.32,1.31-2.52,4.31-6.88,1.87,1.17-9.07,14.46-1.79-1.12Z"/>
    <path class="cls-3" d="M193.64,74.77l7.77-9.4,1.7,1.41-7.77,9.4-1.7-1.41ZM203.75,64.27c-.33-.27-.52-.61-.56-1-.04-.39.06-.74.32-1.05.26-.32.59-.49.99-.53.39-.03.76.09,1.09.36.33.27.52.6.57.99.05.39-.06.74-.31,1.04-.26.32-.59.5-.99.54s-.76-.08-1.1-.36Z"/>
    <path class="cls-3" d="M202.21,82.9c-.86-.9-1.43-1.88-1.72-2.96-.29-1.07-.28-2.13,0-3.18.29-1.05.88-1.99,1.75-2.83.87-.84,1.84-1.38,2.9-1.63,1.06-.25,2.11-.21,3.17.13,1.06.34,2.01.95,2.87,1.85.76.8,1.29,1.66,1.57,2.59.28.93.28,1.86,0,2.8l-1.94-.46c.16-.7.14-1.36-.06-1.97-.19-.61-.52-1.16-.97-1.63-.55-.58-1.17-.97-1.86-1.18-.69-.21-1.39-.23-2.11-.05-.71.17-1.39.56-2.02,1.17-.63.6-1.05,1.26-1.26,1.97-.21.71-.23,1.42-.04,2.11.18.7.55,1.33,1.1,1.91.46.48.99.82,1.59,1.04.6.22,1.26.26,1.97.14l.4,1.94c-.94.24-1.87.21-2.8-.11-.93-.31-1.77-.87-2.54-1.66Z"/>
    <path class="cls-3" d="M209.39,91.63c-.52-.74-.84-1.48-.98-2.22-.14-.74-.09-1.41.15-2.02.24-.61.64-1.12,1.2-1.51.54-.38,1.12-.59,1.74-.64.62-.05,1.27.13,1.94.53.67.4,1.35,1.1,2.04,2.09l2.21,3.17-1.3.91-2.15-3.1c-.63-.91-1.21-1.41-1.73-1.52-.52-.1-1,0-1.42.29-.49.34-.75.81-.77,1.41-.02.6.2,1.24.69,1.93.47.68,1.04,1.17,1.69,1.47s1.35.36,2.09.19l-1,1.23c-.76.17-1.52.08-2.29-.29-.77-.36-1.47-1-2.11-1.92ZM211.79,94.83l2.11-1.47.33-.37,3.61-2.51c.77-.53,1.21-1.17,1.32-1.91.11-.74-.14-1.56-.77-2.45-.41-.59-.91-1.1-1.5-1.53-.59-.43-1.18-.73-1.78-.89l.83-1.7c.77.23,1.52.63,2.25,1.2.72.57,1.36,1.25,1.91,2.05.95,1.37,1.36,2.66,1.21,3.87-.15,1.21-.91,2.29-2.28,3.24l-6.04,4.2-1.2-1.72Z"/>
    <path class="cls-3" d="M214.98,100.25l15.08-8,1.03,1.95-15.08,8-1.03-1.95Z"/>
    <path class="cls-3" d="M221.18,114.49l-.65-2.21,15.45-4.54,3.21,10.9-1.92.56-2.56-8.69-13.53,3.98ZM229.26,111.88l2.34,7.97-1.9.56-2.34-7.97,1.9-.56Z"/>
    <path class="cls-3" d="M224.61,130.83c-.15-1.22,0-2.33.41-3.34.42-1.01,1.07-1.84,1.94-2.5.87-.66,1.9-1.06,3.09-1.2,1.2-.14,2.3,0,3.3.44.99.44,1.81,1.1,2.45,1.98.64.88,1.03,1.93,1.18,3.15.14,1.2.01,2.31-.4,3.33-.41,1.01-1.05,1.85-1.9,2.5-.86.65-1.89,1.05-3.11,1.19-1.2.14-2.3,0-3.29-.43-.99-.43-1.81-1.09-2.46-1.98-.65-.89-1.04-1.93-1.19-3.14ZM226.53,130.6c.09.78.35,1.45.78,2.03.42.57.98,1,1.67,1.27.69.27,1.46.36,2.31.26.87-.1,1.6-.37,2.19-.79.59-.43,1.02-.97,1.3-1.63.28-.66.37-1.38.28-2.15s-.35-1.45-.77-2.02c-.42-.57-.97-1-1.65-1.29-.68-.29-1.45-.38-2.31-.28-.85.1-1.58.37-2.18.82-.6.44-1.04.99-1.32,1.64-.28.65-.37,1.36-.28,2.14Z"/>
    <path class="cls-3" d="M225.11,145.29c.06-1.23.38-2.3.97-3.22.58-.92,1.36-1.64,2.33-2.14.97-.5,2.05-.73,3.25-.67,1.21.06,2.27.39,3.17.99.91.6,1.6,1.38,2.08,2.36.48.98.69,2.08.63,3.3-.06,1.21-.38,2.28-.95,3.21s-1.34,1.65-2.29,2.14c-.95.5-2.04.72-3.27.65-1.21-.06-2.27-.39-3.18-.98-.91-.59-1.6-1.38-2.09-2.36-.49-.98-.7-2.08-.64-3.29ZM227.04,145.39c-.04.78.1,1.49.42,2.13.32.64.8,1.15,1.43,1.53s1.38.6,2.24.64c.87.04,1.64-.1,2.29-.42.65-.32,1.17-.78,1.55-1.38.38-.6.59-1.29.63-2.08.04-.78-.1-1.49-.42-2.12-.32-.63-.79-1.15-1.41-1.54-.62-.4-1.36-.62-2.24-.66-.86-.04-1.62.1-2.29.44-.67.33-1.2.8-1.58,1.4s-.59,1.28-.63,2.06Z"/>
    <path class="cls-3" d="M222.37,163.67l3.21.74,2.73.77,2.81.41,7.91,1.82-.5,2.15-16.63-3.83.48-2.06ZM223.21,159.41c.27-1.15.76-2.12,1.47-2.91.72-.79,1.59-1.34,2.62-1.65,1.03-.31,2.15-.33,3.36-.05s2.21.78,2.99,1.52c.78.73,1.32,1.61,1.62,2.63.3,1.02.32,2.11.05,3.26-.23,1-.66,1.85-1.3,2.56-.63.7-1.46,1.19-2.46,1.47-1.01.28-2.19.26-3.53-.05-1.34-.31-2.41-.8-3.2-1.48s-1.32-1.47-1.59-2.38c-.27-.91-.29-1.88-.05-2.91ZM225.05,160.02c-.17.75-.16,1.46.05,2.15.2.68.58,1.27,1.14,1.77.55.5,1.25.84,2.09,1.04.85.2,1.63.19,2.33-.02.7-.21,1.29-.58,1.78-1.1.48-.53.81-1.16.98-1.91.18-.76.16-1.48-.05-2.16-.21-.68-.58-1.27-1.11-1.77-.54-.5-1.23-.85-2.08-1.05-.84-.19-1.61-.18-2.33.03-.72.21-1.32.58-1.8,1.1-.48.52-.81,1.16-.99,1.92Z"/>
    <path class="cls-3" d="M217.09,177.1c.31-.67.8-1.12,1.46-1.37.66-.25,1.33-.21,2.01.11.71.33,1.16.83,1.37,1.49.21.66.15,1.32-.16,1.98-.31.67-.79,1.13-1.43,1.39-.64.26-1.31.22-2.02-.11-.68-.32-1.13-.81-1.36-1.48-.23-.67-.18-1.33.13-2Z"/>
    <path class="cls-3" d="M211.45,188.35l12.43,10.24-1.2,1.46-13.98-2.16.64-.78,4.86,13.24-1.2,1.46-12.44-10.22,1.4-1.7,9.76,8.01-.34.41-4.2-11.69.67-.82,12.3,1.85-.37.44-9.74-8.03,1.4-1.7Z"/>
    <path class="cls-3" d="M192.92,207.58c1.02-.81,2.08-1.32,3.19-1.52,1.11-.2,2.17-.1,3.18.29,1.01.39,1.89,1.06,2.65,2.01.76.95,1.22,1.95,1.39,3.01s.06,2.09-.34,3.08c-.39.99-1.05,1.85-1.96,2.58-.92.74-1.9,1.18-2.93,1.34-1.03.16-2.04.03-3.03-.39-.99-.42-1.88-1.12-2.66-2.1-.06-.07-.12-.16-.19-.26s-.13-.2-.19-.29l8.11-6.47.99,1.24-7.21,5.76.36-.99c.48.62,1.04,1.07,1.68,1.33.65.27,1.31.35,1.98.25.68-.1,1.32-.39,1.93-.88.6-.48,1.02-1.04,1.28-1.68.25-.64.32-1.31.19-2.01-.12-.7-.43-1.36-.93-1.98l-.23-.29c-.51-.63-1.11-1.08-1.8-1.35s-1.41-.32-2.16-.18c-.75.15-1.46.49-2.15,1.04-.56.45-1,.95-1.31,1.51s-.48,1.17-.52,1.83l-1.84-.35c.03-.85.26-1.66.69-2.43.43-.78,1.04-1.48,1.83-2.11Z"/>
    <path class="cls-3" d="M177.91,217.3l1.58,2.89,1.24,2.55,1.56,2.37,3.89,7.12-1.94,1.06-8.19-14.97,1.86-1.01ZM181.66,215.1c1.04-.57,2.09-.84,3.15-.83,1.06.01,2.06.3,2.98.86.92.56,1.68,1.39,2.27,2.48.6,1.09.88,2.17.85,3.24-.03,1.07-.32,2.06-.88,2.96-.56.9-1.36,1.64-2.4,2.2-.9.49-1.83.74-2.77.73-.95,0-1.86-.29-2.74-.86-.88-.57-1.65-1.46-2.31-2.67-.66-1.21-1-2.34-1.02-3.38-.02-1.04.22-1.96.73-2.77s1.22-1.46,2.15-1.97ZM182.43,216.88c-.67.37-1.2.85-1.57,1.46s-.57,1.28-.57,2.03c0,.74.2,1.49.61,2.25.42.77.94,1.34,1.56,1.73.62.39,1.29.58,2,.6.71.01,1.41-.17,2.08-.53.69-.38,1.21-.86,1.58-1.47.37-.6.56-1.27.58-2.01.02-.73-.18-1.49-.6-2.25-.41-.75-.94-1.33-1.57-1.72-.64-.4-1.31-.6-2.01-.62s-1.4.17-2.09.54Z"/>
    <path class="cls-3" d="M172.09,219.82l4.4,11.37-2.06.8-4.4-11.37,2.06-.8ZM176.3,233.78c.4-.15.78-.15,1.15,0,.36.15.62.42.76.79.15.39.14.76-.02,1.12-.17.36-.45.62-.85.77-.4.15-.78.16-1.14.01-.36-.15-.61-.41-.76-.78-.15-.39-.15-.76,0-1.12.16-.36.44-.63.85-.79Z"/>
    <path class="cls-3" d="M160.8,223.32c1.2-.31,2.34-.33,3.42-.05,1.08.28,2,.8,2.77,1.57.77.77,1.3,1.74,1.6,2.91.3,1.17.3,2.28,0,3.32-.3,1.04-.86,1.94-1.67,2.7-.81.75-1.82,1.29-3.02,1.6-1.07.28-2.08.31-3.03.1-.95-.21-1.76-.67-2.43-1.38l1.36-1.47c.54.48,1.12.79,1.74.92.63.13,1.26.12,1.9-.05.77-.2,1.42-.55,1.94-1.04.52-.5.88-1.1,1.08-1.81.2-.71.19-1.48-.03-2.33-.22-.85-.59-1.54-1.1-2.07-.52-.53-1.12-.89-1.82-1.08-.7-.19-1.43-.18-2.2.02-.64.16-1.2.46-1.69.87-.49.42-.85.97-1.08,1.64l-1.89-.61c.25-.94.74-1.73,1.46-2.38.73-.65,1.62-1.12,2.69-1.39Z"/>
    <path class="cls-3" d="M145.7,225.8l.24,2.56.16.47.41,4.37c.09.93.43,1.63,1.02,2.09.59.46,1.43.64,2.51.54.72-.07,1.41-.25,2.07-.55s1.22-.67,1.65-1.11l1.07,1.56c-.58.56-1.29,1.02-2.15,1.37-.85.35-1.76.57-2.72.66-1.66.16-2.98-.13-3.96-.85-.98-.72-1.54-1.92-1.7-3.58l-.69-7.33,2.08-.2ZM149.67,225.29c.9-.08,1.71,0,2.41.24.71.24,1.27.62,1.69,1.12.42.51.66,1.1.72,1.79.06.66-.04,1.27-.3,1.83-.26.56-.73,1.04-1.41,1.43-.68.39-1.62.64-2.83.75l-3.85.36-.15-1.58,3.76-.35c1.1-.1,1.82-.36,2.17-.76.35-.4.5-.86.45-1.38-.06-.6-.34-1.05-.84-1.36-.51-.31-1.18-.43-2.02-.35-.82.08-1.53.33-2.11.75-.58.42-.98,1-1.19,1.73l-.58-1.47c.22-.75.68-1.36,1.37-1.85.69-.49,1.6-.79,2.71-.89Z"/>
    <path class="cls-3" d="M139.41,225.92l-.42,17.06-2.21-.05.42-17.06,2.21.05Z"/>
    <path class="cls-3" d="M123.92,224.36l2.24.51-3.59,15.69-11.08-2.53.45-1.95,8.83,2.02,3.14-13.74ZM122.25,232.68l-8.09-1.85.44-1.93,8.09,1.85-.44,1.93Z"/>
    <path class="cls-3" d="M108,219.36c1.13.47,2.04,1.13,2.71,1.99.67.86,1.08,1.83,1.23,2.91.15,1.08,0,2.18-.46,3.28-.46,1.12-1.13,2.01-2,2.66-.87.65-1.84,1.04-2.92,1.17-1.08.12-2.19-.05-3.32-.52-1.12-.46-2.02-1.12-2.7-1.98-.68-.85-1.1-1.82-1.25-2.88-.15-1.07.01-2.16.48-3.3.46-1.12,1.13-2.01,1.99-2.66.86-.66,1.84-1.05,2.93-1.18,1.09-.13,2.2.04,3.31.5ZM107.26,221.15c-.72-.3-1.44-.4-2.15-.32-.71.09-1.35.37-1.93.83-.57.47-1.03,1.1-1.36,1.89-.33.81-.46,1.57-.38,2.3.08.72.34,1.37.78,1.93.44.56,1.02.99,1.74,1.29.72.3,1.43.4,2.14.31.7-.09,1.34-.36,1.93-.81.58-.45,1.04-1.07,1.38-1.88.33-.79.45-1.56.36-2.3-.09-.74-.35-1.39-.78-1.96-.43-.56-1.01-.99-1.73-1.29Z"/>
    <path class="cls-3" d="M95.16,212.71c1.04.66,1.81,1.46,2.33,2.43.52.96.76,1.99.72,3.08-.04,1.09-.38,2.14-1.01,3.15-.65,1.02-1.45,1.78-2.42,2.28s-1.99.71-3.08.65c-1.09-.06-2.15-.42-3.18-1.07-1.02-.65-1.8-1.45-2.33-2.41-.53-.96-.77-1.98-.74-3.05.04-1.08.38-2.13,1.04-3.17.65-1.02,1.45-1.79,2.41-2.29.96-.5,1.99-.72,3.08-.66,1.1.06,2.16.41,3.18,1.06ZM94.13,214.34c-.66-.42-1.35-.64-2.06-.68s-1.39.13-2.04.49c-.65.36-1.2.91-1.66,1.63-.47.74-.72,1.47-.76,2.2-.04.73.11,1.4.44,2.03.34.63.84,1.15,1.5,1.57.66.42,1.35.64,2.05.67.71.03,1.39-.13,2.04-.47.65-.34,1.21-.88,1.68-1.62.46-.73.71-1.46.74-2.21.04-.75-.11-1.43-.44-2.06-.33-.63-.83-1.15-1.49-1.57Z"/>
    <path class="cls-3" d="M80.51,201.3l-2.22,2.43-2.01,2-1.74,2.25-5.47,6-1.63-1.49,11.5-12.61,1.56,1.43ZM83.81,204.12c.87.8,1.48,1.7,1.81,2.71.33,1.01.38,2.04.15,3.09-.23,1.05-.77,2.04-1.61,2.96-.84.92-1.77,1.54-2.79,1.86-1.02.32-2.05.37-3.09.13-1.04-.24-1.99-.76-2.86-1.55-.76-.69-1.29-1.49-1.59-2.39-.3-.9-.33-1.85-.07-2.87.25-1.02.84-2.03,1.77-3.05.93-1.02,1.88-1.71,2.86-2.06.98-.35,1.93-.42,2.86-.21.93.21,1.78.68,2.56,1.39ZM82.38,205.43c-.57-.52-1.2-.85-1.89-1.01-.7-.16-1.4-.12-2.1.12-.71.24-1.35.67-1.93,1.31-.59.65-.96,1.33-1.13,2.04-.16.71-.13,1.41.09,2.09.22.68.61,1.28,1.18,1.79.58.53,1.21.87,1.9,1.02.69.15,1.39.12,2.09-.1.7-.22,1.35-.66,1.93-1.3.58-.63.95-1.32,1.12-2.05.17-.73.14-1.43-.07-2.1-.22-.67-.61-1.27-1.19-1.8Z"/>
    <path class="cls-3" d="M71.39,190.12c.43.6.59,1.25.48,1.94-.11.7-.46,1.26-1.08,1.7-.64.45-1.29.61-1.97.47-.67-.14-1.23-.51-1.65-1.11-.43-.6-.6-1.24-.51-1.92.09-.68.45-1.25,1.09-1.71.61-.44,1.26-.59,1.96-.46.69.13,1.25.49,1.68,1.09Z"/>
    <path class="cls-3" d="M64.31,179.69l-15.01,5.83-.68-1.76,8.73-11.14.37.94-13.92-2.24-.68-1.76,15-5.85.8,2.06-11.76,4.59-.19-.49,12.25,2.06.38.99-7.64,9.82-.21-.54,11.77-4.57.8,2.06Z"/>
    <path class="cls-3" d="M56.63,154.11c.21,1.29.13,2.46-.25,3.52-.37,1.06-.98,1.94-1.81,2.62-.84.69-1.85,1.13-3.05,1.32s-2.3.1-3.31-.27c-1.01-.37-1.85-.98-2.52-1.81-.67-.83-1.1-1.82-1.28-2.97-.19-1.17-.1-2.24.27-3.21.37-.98.98-1.79,1.83-2.45s1.89-1.09,3.14-1.29c.09-.01.2-.03.32-.04.12-.01.24-.02.35-.02l1.65,10.24-1.57.25-1.47-9.11.69.8c-.77.11-1.44.38-1.99.81-.55.43-.95.96-1.2,1.6-.25.64-.31,1.34-.18,2.11.12.76.4,1.4.84,1.94.44.54.99.92,1.65,1.15.67.23,1.39.29,2.18.16l.36-.06c.8-.13,1.49-.43,2.06-.9.57-.47.97-1.07,1.21-1.79.24-.72.29-1.51.15-2.38-.11-.71-.34-1.34-.68-1.88-.34-.54-.78-1-1.34-1.36l1.21-1.43c.72.44,1.32,1.04,1.78,1.8.46.76.78,1.63.94,2.63Z"/>
    <path class="cls-3" d="M55.55,136.29l-3.29-.05-2.83-.18-2.83.18-8.12-.13.04-2.21,17.06.28-.03,2.12ZM55.62,140.64c-.02,1.18-.3,2.23-.83,3.15-.54.92-1.28,1.64-2.22,2.16-.94.52-2.04.77-3.28.75-1.24-.02-2.32-.31-3.24-.86-.92-.55-1.63-1.3-2.14-2.23-.51-.94-.75-1.99-.73-3.17.02-1.03.26-1.95.73-2.77s1.17-1.47,2.1-1.96c.93-.48,2.08-.71,3.46-.69s2.53.28,3.44.78,1.6,1.16,2.05,2c.45.84.67,1.78.66,2.84ZM53.69,140.42c.01-.77-.15-1.46-.5-2.09-.34-.63-.84-1.12-1.48-1.5-.65-.37-1.4-.56-2.26-.58-.87-.01-1.63.15-2.27.5-.64.35-1.14.83-1.51,1.45-.36.62-.55,1.31-.56,2.07-.01.78.15,1.48.5,2.1.34.62.83,1.12,1.46,1.5.63.38,1.38.57,2.26.59.86.01,1.62-.16,2.27-.52.66-.36,1.17-.84,1.53-1.45.36-.61.55-1.3.56-2.08Z"/>
    <path class="cls-3" d="M41.96,126.79c-.06.43-.25.76-.56,1-.31.24-.67.33-1.06.28-.41-.06-.73-.25-.96-.57-.23-.32-.32-.69-.26-1.12.06-.42.24-.76.55-1,.31-.24.66-.34,1.05-.28.41.06.74.24.98.56.24.31.33.69.27,1.13ZM56.19,129.95l-12.07-1.73.31-2.19,12.07,1.73-.31,2.19Z"/>
    <path class="cls-3" d="M58.67,118.38c-.32,1.2-.86,2.2-1.63,3.01-.77.8-1.68,1.35-2.72,1.65-1.05.29-2.15.29-3.32-.02-1.17-.31-2.14-.85-2.9-1.63-.76-.77-1.27-1.7-1.54-2.78-.26-1.08-.23-2.22.08-3.42.28-1.07.75-1.96,1.39-2.69.64-.73,1.44-1.21,2.39-1.45l.61,1.9c-.68.23-1.23.59-1.65,1.07-.42.48-.72,1.04-.89,1.68-.2.77-.22,1.51-.04,2.2.18.7.53,1.31,1.05,1.83.52.52,1.2.89,2.05,1.11.84.22,1.63.24,2.34.05.72-.19,1.33-.54,1.83-1.06.5-.52.86-1.16,1.06-1.93.17-.64.19-1.27.06-1.9-.13-.63-.43-1.21-.9-1.75l1.45-1.35c.69.68,1.15,1.49,1.36,2.44.22.95.18,1.96-.1,3.03Z"/>
    <path class="cls-3" d="M63.88,104.02l-2.35-1.05-.49-.09-4.02-1.78c-.85-.38-1.63-.42-2.32-.14s-1.26.93-1.7,1.93c-.29.66-.47,1.35-.53,2.08-.06.73,0,1.39.16,1.98l-1.89.17c-.21-.78-.25-1.63-.14-2.54.11-.91.36-1.81.76-2.7.68-1.53,1.57-2.54,2.68-3.04,1.11-.5,2.43-.41,3.96.27l6.73,2.99-.85,1.91ZM62.38,107.73c-.37.83-.83,1.49-1.39,1.99-.56.5-1.16.81-1.81.92s-1.29.03-1.92-.25c-.6-.27-1.09-.65-1.45-1.16s-.55-1.15-.55-1.93c0-.78.24-1.73.73-2.83l1.57-3.53,1.45.64-1.53,3.45c-.45,1.01-.58,1.76-.4,2.26s.51.85.99,1.07c.55.24,1.08.22,1.6-.07.52-.29.95-.82,1.3-1.59.34-.76.46-1.49.38-2.21-.08-.72-.39-1.34-.93-1.88l1.56.22c.54.56.85,1.26.94,2.1.09.84-.1,1.78-.55,2.8Z"/>
    <path class="cls-3" d="M66.86,98.48l-14.65-8.75,1.13-1.9,14.65,8.75-1.13,1.9Z"/>
    <path class="cls-3" d="M75.83,85.77l-1.55,1.7-11.91-10.83,7.65-8.41,1.48,1.35-6.1,6.7,10.43,9.49ZM69.4,80.23l5.59-6.14,1.46,1.33-5.59,6.14-1.46-1.33Z"/>
    <path class="cls-3" d="M88,74.32c-.96.76-1.98,1.22-3.06,1.39-1.08.17-2.13.05-3.14-.35-1.02-.4-1.9-1.07-2.64-2.01-.75-.95-1.2-1.97-1.34-3.04-.15-1.08,0-2.12.41-3.12.42-1,1.11-1.89,2.07-2.64.95-.75,1.97-1.21,3.05-1.39,1.08-.18,2.12-.07,3.12.32,1,.39,1.88,1.07,2.64,2.03.75.95,1.2,1.96,1.35,3.03.15,1.07.02,2.12-.4,3.13-.42,1.01-1.11,1.9-2.06,2.65ZM86.81,72.81c.61-.48,1.06-1.06,1.33-1.72.27-.66.34-1.36.22-2.09-.13-.73-.45-1.43-.99-2.11-.54-.69-1.15-1.17-1.82-1.45-.67-.28-1.36-.37-2.07-.26-.71.11-1.37.4-1.98.89-.61.48-1.05,1.05-1.32,1.71-.26.66-.34,1.35-.24,2.08.1.73.43,1.44.97,2.12.53.67,1.14,1.15,1.84,1.44s1.39.38,2.09.27c.7-.1,1.36-.4,1.97-.88Z"/>
    <path class="cls-3" d="M100.07,66.39c-1.08.58-2.16.87-3.25.85-1.09-.02-2.1-.31-3.04-.88-.93-.57-1.69-1.37-2.26-2.43-.58-1.06-.85-2.14-.81-3.23.04-1.08.35-2.09.93-3.01.58-.92,1.41-1.67,2.49-2.25,1.06-.58,2.14-.86,3.24-.85,1.09,0,2.1.29,3.02.85.92.56,1.67,1.37,2.26,2.45.58,1.06.85,2.14.82,3.22-.03,1.08-.34,2.09-.93,3.02-.59.93-1.41,1.68-2.48,2.26ZM99.15,64.69c.69-.37,1.22-.86,1.6-1.47.38-.61.57-1.28.57-2.02,0-.74-.21-1.49-.61-2.24-.42-.77-.93-1.35-1.54-1.74-.61-.39-1.28-.59-1.99-.61s-1.41.17-2.1.54c-.69.37-1.22.86-1.59,1.46-.37.6-.57,1.27-.59,2.01-.02.73.18,1.49.59,2.25.41.75.93,1.33,1.57,1.73.63.4,1.3.6,2.01.62.71.02,1.4-.16,2.09-.53Z"/>
    <path class="cls-3" d="M113.13,60.67c-1.12.37-2.2.45-3.25.25-1.04-.2-1.97-.67-2.77-1.39-.8-.72-1.4-1.67-1.79-2.85-.39-1.18-.47-2.29-.26-3.34s.69-1.97,1.4-2.75c.72-.79,1.64-1.36,2.76-1.73.98-.32,1.93-.39,2.86-.22s1.78.62,2.54,1.34c.76.72,1.36,1.73,1.79,3.04.43,1.31.56,2.48.39,3.5-.17,1.02-.58,1.89-1.21,2.59-.64.7-1.46,1.22-2.47,1.55ZM112.7,58.78c.73-.24,1.33-.62,1.81-1.15s.79-1.16.93-1.89.07-1.51-.2-2.32c-.27-.83-.68-1.49-1.22-1.98-.54-.49-1.16-.81-1.86-.95-.7-.14-1.41-.09-2.14.15-.74.25-1.35.63-1.82,1.16-.47.53-.78,1.15-.93,1.87s-.09,1.49.19,2.32c.27.82.68,1.47,1.23,1.98.55.5,1.18.83,1.87.97.69.14,1.41.09,2.15-.15ZM117.22,59.18l-1.03-3.12-.76-2.73-1.11-2.61-2.55-7.71,2.1-.69,5.35,16.21-2.01.66Z"/>
    <path class="cls-3" d="M131.41,56.73c-.73.08-1.38-.1-1.93-.54-.55-.43-.87-1.03-.95-1.77-.08-.78.1-1.43.56-1.94.45-.52,1.05-.82,1.78-.89.73-.08,1.37.09,1.93.5s.87,1.01.95,1.78c.08.75-.11,1.39-.56,1.93-.45.54-1.04.85-1.78.93Z"/>
  </g>
</svg>