<?xml version="1.0" encoding="UTF-8"?>
<svg id="Layer_1" data-name="Layer 1" xmlns="http://www.w3.org/2000/svg" viewBox="0 0 283.46 283.46">
  <defs>
    <style>
      .cls-1, .cls-2 {
        fill: #fff;
      }

      .cls-1, .cls-3, .cls-4, .cls-5 {
        stroke: #231f20;
        stroke-miterlimit: 10;
        stroke-width: 3.43px;
      }

      .cls-6, .cls-5 {
        fill: #231f20;
      }

      .cls-3 {
        fill: none;
      }

      .cls-4 {
        fill: #4882d0;
      }
    </style>
  </defs>
  <g>
    <g>
      <path class="cls-1" d="M104.06,109.65c.08-.27.17-.53.3-.77l-.32.99c0-.07,0-.14.02-.22Z"/>
      <path class="cls-1" d="M160.74,119.64c-.02.08-.05.15-.07.23l.05-1.13c.03.29.04.6.02.9Z"/>
      <path class="cls-1" d="M104.36,108.87l-.32.99-.21.67c.05-.31.13-.61.23-.9.08-.27.17-.53.3-.77Z"/>
      <path class="cls-1" d="M160.64,120.56l.03-.69.05-1.13c.03.29.04.6.02.9s-.05.6-.1.92Z"/>
    </g>
    <path class="cls-4" d="M164.69,59.96c-.32,1.8-1.4,3.15-3.28,4.07-.49.25-1.03.46-1.63.64-1.66.51-3.74.78-6.21.82-3.36.05-7.44-.34-12.21-1.19-3.39-.6-6.4-1.31-9.06-2.11-2.64-.81-4.88-1.73-6.69-2.75-.66-.38-1.26-.76-1.78-1.15-.94-.69-1.66-1.43-2.2-2.19-.84-1.22-1.12-2.51-.88-3.9s.95-2.47,2.15-3.33c1.2-.84,2.81-1.43,4.84-1.78,2.03-.34,4.43-.44,7.2-.3,2.08.12,8.36,1.06,10.78,1.42h0c3.88.72,7.21,1.62,10,2.65,3.17,1.17,5.54,2.51,7.1,4.03s2.17,3.2,1.85,5.05Z"/>
    <path class="cls-1" d="M161,118.54l.14-2.16,3.55-56.38-43.94-7.75-15.97,54.28-.59,1.99c-.07.37-.11.75-.13,1.12.08-.27-.63,3.16-.79,4.1-1.77,10.03,9.52,20.4,25.2,23.16,14.82,2.61,28.26-2.49,31.19-11.53.19-.51.32-1.06.42-1.62.16-.93.22-1.86.17-2.8.16-.35.69-2.05.75-2.42Z"/>
    <path class="cls-1" d="M120.75,52.25c-1.37,7.76,7.36,15.78,19.49,17.91,11.46,2.02,21.86-1.93,24.13-8.92.14-.39.24-.82.32-1.25,1.37-7.76-7.36-15.78-19.49-17.91-12.13-2.14-23.08,2.41-24.44,10.17Z"/>
    <path class="cls-1" d="M114.42,50.51c-1.77,10.03,9.52,20.4,25.2,23.16,14.82,2.61,28.26-2.5,31.19-11.53.19-.51.31-1.06.41-1.61,1.77-10.03-9.52-20.4-25.2-23.16-15.68-2.77-29.84,3.11-31.61,13.15Z"/>
    <path class="cls-4" d="M115.36,45.16c-1.77,10.03,9.52,20.4,25.2,23.16,14.82,2.61,28.26-2.5,31.19-11.53.19-.51.31-1.06.41-1.61,1.77-10.03-9.52-20.4-25.2-23.16-15.68-2.77-29.84,3.11-31.61,13.15Z"/>
    <g>
      <path class="cls-2" d="M129.58,48.33c4.1.72,4.85-3.44.73-4.17-4.1-.72-4.85,3.44-.73,4.17h0Z"/>
      <path class="cls-2" d="M144.16,50.69c4.1.72,4.85-3.44.73-4.17-4.1-.72-4.85,3.44-.73,4.17h0Z"/>
      <path class="cls-2" d="M157.73,53.29c4.1.72,4.85-3.44.73-4.17s-4.85,3.44-.73,4.17h0Z"/>
      <path class="cls-2" d="M134.72,54.35c4.1.72,4.85-3.44.73-4.17-4.1-.72-4.85,3.44-.73,4.17h0Z"/>
      <path class="cls-2" d="M151.48,57.3c4.1.72,4.85-3.44.73-4.17-4.1-.72-4.85,3.44-.73,4.17h0Z"/>
      <path class="cls-2" d="M136.6,43.63c4.1.72,4.85-3.44.73-4.17-4.1-.72-4.85,3.44-.73,4.17h0Z"/>
      <path class="cls-2" d="M153.36,46.59c4.1.72,4.85-3.44.73-4.17-4.1-.72-4.85,3.44-.73,4.17h0Z"/>
    </g>
  </g>
  <g>
    <rect class="cls-4" x="149.41" y="100.6" width="51.91" height="96.97" transform="translate(13.66 -14.72) rotate(5)"/>
    <polyline class="cls-3" points="207.09 98.03 200.97 90.12 193.57 96.85 187.45 88.94 180.05 95.67 173.93 87.76 166.53 94.48 160.4 86.57 152.99 93.3"/>
    <polyline class="cls-3" points="143.64 200.14 149.76 208.05 157.16 201.32 163.28 209.23 170.68 202.51 176.8 210.42 184.21 203.69 190.33 211.6 197.74 204.88"/>
  </g>
  <g>
    <g>
      <path class="cls-1" d="M124.4,239.93c-.18-.22-.33-.45-.46-.69l.63.83c-.06-.04-.11-.09-.17-.14Z"/>
      <path class="cls-1" d="M165.1,199.24c.05.06.1.13.15.19l-.9-.69c.26.14.51.31.75.5Z"/>
      <path class="cls-1" d="M123.94,239.25l.63.83.43.56c-.22-.22-.43-.45-.6-.7-.18-.22-.33-.45-.46-.69Z"/>
      <path class="cls-1" d="M165.79,199.85l-.55-.42-.9-.69c.26.14.51.31.75.5s.47.38.69.61Z"/>
    </g>
    <path class="cls-4" d="M118.48,161.78c1.29,1.29,1.77,2.96,1.46,5.02-.07.54-.21,1.11-.41,1.71-.53,1.65-1.51,3.51-2.89,5.55-1.88,2.78-4.55,5.89-7.98,9.33-2.43,2.43-4.75,4.5-6.93,6.21-2.18,1.7-4.22,3.01-6.09,3.9-.69.32-1.35.6-1.96.8-1.11.37-2.12.54-3.06.54-1.48-.02-2.7-.52-3.7-1.52s-1.48-2.2-1.49-3.67c0-1.47.44-3.12,1.32-4.99.89-1.86,2.18-3.88,3.89-6.07,1.29-1.64,5.66-6.24,7.35-8.02h0c2.82-2.76,5.47-4.98,7.92-6.68,2.77-1.92,5.23-3.1,7.37-3.51,2.14-.41,3.87.06,5.2,1.38Z"/>
    <path class="cls-5" d="M164.35,198.4l-1.69-1.35-44.15-35.25-31.55,31.55,35.31,44.22,1.3,1.62c.27.27.55.52.84.74-.18-.22,2.23,2.33,2.9,3,7.2,7.2,22.17,3.9,33.43-7.36,10.64-10.64,14.17-24.58,8.44-32.16-.3-.45-.69-.87-1.08-1.27-.67-.67-1.4-1.25-2.2-1.74-.19-.33-1.28-1.74-1.55-2Z"/>
    <path class="cls-1" d="M86.96,193.35c5.57,5.57,17.15,3.02,25.86-5.69,8.23-8.23,10.96-19.01,6.53-24.88-.24-.34-.53-.67-.84-.98-5.57-5.57-17.15-3.02-25.86,5.69s-11.26,20.28-5.69,25.86Z"/>
    <path class="cls-1" d="M81.9,197.53c7.2,7.2,22.17,3.9,33.43-7.36,10.64-10.64,14.17-24.59,8.45-32.17-.31-.44-.69-.86-1.09-1.26-7.2-7.2-22.17-3.9-33.43,7.36-11.26,11.26-14.57,26.23-7.36,33.43Z"/>
    <path class="cls-1" d="M78.06,193.69c7.2,7.2,22.17,3.9,33.43-7.36,10.64-10.64,14.17-24.59,8.45-32.17-.31-.44-.69-.86-1.09-1.26-7.2-7.2-22.17-3.9-33.43,7.36-11.26,11.26-14.57,26.23-7.36,33.43Z"/>
    <g>
      <path class="cls-6" d="M88.81,183.86c2.95-2.95-.04-5.94-2.99-2.99s.04,5.94,2.99,2.99h0Z"/>
      <path class="cls-6" d="M99.11,173.27c2.95-2.95-.04-5.94-2.99-2.99s.04,5.94,2.99,2.99h0Z"/>
      <path class="cls-6" d="M109.02,163.66c2.95-2.95-.04-5.94-2.99-2.99-2.95,2.95.04,5.94,2.99,2.99h0Z"/>
      <path class="cls-6" d="M96.69,183.11c2.95-2.95-.04-5.94-2.99-2.99-2.95,2.95.04,5.94,2.99,2.99h0Z"/>
      <path class="cls-6" d="M108.72,171.07c2.95-2.95-.04-5.94-2.99-2.99-2.95,2.95.04,5.94,2.99,2.99h0Z"/>
      <path class="cls-6" d="M88.99,175.42c2.95-2.95-.04-5.94-2.99-2.99-2.95,2.95.04,5.94,2.99,2.99h0Z"/>
      <path class="cls-6" d="M101.03,163.38c2.95-2.95-.04-5.94-2.99-2.99s.04,5.94,2.99,2.99h0Z"/>
    </g>
  </g>
</svg>