<svg xmlns="http://www.w3.org/2000/svg" id="Layer_1" data-name="Layer 1" viewBox="0 0 283.46 283.46"><defs><style>.cls-1,.cls-4{fill:#fff;stroke:#231f20;stroke-miterlimit:10;stroke-width:3.43px}.cls-4{fill:#4882d0}</style></defs><path d="M104.06 109.65c.08-.27.17-.53.3-.77l-.32.99c0-.07 0-.14.02-.22Zm56.68 9.99c-.02.08-.05.15-.07.23l.05-1.13c.03.29.04.6.02.9Z" class="cls-1"/><path d="m104.36 108.87-.32.99-.21.67c.05-.31.13-.61.23-.9.08-.27.17-.53.3-.77Zm56.28 11.69.03-.69.05-1.13c.03.29.04.6.02.9s-.05.6-.1.92Z" class="cls-1"/><path d="M164.69 59.96c-.32 1.8-1.4 3.15-3.28 4.07-.49.25-1.03.46-1.63.64-1.66.51-3.74.78-6.21.82-3.36.05-7.44-.34-12.21-1.19-3.39-.6-6.4-1.31-9.06-2.11-2.64-.81-4.88-1.73-6.69-2.75-.66-.38-1.26-.76-1.78-1.15-.94-.69-1.66-1.43-2.2-2.19-.84-1.22-1.12-2.51-.88-3.9s.95-2.47 2.15-3.33c1.2-.84 2.81-1.43 4.84-1.78q3.045-.51 7.2-.3c2.08.12 8.36 1.06 10.78 1.42 3.88.72 7.21 1.62 10 2.65 3.17 1.17 5.54 2.51 7.1 4.03s2.17 3.2 1.85 5.05Z" class="cls-4"/><path d="m161 118.54.14-2.16L164.69 60l-43.94-7.75-15.97 54.28-.59 1.99c-.07.37-.11.75-.13 1.12.08-.27-.63 3.16-.79 4.1-1.77 10.03 9.52 20.4 25.2 23.16 14.82 2.61 28.26-2.49 31.19-11.53.19-.51.32-1.06.42-1.62.16-.93.22-1.86.17-2.8.16-.35.69-2.05.75-2.42Z" class="cls-1"/><path d="M120.75 52.25c-1.37 7.76 7.36 15.78 19.49 17.91 11.46 2.02 21.86-1.93 24.13-8.92.14-.39.24-.82.32-1.25 1.37-7.76-7.36-15.78-19.49-17.91-12.13-2.14-23.08 2.41-24.44 10.17Z" class="cls-1"/><path d="M114.42 50.51c-1.77 10.03 9.52 20.4 25.2 23.16 14.82 2.61 28.26-2.5 31.19-11.53.19-.51.31-1.06.41-1.61 1.77-10.03-9.52-20.4-25.2-23.16-15.68-2.77-29.84 3.11-31.61 13.15Z" class="cls-1"/><path d="M115.36 45.16c-1.77 10.03 9.52 20.4 25.2 23.16 14.82 2.61 28.26-2.5 31.19-11.53.19-.51.31-1.06.41-1.61 1.77-10.03-9.52-20.4-25.2-23.16-15.68-2.77-29.84 3.11-31.61 13.15Z" class="cls-4"/><path d="M129.58 48.33c4.1.72 4.85-3.44.73-4.17-4.1-.72-4.85 3.44-.73 4.17m14.58 2.36c4.1.72 4.85-3.44.73-4.17-4.1-.72-4.85 3.44-.73 4.17m13.57 2.6c4.1.72 4.85-3.44.73-4.17s-4.85 3.44-.73 4.17m-23.01 1.06c4.1.72 4.85-3.44.73-4.17-4.1-.72-4.85 3.44-.73 4.17m16.76 2.95c4.1.72 4.85-3.44.73-4.17-4.1-.72-4.85 3.44-.73 4.17M136.6 43.63c4.1.72 4.85-3.44.73-4.17-4.1-.72-4.85 3.44-.73 4.17m16.76 2.96c4.1.72 4.85-3.44.73-4.17-4.1-.72-4.85 3.44-.73 4.17" style="fill:#fff"/><path d="m153.734 98.52 51.712 4.523-8.451 96.601-51.713-4.524z" class="cls-4"/><path d="m207.09 98.03-6.12-7.91-7.4 6.73-6.12-7.91-7.4 6.73-6.12-7.91-7.4 6.72-6.13-7.91-7.41 6.73m-9.35 106.84 6.12 7.91 7.4-6.73 6.12 7.91 7.4-6.72 6.12 7.91 7.41-6.73 6.12 7.91 7.41-6.72" style="stroke:#231f20;stroke-miterlimit:10;stroke-width:3.43px;fill:none"/><path d="M124.4 239.93a4.4 4.4 0 0 1-.46-.69l.63.83c-.06-.04-.11-.09-.17-.14Zm40.7-40.69c.05.06.1.13.15.19l-.9-.69c.26.14.51.31.75.5Z" class="cls-1"/><path d="m123.94 239.25.63.83.43.56a5 5 0 0 1-.6-.7 4.4 4.4 0 0 1-.46-.69Zm41.85-39.4-.55-.42-.9-.69c.26.14.51.31.75.5s.47.38.69.61Z" class="cls-1"/><path d="M118.48 161.78c1.29 1.29 1.77 2.96 1.46 5.02-.07.54-.21 1.11-.41 1.71-.53 1.65-1.51 3.51-2.89 5.55-1.88 2.78-4.55 5.89-7.98 9.33-2.43 2.43-4.75 4.5-6.93 6.21-2.18 1.7-4.22 3.01-6.09 3.9-.69.32-1.35.6-1.96.8-1.11.37-2.12.54-3.06.54-1.48-.02-2.7-.52-3.7-1.52s-1.48-2.2-1.49-3.67c0-1.47.44-3.12 1.32-4.99.89-1.86 2.18-3.88 3.89-6.07 1.29-1.64 5.66-6.24 7.35-8.02 2.82-2.76 5.47-4.98 7.92-6.68 2.77-1.92 5.23-3.1 7.37-3.51s3.87.06 5.2 1.38Z" class="cls-4"/><path d="m164.35 198.4-1.69-1.35-44.15-35.25-31.55 31.55 35.31 44.22 1.3 1.62c.27.27.55.52.84.74-.18-.22 2.23 2.33 2.9 3 7.2 7.2 22.17 3.9 33.43-7.36 10.64-10.64 14.17-24.58 8.44-32.16-.3-.45-.69-.87-1.08-1.27-.67-.67-1.4-1.25-2.2-1.74-.19-.33-1.28-1.74-1.55-2Z" style="stroke:#231f20;stroke-miterlimit:10;stroke-width:3.43px;fill:#231f20"/><path d="M86.96 193.35c5.57 5.57 17.15 3.02 25.86-5.69 8.23-8.23 10.96-19.01 6.53-24.88-.24-.34-.53-.67-.84-.98-5.57-5.57-17.15-3.02-25.86 5.69s-11.26 20.28-5.69 25.86Z" class="cls-1"/><path d="M81.9 197.53c7.2 7.2 22.17 3.9 33.43-7.36 10.64-10.64 14.17-24.59 8.45-32.17-.31-.44-.69-.86-1.09-1.26-7.2-7.2-22.17-3.9-33.43 7.36s-14.57 26.23-7.36 33.43Z" class="cls-1"/><path d="M78.06 193.69c7.2 7.2 22.17 3.9 33.43-7.36 10.64-10.64 14.17-24.59 8.45-32.17-.31-.44-.69-.86-1.09-1.26-7.2-7.2-22.17-3.9-33.43 7.36s-14.57 26.23-7.36 33.43Z" class="cls-1"/><path d="M88.81 183.86c2.95-2.95-.04-5.94-2.99-2.99s.04 5.94 2.99 2.99m10.3-10.59c2.95-2.95-.04-5.94-2.99-2.99s.04 5.94 2.99 2.99m9.91-9.61c2.95-2.95-.04-5.94-2.99-2.99s.04 5.94 2.99 2.99m-12.33 19.45c2.95-2.95-.04-5.94-2.99-2.99s.04 5.94 2.99 2.99m12.03-12.04c2.95-2.95-.04-5.94-2.99-2.99s.04 5.94 2.99 2.99m-19.73 4.35c2.95-2.95-.04-5.94-2.99-2.99s.04 5.94 2.99 2.99m12.04-12.04c2.95-2.95-.04-5.94-2.99-2.99s.04 5.94 2.99 2.99" style="fill:#231f20"/></svg>