<svg xmlns="http://www.w3.org/2000/svg" xmlns:xlink="http://www.w3.org/1999/xlink" id="Layer_1" data-name="Layer 1" viewBox="0 0 388.96 598.04"><defs><linearGradient id="linear-gradient" x1="56.75" x2="312.21" y1="412.13" y2="412.13" gradientUnits="userSpaceOnUse"><stop offset="0" stop-color="#7ca0d0"/><stop offset="1" stop-color="#2970d0"/></linearGradient><linearGradient xlink:href="#linear-gradient" id="linear-gradient-2" y1="334.78" y2="334.78"/><filter id="drop-shadow-9" width="347.04" height="507.84" x="16.63" y="56.86" filterUnits="userSpaceOnUse"><feOffset dx="5.61" dy="5.61"/><feGaussianBlur result="blur" stdDeviation="5.61"/><feFlood flood-color="#000" flood-opacity=".1"/><feComposite in2="blur" operator="in"/><feComposite in="SourceGraphic"/></filter><style>.cls-2{fill:#cbdcef;stroke:#231f20;stroke-miterlimit:10;stroke-width:3.96px}</style></defs><g style="filter:url(#drop-shadow-9)"><ellipse cx="184.48" cy="441.29" class="cls-2" rx="154.42" ry="98.68"/><ellipse cx="184.48" cy="412.13" rx="127.73" ry="81.62" style="stroke:#231f20;stroke-miterlimit:10;stroke-width:3.96px;fill:url(#linear-gradient)"/><ellipse cx="184.48" cy="334.78" rx="127.73" ry="81.62" style="stroke:#231f20;stroke-miterlimit:10;stroke-width:3.96px;fill:url(#linear-gradient-2)"/><ellipse cx="184.48" cy="253.37" rx="127.73" ry="81.62" style="stroke:#231f20;stroke-miterlimit:10;stroke-width:3.96px;fill:#4882d0"/><ellipse cx="184.48" cy="172.49" rx="127.73" ry="81.62" style="stroke:#231f20;stroke-miterlimit:10;stroke-width:3.96px;fill:#7ca0d0"/><path d="M244.6 169.05c-32.05 23.18-88.24 22.8-120.26-.34l.33-.93c18.04 5.41 37.18 8.12 56.01 8.54 6.23.11 12.72.02 18.93-.31 7.52-.57 15.13-1.37 22.55-2.71 4.21-.9 10.69-2.05 14.8-3.27l7.34-1.93.3.94Z" style="fill:#231f20"/><path d="M216.8 169.96v2.1c0 1.17-1.19 2.15-3.58 2.95-2.38.79-5.97 1.39-10.75 1.79-4.77.4-10.73.6-17.85.6s-13.08-.2-17.85-.6c-4.78-.4-8.39-1-10.82-1.79s-3.65-1.78-3.65-2.95v-81.2h64.5z" class="cls-2"/><ellipse cx="184.48" cy="90.86" rx="32.32" ry="20.66" style="stroke:#231f20;stroke-miterlimit:10;stroke-width:3.96px;fill:#231f20"/></g></svg>