<?xml version="1.0" encoding="UTF-8"?>
<svg id="Layer_1" data-name="Layer 1" xmlns="http://www.w3.org/2000/svg" xmlns:xlink="http://www.w3.org/1999/xlink" viewBox="0 0 388.96 598.04">
  <defs>
    <style>
      .cls-1 {
        filter: url(#drop-shadow-9);
      }

      .cls-2 {
        fill: #cbdcef;
      }

      .cls-2, .cls-3, .cls-4, .cls-5, .cls-6, .cls-7 {
        stroke: #231f20;
        stroke-miterlimit: 10;
        stroke-width: 3.96px;
      }

      .cls-8, .cls-7 {
        fill: #231f20;
      }

      .cls-3 {
        fill: #7ca0d0;
      }

      .cls-4 {
        fill: url(#linear-gradient);
      }

      .cls-5 {
        fill: #4882d0;
      }

      .cls-6 {
        fill: url(#linear-gradient-2);
      }
    </style>
    <filter id="drop-shadow-9" x="16.63" y="56.86" width="347.04" height="507.84" filterUnits="userSpaceOnUse">
      <feOffset dx="5.61" dy="5.61"/>
      <feGaussianBlur result="blur" stdDeviation="5.61"/>
      <feFlood flood-color="#000" flood-opacity=".1"/>
      <feComposite in2="blur" operator="in"/>
      <feComposite in="SourceGraphic"/>
    </filter>
    <linearGradient id="linear-gradient" x1="56.75" y1="412.13" x2="312.21" y2="412.13" gradientUnits="userSpaceOnUse">
      <stop offset="0" stop-color="#7ca0d0"/>
      <stop offset="1" stop-color="#2970d0"/>
    </linearGradient>
    <linearGradient id="linear-gradient-2" y1="334.78" y2="334.78" xlink:href="#linear-gradient"/>
  </defs>
  <g class="cls-1">
    <g>
      <ellipse class="cls-2" cx="184.48" cy="441.29" rx="154.42" ry="98.68"/>
      <ellipse class="cls-4" cx="184.48" cy="412.13" rx="127.73" ry="81.62"/>
      <ellipse class="cls-6" cx="184.48" cy="334.78" rx="127.73" ry="81.62"/>
      <ellipse class="cls-5" cx="184.48" cy="253.37" rx="127.73" ry="81.62"/>
      <ellipse class="cls-3" cx="184.48" cy="172.49" rx="127.73" ry="81.62"/>
      <path class="cls-8" d="M244.6,169.05c-32.05,23.18-88.24,22.8-120.26-.34,0,0,.33-.93.33-.93,18.04,5.41,37.18,8.12,56.01,8.54,6.23.11,12.72.02,18.93-.31,7.52-.57,15.13-1.37,22.55-2.71,4.21-.9,10.69-2.05,14.8-3.27,0,0,7.34-1.93,7.34-1.93l.3.94h0Z"/>
      <g>
        <path class="cls-2" d="M216.8,169.96v2.1c0,1.17-1.19,2.15-3.58,2.95-2.38.79-5.97,1.39-10.75,1.79-4.77.4-10.73.6-17.85.6s-13.08-.2-17.85-.6c-4.78-.4-8.39-1-10.82-1.79-2.43-.79-3.65-1.78-3.65-2.95v-81.2h64.5v79.1Z"/>
        <ellipse class="cls-7" cx="184.48" cy="90.86" rx="32.32" ry="20.66"/>
      </g>
    </g>
  </g>
</svg>