<svg xmlns="http://www.w3.org/2000/svg" id="Layer_1" data-name="Layer 1" viewBox="0 0 283.46 283.46"><defs><style>.cls-1{fill:#fff}.cls-1,.cls-2,.cls-3{stroke:#231f20;stroke-miterlimit:10;stroke-width:3.43px}.cls-2{fill:#4882d0}.cls-3{fill:#231f20}</style></defs><path d="M186.41 128.09c.58-1.95.87-4.09.87-6.37 0-5.33-1.58-9.72-4.74-13.2-3.16-3.47-7.65-6.06-13.48-7.77-5.15-1.51-11.2-2.34-18.12-2.52-.91-.02-1.84-.04-2.78-.04-1.5 0-2.97.04-4.39.09-4.31.18-8.29.62-11.93 1.34-4.83.97-8.95 2.43-12.37 4.38-3.41 1.94-6.02 4.4-7.84 7.35-1.81 2.94-2.72 6.39-2.72 10.36q0 3.42.9 6.36c-.6 1.94-.9 4.06-.9 6.35s.3 62.49.9 64.45q-.9 2.91-.9 6.33c0 1.93.21 3.74.64 5.45-.43 1.68-.64 3.5-.64 5.43 0 3.97.91 7.44 2.72 10.42 1.81 2.97 4.45 5.44 7.89 7.39 3.45 1.95 7.59 3.4 12.42 4.37s10.27 1.44 16.31 1.44c8.53 0 15.69-.89 21.49-2.7 5.79-1.79 10.17-4.45 13.11-7.95 2.95-3.5 4.42-7.83 4.42-12.97 0-1.93-.2-3.74-.63-5.43.42-1.7.63-3.52.63-5.45 0-2.27-.29-4.39-.87-6.33.58-1.95.87-62.17.87-64.45s-.29-4.39-.87-6.33Z" class="cls-1"/><path d="M186.68 90.56c-3.54-2.42-8.58-4.21-15.11-5.39-5.78-1.04-12.54-1.62-20.3-1.74v4.38c2.57.05 4.81.15 6.68.31 2.76.23 4.81.56 6.17 1.01 1.37.45 2.05 1.01 2.05 1.69s-.69 1.23-2.08 1.69c-1.39.45-3.46.79-6.25 1.02-2.77.23-6.24.35-10.38.35s-7.59-.11-10.38-.35c-2.77-.23-4.87-.58-6.29-1.02-1.41-.46-2.11-1.02-2.11-1.69 0-1.02 1.55-1.79 4.65-2.29 2.36-.37 5.68-.61 9.91-.72v-4.35c-4.83.11-9.29.43-13.37.93-5.42.66-10.03 1.67-13.86 3.03-3.82 1.35-6.75 3.05-8.78 5.1s-3.04 4.44-3.04 7.18 1.01 5.16 3.04 7.23c1.29 1.32 2.95 2.48 5 3.5 1.15.59 2.44 1.12 3.85 1.62q5.79 2.025 13.92 3.03c5.41.66 11.5 1 18.27 1 9.56 0 17.59-.61 24.08-1.87 4.78-.92 8.7-2.16 11.75-3.72 1.1-.55 2.07-1.15 2.94-1.8 3.31-2.43 4.96-5.42 4.96-9s-1.76-6.75-5.32-9.15Z" class="cls-3"/><path d="M166.18 90.81c0 .66-.69 1.23-2.08 1.69-1.39.45-3.46.79-6.25 1.02-2.77.23-6.24.35-10.38.35s-7.59-.11-10.38-.35c-2.77-.23-4.87-.58-6.29-1.02-1.41-.46-2.11-1.02-2.11-1.69 0-1.02 1.55-1.79 4.65-2.29 2.36-.37 5.68-.61 9.91-.72V65.76l20.66-34.7 6.94 4.01-19.57 33.91v18.81c2.57.05 4.81.15 6.68.31 2.76.23 4.81.56 6.17 1.01 1.37.45 2.05 1.01 2.05 1.69Z" class="cls-1"/><path d="M75.83 247.01h59.74c4.16 0 7.44-3.55 7.12-7.7l-7.57-96.74H61.05l7.66 97.86a7.14 7.14 0 0 0 7.12 6.58Z" class="cls-3"/><path d="M75.58 145.58c0 .57.59 1.06 1.8 1.45 1.2.39 2.98.68 5.39.88q3.585.3 8.94.3 5.34 0 8.94-.3c2.39-.2 4.2-.5 5.42-.88 1.21-.4 1.82-.88 1.82-1.45 0-.88-1.33-1.54-4.01-1.97-2.04-.32-4.89-.53-8.54-.62V124l-17.8-29.9-5.98 3.46 16.86 29.22v16.21c-2.21.04-4.14.13-5.76.26-2.38.2-4.14.48-5.32.87s-1.76.87-1.76 1.45Z" class="cls-1"/><path d="M64.79 247.01h43.66c4.11 0 7.38-3.47 7.12-7.57l-5.93-96.86H51.67l5.99 97.73a7.13 7.13 0 0 0 7.12 6.7Z" class="cls-2"/><path d="m135.11 142.58-12.15 26.37-13.31-26.37z" class="cls-1"/><path d="m159.04 170.56 8.66 65h59.18l8.67-65z" class="cls-3"/><path d="M226.88 235.56c0-2.42-1.11-4.44-3.34-6.08-.58-.44-1.23-.84-1.98-1.22-2.05-1.05-4.7-1.87-7.92-2.5-4.37-.84-9.79-1.27-16.23-1.27-4.56 0-8.67.23-12.32.67-3.64.45-6.78 1.14-9.37 2.05-.95.34-1.83.7-2.59 1.09-1.39.69-2.5 1.48-3.37 2.36-1.37 1.41-2.05 3.01-2.05 4.89s.67 3.45 2.05 4.84c1.37 1.37 3.34 2.51 5.92 3.44 2.58.91 5.68 1.59 9.34 2.05 2.75.33 11.17.55 14.42.62v.02c5.23-.06 9.79-.47 13.68-1.17 4.4-.8 7.81-2 10.2-3.62s3.58-3.69 3.58-6.17Z" class="cls-3"/><path d="M235.55 170.56c0-3.13-1.43-5.73-4.32-7.85-.75-.57-1.6-1.09-2.56-1.57-2.65-1.35-6.08-2.42-10.24-3.23-5.65-1.09-12.66-1.64-20.98-1.64-5.9 0-11.21.3-15.93.87-4.71.59-8.76 1.47-12.12 2.65-1.23.44-2.36.91-3.35 1.41-1.8.89-3.23 1.92-4.36 3.05-1.78 1.82-2.65 3.9-2.65 6.32 0 2.38.87 4.46 2.65 6.26 1.78 1.78 4.32 3.25 7.65 4.44 3.33 1.17 7.35 2.06 12.08 2.65 3.55.42 14.44.71 18.64.81v.02c6.76-.08 12.66-.61 17.69-1.51 5.69-1.03 10.1-2.58 13.19-4.68s4.62-4.77 4.62-7.98Z" class="cls-2"/><path d="M200.02 169.85v-44.58l20.66-34.7 6.94 4.01-19.57 33.91v41.36c2.57.05 4.81.15 6.68.31h-20.98c1.8-.14 3.88-.25 6.27-.31Z" class="cls-1"/></svg>