<svg xmlns="http://www.w3.org/2000/svg" id="Layer_1" data-name="Layer 1" viewBox="0 0 283.46 283.46"><defs><style>.cls-3{stroke-miterlimit:10;stroke:#231f20;stroke-width:3.27px;fill:#bbdb0c}</style></defs><rect width="121.14" height="142.09" x="88.23" y="52.94" rx="4.1" ry="4.1" style="stroke:#bbdb0c;stroke-miterlimit:10;fill:#231f20;stroke-width:3.59px"/><path d="m87.03 36.5 7.47 8.09 7.47-8.09 7.48 8.09 7.47-8.09 7.47 8.09 7.48-8.09 7.48 8.09 7.47-8.09 7.82 8.09 7.81-8.09 7.82 8.09 7.81-8.09 7.82 8.09 7.82-8.09 7.82 8.09 7.83-8.09M87.03 203.38l7.47 8.09 7.47-8.09 7.48 8.09 7.47-8.09 7.47 8.09 7.48-8.09 7.48 8.09 7.47-8.09 7.82 8.09 7.81-8.09 7.82 8.09 7.81-8.09 7.82 8.09 7.82-8.09 7.82 8.09 7.83-8.09" style="stroke-miterlimit:10;stroke:#231f20;stroke-width:3.27px;fill:none"/><path d="m105 206.16.59 1.02c.33.57.03 1.38-.92 2.44-.94 1.06-2.52 2.35-4.73 3.89s-5.06 3.31-8.53 5.31-6.42 3.58-8.86 4.73-4.36 1.87-5.77 2.17-2.28.16-2.6-.41l-.59-1.02-38.06-65.93 31.41-18.13z" style="stroke-miterlimit:10;fill:#fff;stroke:#231f20;stroke-width:3.27px"/><path d="m52.23 121.96 11.42 19.8.47.82c.26.45.02 1.11-.74 1.95-.75.85-2.02 1.89-3.79 3.12s-4.05 2.65-6.83 4.26-5.15 2.87-7.11 3.79c-1.96.93-3.5 1.5-4.63 1.74s-1.83.13-2.09-.32c-.18-.31-.47-.82-.47-.82l-11.42-19.79c-.4-.7.35-1.82 2.23-3.37 1.89-1.54 4.95-3.54 9.19-5.99q4.275-2.46 7.17-3.84c1.94-.91 3.46-1.48 4.55-1.71 1.09-.22 1.76-.1 2.03.36Z" class="cls-3"/><path d="m89.91 217.42-2.6-4.73-14.09 8.19V204.9h-5.19l.1 16.03-14.08-8.24-2.71 4.73 14.07 7.9-14.07 7.89 2.71 4.74 14.08-8.25-.1 16.03h5.19v-15.97l14.09 8.19 2.6-4.74-13.97-7.89z" style="stroke-miterlimit:10;fill:#231f20;stroke:#231f20;stroke-width:.87px"/><ellipse cx="197.49" cy="200.63" class="cls-3" rx="49.13" ry="31.4"/><path d="M176.57 170.98c6.58-.62 13.33.11 19.36 2.94 8.5 3.88 15.62 10.9 19.45 19.44 2.21 4.84 3.36 10.18 3.03 15.39-2.03-10.02-7.08-19.05-14.65-25.8-3.62-3.4-7.95-6.05-12.46-8.1-4.67-2.08-9.72-2.96-14.73-3.86Zm20.92-1.75c11.2-2.37 23.74 2.47 29.9 12.23-2.44-1.46-4.75-2.9-7.12-4.19-4.7-2.6-9.57-4.61-14.75-6.02-2.6-.73-5.46-1.18-8.03-2.03Zm-34.41 9.91c6.58-.62 13.33.11 19.36 2.94 8.5 3.88 15.62 10.9 19.45 19.44 2.21 4.84 3.36 10.18 3.03 15.39-2.03-10.02-7.08-19.05-14.65-25.8-3.62-3.4-7.95-6.05-12.46-8.1-4.67-2.08-9.72-2.96-14.73-3.86Z" style="fill:#231f20"/><rect width="52.87" height="52.87" x="122.36" y="97.55" rx="26.44" ry="26.44" style="stroke-miterlimit:10;stroke-width:3.59px;stroke:#231f20;fill:#bbdb0c"/></svg>