<?xml version="1.0" encoding="UTF-8"?>
<svg id="Layer_1" data-name="Layer 1" xmlns="http://www.w3.org/2000/svg" viewBox="0 0 283.46 283.46">
  <defs>
    <style>
      .cls-1 {
        fill: #fff;
      }

      .cls-1, .cls-2, .cls-3, .cls-4 {
        stroke: #231f20;
        stroke-miterlimit: 10;
        stroke-width: 3.43px;
      }

      .cls-5, .cls-4 {
        fill: #231f20;
      }

      .cls-2 {
        fill: none;
      }

      .cls-3 {
        fill: #4882d0;
      }
    </style>
  </defs>
  <g>
    <rect class="cls-5" x="93.18" y="48.84" width="121.14" height="142.09" rx="4.1" ry="4.1"/>
    <polyline class="cls-2" points="91.98 32.41 99.45 40.49 106.92 32.41 114.39 40.49 121.87 32.41 129.34 40.49 136.81 32.41 144.29 40.49 151.77 32.41 159.58 40.49 167.4 32.41 175.21 40.49 183.03 32.41 190.85 40.49 198.67 32.41 206.49 40.49 214.31 32.41"/>
    <polyline class="cls-2" points="91.98 199.29 99.45 207.37 106.92 199.29 114.39 207.37 121.87 199.29 129.34 207.37 136.81 199.29 144.29 207.37 151.77 199.29 159.58 207.37 167.4 199.29 175.21 207.37 183.03 199.29 190.85 207.37 198.67 199.29 206.49 207.37 214.31 199.29"/>
  </g>
  <g>
    <g>
      <path class="cls-1" d="M109.95,202.06l.59,1.02c.33.57.03,1.38-.92,2.44-.94,1.06-2.52,2.35-4.73,3.89-2.21,1.54-5.06,3.31-8.53,5.31-3.47,2-6.42,3.58-8.86,4.73-2.44,1.15-4.36,1.87-5.77,2.17-1.41.3-2.28.16-2.6-.41-.22-.39-.59-1.02-.59-1.02l-38.06-65.93,31.41-18.13,38.06,65.93Z"/>
      <path class="cls-3" d="M57.18,117.86h0s11.42,19.8,11.42,19.8l.47.82c.26.45.02,1.11-.74,1.95-.75.85-2.02,1.89-3.79,3.12-1.77,1.23-4.05,2.65-6.83,4.26s-5.15,2.87-7.11,3.79c-1.96.93-3.5,1.5-4.63,1.74-1.13.24-1.83.13-2.09-.32-.18-.31-.47-.82-.47-.82l-11.42-19.79h0c-.4-.7.35-1.82,2.23-3.37,1.89-1.54,4.95-3.54,9.19-5.99,2.85-1.64,5.24-2.92,7.17-3.84,1.94-.91,3.46-1.48,4.55-1.71,1.09-.22,1.76-.1,2.03.36Z"/>
    </g>
    <polygon class="cls-4" points="94.86 213.33 92.26 208.59 78.16 216.78 78.16 200.81 72.98 200.81 73.08 216.84 58.99 208.59 56.29 213.33 70.35 221.22 56.29 229.12 58.99 233.85 73.08 225.61 72.98 241.63 78.16 241.63 78.16 225.66 92.26 233.85 94.86 229.12 80.89 221.22 94.86 213.33"/>
  </g>
  <g>
    <ellipse class="cls-3" cx="202.44" cy="196.53" rx="49.13" ry="31.4"/>
    <g>
      <path class="cls-5" d="M181.52,166.89c16.27-2.13,32.23,7.5,38.86,22.35,2.2,4.85,3.34,10.2,2.98,15.41-1.07-5.1-2.87-9.86-5.36-14.2-5-8.64-12.63-15.6-21.77-19.65-4.66-2.09-9.7-2.98-14.71-3.92h0Z"/>
      <path class="cls-5" d="M202.44,165.13c11.2-2.48,23.83,2.39,29.9,12.23-2.46-1.44-4.78-2.86-7.15-4.14-4.71-2.58-9.56-4.58-14.73-6.01-2.6-.74-5.45-1.21-8.02-2.09h0Z"/>
      <path class="cls-5" d="M168.02,175.05c16.27-2.13,32.23,7.5,38.86,22.35,2.2,4.85,3.34,10.2,2.98,15.41-1.07-5.1-2.87-9.86-5.36-14.2-5-8.64-12.63-15.6-21.77-19.65-4.66-2.09-9.7-2.98-14.71-3.92h0Z"/>
    </g>
  </g>
  <rect class="cls-3" x="127.31" y="93.45" width="52.87" height="52.87" rx="26.44" ry="26.44"/>
</svg>