<svg xmlns="http://www.w3.org/2000/svg" id="Layer_1" data-name="Layer 1" viewBox="0 0 283.46 283.46"><defs><style>.cls-3{stroke:#231f20;stroke-miterlimit:10;stroke-width:3.43px}.cls-5{fill:#231f20}.cls-3{fill:#4882d0}</style></defs><rect width="121.14" height="142.09" x="93.18" y="48.84" class="cls-5" rx="4.1" ry="4.1"/><path d="m91.98 32.41 7.47 8.08 7.47-8.08 7.47 8.08 7.48-8.08 7.47 8.08 7.47-8.08 7.48 8.08 7.48-8.08 7.81 8.08 7.82-8.08 7.81 8.08 7.82-8.08 7.82 8.08 7.82-8.08 7.82 8.08 7.82-8.08M91.98 199.29l7.47 8.08 7.47-8.08 7.47 8.08 7.48-8.08 7.47 8.08 7.47-8.08 7.48 8.08 7.48-8.08 7.81 8.08 7.82-8.08 7.81 8.08 7.82-8.08 7.82 8.08 7.82-8.08 7.82 8.08 7.82-8.08" style="stroke:#231f20;stroke-miterlimit:10;stroke-width:3.43px;fill:none"/><path d="m109.95 202.06.59 1.02c.33.57.03 1.38-.92 2.44-.94 1.06-2.52 2.35-4.73 3.89s-5.06 3.31-8.53 5.31-6.42 3.58-8.86 4.73-4.36 1.87-5.77 2.17-2.28.16-2.6-.41c-.22-.39-.59-1.02-.59-1.02l-38.06-65.93 31.41-18.13z" style="fill:#fff;stroke:#231f20;stroke-miterlimit:10;stroke-width:3.43px"/><path d="m57.18 117.86 11.42 19.8.47.82c.26.45.02 1.11-.74 1.95-.75.85-2.02 1.89-3.79 3.12s-4.05 2.65-6.83 4.26-5.15 2.87-7.11 3.79c-1.96.93-3.5 1.5-4.63 1.74s-1.83.13-2.09-.32c-.18-.31-.47-.82-.47-.82l-11.42-19.79c-.4-.7.35-1.82 2.23-3.37 1.89-1.54 4.95-3.54 9.19-5.99q4.275-2.46 7.17-3.84c1.94-.91 3.46-1.48 4.55-1.71 1.09-.22 1.76-.1 2.03.36Z" class="cls-3"/><path d="m94.86 213.33-2.6-4.74-14.1 8.19v-15.97h-5.18l.1 16.03-14.09-8.25-2.7 4.74 14.06 7.89-14.06 7.9 2.7 4.73 14.09-8.24-.1 16.02h5.18v-15.97l14.1 8.19 2.6-4.73-13.97-7.9z" style="stroke:#231f20;stroke-miterlimit:10;stroke-width:3.43px;fill:#231f20"/><ellipse cx="202.44" cy="196.53" class="cls-3" rx="49.13" ry="31.4"/><path d="M181.52 166.89c16.27-2.13 32.23 7.5 38.86 22.35 2.2 4.85 3.34 10.2 2.98 15.41-1.07-5.1-2.87-9.86-5.36-14.2-5-8.64-12.63-15.6-21.77-19.65-4.66-2.09-9.7-2.98-14.71-3.92Zm20.92-1.76c11.2-2.48 23.83 2.39 29.9 12.23-2.46-1.44-4.78-2.86-7.15-4.14-4.71-2.58-9.56-4.58-14.73-6.01-2.6-.74-5.45-1.21-8.02-2.09Zm-34.42 9.92c16.27-2.13 32.23 7.5 38.86 22.35 2.2 4.85 3.34 10.2 2.98 15.41-1.07-5.1-2.87-9.86-5.36-14.2-5-8.64-12.63-15.6-21.77-19.65-4.66-2.09-9.7-2.98-14.71-3.92Z" class="cls-5"/><rect width="52.87" height="52.87" x="127.31" y="93.45" class="cls-3" rx="26.44" ry="26.44"/></svg>