<?xml version="1.0" encoding="UTF-8"?>
<svg id="Layer_1" data-name="Layer 1" xmlns="http://www.w3.org/2000/svg" viewBox="0 0 283.46 283.46">
  <defs>
    <style>
      .cls-1 {
        stroke: #bbdb0c;
      }

      .cls-1, .cls-2, .cls-3, .cls-4, .cls-5, .cls-6 {
        stroke-miterlimit: 10;
      }

      .cls-1, .cls-7, .cls-5 {
        fill: #231f20;
      }

      .cls-1, .cls-4 {
        stroke-width: 3.59px;
      }

      .cls-2 {
        fill: #fff;
      }

      .cls-2, .cls-3, .cls-4, .cls-5, .cls-6 {
        stroke: #231f20;
      }

      .cls-2, .cls-6 {
        stroke-width: 3.27px;
      }

      .cls-3 {
        stroke-width: 3.27px;
      }

      .cls-3, .cls-4 {
        fill: #bbdb0c;
      }

      .cls-5 {
        stroke-width: .87px;
      }

      .cls-6 {
        fill: none;
      }
    </style>
  </defs>
  <g>
    <rect class="cls-1" x="88.23" y="52.94" width="121.14" height="142.09" rx="4.1" ry="4.1"/>
    <polyline class="cls-6" points="87.03 36.5 94.5 44.59 101.97 36.5 109.45 44.59 116.92 36.5 124.39 44.59 131.87 36.5 139.35 44.59 146.82 36.5 154.64 44.59 162.45 36.5 170.27 44.59 178.08 36.5 185.9 44.59 193.72 36.5 201.54 44.59 209.37 36.5"/>
    <polyline class="cls-6" points="87.03 203.38 94.5 211.47 101.97 203.38 109.45 211.47 116.92 203.38 124.39 211.47 131.87 203.38 139.35 211.47 146.82 203.38 154.64 211.47 162.45 203.38 170.27 211.47 178.08 203.38 185.9 211.47 193.72 203.38 201.54 211.47 209.37 203.38"/>
  </g>
  <g>
    <g>
      <path class="cls-2" d="M105,206.16l.59,1.02c.33.57.03,1.38-.92,2.44-.94,1.06-2.52,2.35-4.73,3.89-2.21,1.54-5.06,3.31-8.53,5.31s-6.42,3.58-8.86,4.73c-2.44,1.15-4.36,1.87-5.77,2.17-1.41.3-2.28.16-2.6-.41l-.59-1.02-38.06-65.93,31.41-18.13,38.06,65.93Z"/>
      <path class="cls-3" d="M52.23,121.96h0s11.42,19.8,11.42,19.8l.47.82c.26.45.02,1.11-.74,1.95-.75.85-2.02,1.89-3.79,3.12-1.77,1.23-4.05,2.65-6.83,4.26-2.78,1.61-5.15,2.87-7.11,3.79-1.96.93-3.5,1.5-4.63,1.74-1.13.24-1.83.13-2.09-.32-.18-.31-.47-.82-.47-.82l-11.42-19.79h0c-.4-.7.35-1.82,2.23-3.37,1.89-1.54,4.95-3.54,9.19-5.99,2.85-1.64,5.24-2.92,7.17-3.84,1.94-.91,3.46-1.48,4.55-1.71,1.09-.22,1.76-.1,2.03.36Z"/>
    </g>
    <polygon class="cls-5" points="89.91 217.42 87.31 212.69 73.22 220.88 73.22 204.9 68.03 204.9 68.13 220.93 54.05 212.69 51.34 217.42 65.41 225.32 51.34 233.21 54.05 237.95 68.13 229.7 68.03 245.73 73.22 245.73 73.22 229.76 87.31 237.95 89.91 233.21 75.94 225.32 89.91 217.42"/>
  </g>
  <g>
    <ellipse class="cls-3" cx="197.49" cy="200.63" rx="49.13" ry="31.4"/>
    <g>
      <path class="cls-7" d="M176.57,170.98c6.58-.62,13.33.11,19.36,2.94,8.5,3.88,15.62,10.9,19.45,19.44,2.21,4.84,3.36,10.18,3.03,15.39-2.03-10.02-7.08-19.05-14.65-25.8-3.62-3.4-7.95-6.05-12.46-8.1-4.67-2.08-9.72-2.96-14.73-3.86h0Z"/>
      <path class="cls-7" d="M197.49,169.23c11.2-2.37,23.74,2.47,29.9,12.23-2.44-1.46-4.75-2.9-7.12-4.19-4.7-2.6-9.57-4.61-14.75-6.02-2.6-.73-5.46-1.18-8.03-2.03h0Z"/>
      <path class="cls-7" d="M163.08,179.14c6.58-.62,13.33.11,19.36,2.94,8.5,3.88,15.62,10.9,19.45,19.44,2.21,4.84,3.36,10.18,3.03,15.39-2.03-10.02-7.08-19.05-14.65-25.8-3.62-3.4-7.95-6.05-12.46-8.1-4.67-2.08-9.72-2.96-14.73-3.86h0Z"/>
    </g>
  </g>
  <rect class="cls-4" x="122.36" y="97.55" width="52.87" height="52.87" rx="26.44" ry="26.44"/>
</svg>