<svg xmlns="http://www.w3.org/2000/svg" id="Layer_1" data-name="Layer 1" viewBox="0 0 283.46 283.46"><defs><filter id="drop-shadow-12" width="260.16" height="168" x="11.65" y="99.96" filterUnits="userSpaceOnUse"><feOffset dy=".1"/><feGaussianBlur result="blur" stdDeviation=".1"/><feFlood flood-color="#000" flood-opacity=".1"/><feComposite in2="blur" operator="in"/><feComposite in="SourceGraphic"/></filter><filter id="drop-shadow-13" width="258" height="171.36" x="12.85" y="14.52" filterUnits="userSpaceOnUse"><feOffset dy=".1"/><feGaussianBlur result="blur-2" stdDeviation=".1"/><feFlood flood-color="#000" flood-opacity=".1"/><feComposite in2="blur-2" operator="in"/><feComposite in="SourceGraphic"/></filter><style>.cls-1{fill:#bbdb0c;stroke:#231f20;stroke-miterlimit:10;stroke-width:3.78px}.cls-2{fill:#231f20}</style></defs><g style="filter:url(#drop-shadow-12)"><ellipse cx="141.73" cy="183.72" class="cls-1" rx="127.73" ry="81.62"/><path d="M81.83 167c15.25 1.91 29.82 3.82 44.99 4.31 14.78.47 29.99.08 44.72-1.16 9.97-.86 19.94-2.02 30.08-3.48l.17.47c-17.41 5.84-36.02 8.41-54.32 9.26-17.09.5-34.43-.99-51.1-4.88-4.32-.87-10.41-2.87-14.69-4.05l.15-.48Z" class="cls-2"/></g><g style="filter:url(#drop-shadow-13)"><ellipse cx="141.73" cy="100.03" class="cls-1" rx="127.73" ry="81.62" transform="rotate(-10 141.724 100.048)"/><path d="M79.84 93.97c15.35-.77 30.03-1.42 45.05-3.56a389 389 0 0 0 43.84-8.91 532 532 0 0 0 29.02-8.65l.25.43c-16.14 8.77-34.01 14.54-51.89 18.56-16.74 3.46-34.08 5-51.17 4.06-4.41-.11-10.75-1.02-15.17-1.43z" class="cls-2"/></g></svg>