<svg xmlns="http://www.w3.org/2000/svg" id="Layer_1" data-name="Layer 1" viewBox="0 0 283.46 283.46"><defs><filter id="drop-shadow-4" width="260.4" height="168.24" x="11.67" y="92.76" filterUnits="userSpaceOnUse"><feOffset dy=".1"/><feGaussianBlur result="blur" stdDeviation=".1"/><feFlood flood-color="#000" flood-opacity=".1"/><feComposite in2="blur" operator="in"/><feComposite in="SourceGraphic"/></filter><filter id="drop-shadow-5" width="260.4" height="168.24" x="11.67" y="21.24" filterUnits="userSpaceOnUse"><feOffset dy=".1"/><feGaussianBlur result="blur-2" stdDeviation=".1"/><feFlood flood-color="#000" flood-opacity=".1"/><feComposite in2="blur-2" operator="in"/><feComposite in="SourceGraphic"/></filter><linearGradient id="New_Gradient_Swatch" x1="14" x2="269.46" y1="176.75" y2="176.75" data-name="New Gradient Swatch" gradientUnits="userSpaceOnUse"><stop offset="0" stop-color="#d4dbb0"/><stop offset="1" stop-color="#bbdb0c"/></linearGradient><style>.cls-5{fill:#231f20}</style></defs><g style="filter:url(#drop-shadow-4)"><ellipse cx="141.73" cy="176.75" rx="127.73" ry="81.62" style="fill:url(#New_Gradient_Swatch);stroke:#231f20;stroke-miterlimit:10;stroke-width:4px"/><path d="M81.82 160.08c17.52 2.85 34.77 5.12 52.43 5.33 22.62.43 45.04-1.7 67.39-5.66l.13.38c-14.44 4.76-29.68 7.29-44.8 8.64-1.45.09-8.23.49-9.51.57-1.2.02-4.47.06-5.72.08-10.14.05-20.36-.61-30.38-2.16-10.09-1.32-19.94-3.93-29.68-6.79l.12-.38Z" class="cls-5"/></g><g style="filter:url(#drop-shadow-5)"><ellipse cx="141.73" cy="105.22" rx="127.73" ry="81.62" style="stroke:#231f20;stroke-miterlimit:10;stroke-width:4px;fill:#bbdb0c"/><path d="M81.82 88.55c17.52 2.85 34.77 5.12 52.43 5.33 22.62.43 45.04-1.7 67.39-5.66l.13.38c-14.44 4.76-29.68 7.29-44.8 8.64-1.45.09-8.23.49-9.51.57-1.2.02-4.47.06-5.72.08-10.14.05-20.36-.61-30.38-2.16-10.09-1.32-19.94-3.93-29.68-6.79l.12-.38Z" class="cls-5"/></g></svg>