<svg xmlns="http://www.w3.org/2000/svg" aria-label="spring white dark blue bottom" viewBox="0 0 283.46 283.46"><defs><filter id="a" width="260.16" height="168" x="11.65" y="99.96" filterUnits="userSpaceOnUse"><feOffset dy=".1"/><feGaussianBlur result="b" stdDeviation=".1"/><feFlood flood-color="#000" flood-opacity=".1"/><feComposite in2="b" operator="in"/><feComposite in="SourceGraphic"/></filter><filter id="b" width="258" height="171.36" x="12.85" y="14.52" filterUnits="userSpaceOnUse"><feOffset dy=".1"/><feGaussianBlur result="b2" stdDeviation=".1"/><feFlood flood-color="#000" flood-opacity=".1"/><feComposite in2="b2" operator="in"/><feComposite in="SourceGraphic"/></filter><linearGradient id="c" x1="14" x2="269.46" y1="100.03" y2="100.03" gradientUnits="userSpaceOnUse"><stop offset="0" stop-color="#d4dbb0"/><stop offset="1" stop-color="#bbdb0c"/></linearGradient></defs><g filter="url(#a)"><ellipse cx="141.73" cy="183.72" fill="#4882d0" stroke="#231f20" stroke-miterlimit="10" stroke-width="3.78" rx="127.73" ry="81.62"/><path fill="#231f20" d="M81.83 167c15.25 1.91 29.82 3.82 44.99 4.31 14.78.47 29.99.08 44.72-1.16 9.97-.86 19.94-2.02 30.08-3.48l.17.47c-17.41 5.84-36.02 8.41-54.32 9.26-17.09.5-34.43-.99-51.1-4.88-4.32-.87-10.41-2.87-14.69-4.05l.15-.48Z"/></g><g filter="url(#b)"><ellipse cx="141.73" cy="100.03" fill="url(#c)" stroke="#231f20" stroke-miterlimit="10" stroke-width="3.78" rx="127.73" ry="81.62" transform="rotate(-10 141.724 100.048)"/><path fill="#231f20" d="M79.84 93.97c15.35-.77 30.03-1.42 45.05-3.56a389 389 0 0 0 43.84-8.91 532 532 0 0 0 29.02-8.65l.25.43c-16.14 8.77-34.01 14.54-51.89 18.56-16.74 3.46-34.08 5-51.17 4.06-4.41-.11-10.75-1.02-15.17-1.43z"/></g></svg>