<svg xmlns="http://www.w3.org/2000/svg" xmlns:xlink="http://www.w3.org/1999/xlink" id="Layer_1" data-name="Layer 1" viewBox="0 0 1804.65 1089.57"><defs><linearGradient id="New_Gradient_Swatch" x1="976.74" x2="1232.19" y1="631.42" y2="631.42" data-name="New Gradient Swatch" gradientUnits="userSpaceOnUse"><stop offset="0" stop-color="#d4dbb0"/><stop offset="1" stop-color="#bbdb0c"/></linearGradient><linearGradient xlink:href="#New_Gradient_Swatch" id="New_Gradient_Swatch-2" x1="976.74" x2="1232.19" y1="554.07" y2="554.07" data-name="New Gradient Swatch"/><linearGradient id="linear-gradient" x1="975.74" x2="1231.19" y1="308.24" y2="308.24" gradientUnits="userSpaceOnUse"><stop offset="0" stop-color="#bbdb0c"/><stop offset="1" stop-color="#d4dbb0"/></linearGradient><linearGradient xlink:href="#linear-gradient" id="linear-gradient-2" y1="226.83" y2="226.83"/><linearGradient xlink:href="#New_Gradient_Swatch" id="New_Gradient_Swatch-3" x1="1320.71" x2="1576.17" y1="631.09" y2="631.09" data-name="New Gradient Swatch"/><linearGradient xlink:href="#New_Gradient_Swatch" id="New_Gradient_Swatch-4" x1="1320.71" x2="1576.17" y1="553.74" y2="553.74" data-name="New Gradient Swatch"/><linearGradient id="linear-gradient-3" x1="292.78" x2="548.24" y1="630.3" y2="630.3" gradientUnits="userSpaceOnUse"><stop offset="0" stop-color="#7ca0d0"/><stop offset="1" stop-color="#2970d0"/></linearGradient><linearGradient xlink:href="#linear-gradient-3" id="linear-gradient-4" x1="292.78" y1="552.95" y2="552.95"/><linearGradient id="linear-gradient-5" x1="291.78" x2="547.24" y1="307.12" y2="307.12" gradientUnits="userSpaceOnUse"><stop offset="0" stop-color="#2970d0"/><stop offset="1" stop-color="#7ca0d0"/></linearGradient><linearGradient xlink:href="#linear-gradient-3" id="linear-gradient-6" x1="635.96" x2="891.42"/><linearGradient xlink:href="#linear-gradient-3" id="linear-gradient-7" x1="635.96" x2="891.42" y1="552.95" y2="552.95"/><linearGradient xlink:href="#linear-gradient-3" id="linear-gradient-8" x1="464.37" x2="719.83" y1="751.13" y2="751.13"/><linearGradient xlink:href="#linear-gradient-3" id="linear-gradient-9" x1="464.37" x2="719.83" y1="673.78" y2="673.78"/><linearGradient xlink:href="#linear-gradient-3" id="linear-gradient-10" x1="1149.33" x2="1404.78" y1="673.78" y2="673.78"/><linearGradient xlink:href="#New_Gradient_Swatch" id="New_Gradient_Swatch-5" x1="806.85" x2="1062.31" y1="753.34" y2="753.34" data-name="New Gradient Swatch"/><linearGradient xlink:href="#New_Gradient_Swatch" id="New_Gradient_Swatch-6" x1="806.85" x2="1062.31" y1="676" y2="676" data-name="New Gradient Swatch"/><linearGradient xlink:href="#New_Gradient_Swatch" id="New_Gradient_Swatch-7" x1="224.03" x2="479.48" y1="807.38" y2="807.38" data-name="New Gradient Swatch"/><linearGradient xlink:href="#New_Gradient_Swatch" id="New_Gradient_Swatch-8" x1="636.04" x2="891.49" y1="951.52" y2="951.52" data-name="New Gradient Swatch"/><linearGradient xlink:href="#New_Gradient_Swatch" id="New_Gradient_Swatch-9" x1="636.04" x2="891.49" y1="736.87" y2="736.87" data-name="New Gradient Swatch"/><linearGradient xlink:href="#New_Gradient_Swatch" id="New_Gradient_Swatch-10" x1="636.04" x2="891.49" y1="662.66" y2="662.66" data-name="New Gradient Swatch"/><filter id="drop-shadow-12" width="346.8" height="735.36" x="936.78" y="48.55" filterUnits="userSpaceOnUse"><feOffset dx="5.61" dy="5.61"/><feGaussianBlur result="blur" stdDeviation="5.61"/><feFlood flood-color="#000" flood-opacity=".1"/><feComposite in2="blur" operator="in"/><feComposite in="SourceGraphic"/></filter><filter id="drop-shadow-13" width="346.8" height="507.84" x="1280.7" y="275.83" filterUnits="userSpaceOnUse"><feOffset dx="5.61" dy="5.61"/><feGaussianBlur result="blur-2" stdDeviation="5.61"/><feFlood flood-color="#000" flood-opacity=".1"/><feComposite in2="blur-2" operator="in"/><feComposite in="SourceGraphic"/></filter><filter id="drop-shadow-14" width="346.8" height="735.6" x="252.78" y="47.35" filterUnits="userSpaceOnUse"><feOffset dx="5.61" dy="5.61"/><feGaussianBlur result="blur-3" stdDeviation="5.61"/><feFlood flood-color="#000" flood-opacity=".1"/><feComposite in2="blur-3" operator="in"/><feComposite in="SourceGraphic"/></filter><filter id="drop-shadow-15" width="346.8" height="489.6" x="595.98" y="293.35" filterUnits="userSpaceOnUse"><feOffset dx="5.61" dy="5.61"/><feGaussianBlur result="blur-4" stdDeviation="5.61"/><feFlood flood-color="#000" flood-opacity=".1"/><feComposite in2="blur-4" operator="in"/><feComposite in="SourceGraphic"/></filter><filter id="drop-shadow-16" width="346.8" height="489.6" x="424.38" y="414.07" filterUnits="userSpaceOnUse"><feOffset dx="5.61" dy="5.61"/><feGaussianBlur result="blur-5" stdDeviation="5.61"/><feFlood flood-color="#000" flood-opacity=".1"/><feComposite in2="blur-5" operator="in"/><feComposite in="SourceGraphic"/></filter><filter id="drop-shadow-17" width="346.8" height="610.32" x="1109.34" y="293.35" filterUnits="userSpaceOnUse"><feOffset dx="5.61" dy="5.61"/><feGaussianBlur result="blur-6" stdDeviation="5.61"/><feFlood flood-color="#000" flood-opacity=".1"/><feComposite in2="blur-6" operator="in"/><feComposite in="SourceGraphic"/></filter><filter id="drop-shadow-18" width="346.8" height="507.84" x="766.86" y="397.99" filterUnits="userSpaceOnUse"><feOffset dx="5.61" dy="5.61"/><feGaussianBlur result="blur-7" stdDeviation="5.61"/><feFlood flood-color="#000" flood-opacity=".1"/><feComposite in2="blur-7" operator="in"/><feComposite in="SourceGraphic"/></filter><filter id="drop-shadow-19" width="260.4" height="168.24" x="221.54" y="723.39" filterUnits="userSpaceOnUse"><feOffset dy=".1"/><feGaussianBlur result="blur-8" stdDeviation=".1"/><feFlood flood-color="#000" flood-opacity=".1"/><feComposite in2="blur-8" operator="in"/><feComposite in="SourceGraphic"/></filter><filter id="drop-shadow-20" width="260.4" height="168.24" x="221.54" y="662.67" filterUnits="userSpaceOnUse"><feOffset dy=".1"/><feGaussianBlur result="blur-9" stdDeviation=".1"/><feFlood flood-color="#000" flood-opacity=".1"/><feComposite in2="blur-9" operator="in"/><feComposite in="SourceGraphic"/></filter><filter id="drop-shadow-21" width="260.4" height="168.24" x="633.62" y="867.63" filterUnits="userSpaceOnUse"><feOffset dy=".1"/><feGaussianBlur result="blur-10" stdDeviation=".1"/><feFlood flood-color="#000" flood-opacity=".1"/><feComposite in2="blur-10" operator="in"/><feComposite in="SourceGraphic"/></filter><filter id="drop-shadow-22" width="260.4" height="168.24" x="633.62" y="806.91" filterUnits="userSpaceOnUse"><feOffset dy=".1"/><feGaussianBlur result="blur-11" stdDeviation=".1"/><feFlood flood-color="#000" flood-opacity=".1"/><feComposite in2="blur-11" operator="in"/><feComposite in="SourceGraphic"/></filter><filter id="drop-shadow-23" width="260.4" height="168.24" x="633.62" y="724.35" filterUnits="userSpaceOnUse"><feOffset dy=".1"/><feGaussianBlur result="blur-12" stdDeviation=".1"/><feFlood flood-color="#000" flood-opacity=".1"/><feComposite in2="blur-12" operator="in"/><feComposite in="SourceGraphic"/></filter><filter id="drop-shadow-24" width="260.4" height="168.24" x="633.62" y="652.83" filterUnits="userSpaceOnUse"><feOffset dy=".1"/><feGaussianBlur result="blur-13" stdDeviation=".1"/><feFlood flood-color="#000" flood-opacity=".1"/><feComposite in2="blur-13" operator="in"/><feComposite in="SourceGraphic"/></filter><filter id="drop-shadow-25" width="260.4" height="168.24" x="633.62" y="578.67" filterUnits="userSpaceOnUse"><feOffset dy=".1"/><feGaussianBlur result="blur-14" stdDeviation=".1"/><feFlood flood-color="#000" flood-opacity=".1"/><feComposite in2="blur-14" operator="in"/><feComposite in="SourceGraphic"/></filter><style>.cls-2,.cls-3,.cls-4{fill:#bbdb0c}.cls-2{stroke-width:3.78px}.cls-16,.cls-18,.cls-2,.cls-21,.cls-3,.cls-30,.cls-4,.cls-6,.cls-7{stroke-miterlimit:10}.cls-16,.cls-18,.cls-2,.cls-21,.cls-3,.cls-30,.cls-6{stroke:#231f20}.cls-16,.cls-18,.cls-21,.cls-30,.cls-4,.cls-6,.cls-7{stroke-width:3.96px}.cls-6{fill:#cbdcef}.cls-16,.cls-7{fill:#d4dbb0}.cls-4,.cls-7{stroke:#2970d0}.cls-30,.cls-31{fill:#231f20}.cls-3{stroke-width:4px}.cls-18{fill:#7ca0d0}.cls-46{fill:#2970d0}.cls-21{fill:#4882d0}</style></defs><g style="filter:url(#drop-shadow-12)"><ellipse cx="1104.46" cy="660.58" class="cls-16" rx="154.42" ry="98.68"/><ellipse cx="1104.46" cy="631.42" rx="127.73" ry="81.62" style="stroke-miterlimit:10;stroke:#231f20;fill:url(#New_Gradient_Swatch);stroke-width:3.96px"/><ellipse cx="1104.46" cy="554.07" rx="127.73" ry="81.62" style="stroke-miterlimit:10;stroke:#231f20;stroke-width:3.96px;fill:url(#New_Gradient_Swatch-2)"/><ellipse cx="1104.46" cy="472.66" class="cls-2" rx="127.73" ry="81.62"/><path d="M1164.59 456.65c-32.05 23.18-88.24 22.8-120.26-.34l.33-.93c18.04 5.41 37.18 8.12 56.01 8.54 6.23.11 12.72.02 18.93-.31 7.52-.57 15.13-1.37 22.55-2.71 4.21-.9 10.69-2.05 14.8-3.27l7.34-1.93.3.94Z" class="cls-46"/><path d="M1136.79 457.56v2.1c0 1.17-1.19 2.15-3.58 2.95-2.38.79-5.97 1.39-10.75 1.79-4.77.4-10.73.6-17.85.6s-13.08-.2-17.85-.6c-4.78-.4-8.39-1-10.82-1.79s-3.65-1.78-3.65-2.95v-68.63h64.5v66.52Z" class="cls-7"/><ellipse cx="1104.46" cy="391.04" class="cls-4" rx="32.32" ry="20.66"/><ellipse cx="1103.46" cy="390.82" class="cls-2" rx="127.73" ry="81.62"/><path d="M1163.59 374.81c-32.05 23.18-88.24 22.8-120.26-.34l.33-.93c18.04 5.41 37.18 8.12 56.01 8.54 6.23.11 12.72.02 18.93-.31 7.52-.57 15.13-1.37 22.55-2.71 4.21-.9 10.69-2.05 14.8-3.27l7.34-1.93.3.94Z" class="cls-46"/><path d="M1135.79 375.72v2.1c0 1.17-1.19 2.15-3.58 2.95-2.38.79-5.97 1.39-10.75 1.79-4.77.4-10.73.6-17.85.6s-13.08-.2-17.85-.6c-4.78-.4-8.39-1-10.82-1.79s-3.65-1.78-3.65-2.95V246.53h64.5z" class="cls-7"/><ellipse cx="1103.46" cy="246.53" class="cls-4" rx="32.32" ry="20.66"/><ellipse cx="1103.46" cy="308.24" rx="127.73" ry="81.62" style="stroke-miterlimit:10;stroke:#231f20;stroke-width:3.96px;fill:url(#linear-gradient)"/><ellipse cx="1103.46" cy="226.83" rx="127.73" ry="81.62" style="stroke-miterlimit:10;stroke:#231f20;stroke-width:3.96px;fill:url(#linear-gradient-2)"/><path d="M1163.59 210.82c-32.05 23.18-88.24 22.8-120.26-.34l.33-.93c18.04 5.41 37.18 8.12 56.01 8.54 6.23.11 12.72.02 18.93-.31 7.52-.57 15.13-1.37 22.55-2.71 4.21-.9 10.69-2.05 14.8-3.27l7.34-1.93.3.94Z" class="cls-31"/><path d="M1135.79 211.73v2.1c0 1.17-1.19 2.15-3.58 2.95-2.38.79-5.97 1.39-10.75 1.79-4.77.4-10.73.6-17.85.6s-13.08-.2-17.85-.6c-4.78-.4-8.39-1-10.82-1.79s-3.65-1.78-3.65-2.95V82.54h64.5z" class="cls-16"/><ellipse cx="1103.46" cy="82.54" class="cls-30" rx="32.32" ry="20.66"/></g><g style="filter:url(#drop-shadow-13)"><ellipse cx="1448.44" cy="660.25" class="cls-16" rx="154.42" ry="98.68"/><ellipse cx="1448.44" cy="631.09" rx="127.73" ry="81.62" style="stroke-miterlimit:10;stroke:#231f20;stroke-width:3.96px;fill:url(#New_Gradient_Swatch-3)"/><ellipse cx="1448.44" cy="553.74" rx="127.73" ry="81.62" style="stroke-miterlimit:10;stroke:#231f20;stroke-width:3.96px;fill:url(#New_Gradient_Swatch-4)"/><ellipse cx="1448.44" cy="472.34" class="cls-2" rx="127.73" ry="81.62"/><ellipse cx="1448.44" cy="391.45" class="cls-2" rx="127.73" ry="81.62"/><path d="M1508.56 388.02c-32.05 23.18-88.24 22.8-120.26-.34l.33-.93c18.04 5.41 37.18 8.12 56.01 8.54 6.23.11 12.72.02 18.93-.31 7.52-.57 15.13-1.37 22.55-2.71 4.21-.9 10.69-2.05 14.8-3.27l7.34-1.93.3.94Z" class="cls-31"/><path d="M1480.77 388.92v2.1c0 1.17-1.19 2.15-3.58 2.95-2.38.79-5.97 1.39-10.75 1.79-4.77.4-10.73.6-17.85.6s-13.08-.2-17.85-.6c-4.78-.4-8.39-1-10.82-1.79s-3.65-1.78-3.65-2.95v-81.2h64.5z" class="cls-16"/><ellipse cx="1448.44" cy="309.83" class="cls-30" rx="32.32" ry="20.66"/></g><g style="filter:url(#drop-shadow-14)"><ellipse cx="420.51" cy="659.46" class="cls-6" rx="154.42" ry="98.68"/><ellipse cx="420.51" cy="630.3" rx="127.73" ry="81.62" style="stroke-miterlimit:10;stroke:#231f20;stroke-width:3.96px;fill:url(#linear-gradient-3)"/><ellipse cx="420.51" cy="552.95" rx="127.73" ry="81.62" style="stroke-miterlimit:10;stroke:#231f20;stroke-width:3.96px;fill:url(#linear-gradient-4)"/><ellipse cx="420.51" cy="471.54" class="cls-18" rx="127.73" ry="81.62"/><path d="M480.63 455.53c-32.05 23.18-88.24 22.8-120.26-.34l.33-.93c18.04 5.41 37.18 8.12 56.01 8.54 6.23.11 12.72.02 18.93-.31 7.52-.57 15.13-1.37 22.55-2.71 4.21-.9 10.69-2.05 14.8-3.27l7.34-1.93.3.94Z" class="cls-46"/><path d="M452.83 456.44v2.1c0 1.17-1.19 2.15-3.58 2.95-2.38.79-5.97 1.39-10.75 1.79-4.77.4-10.73.6-17.85.6s-13.08-.2-17.85-.6c-4.78-.4-8.39-1-10.82-1.79s-3.65-1.78-3.65-2.95v-68.63h64.5v66.52Z" class="cls-7"/><ellipse cx="420.51" cy="389.92" class="cls-4" rx="32.32" ry="20.66"/><ellipse cx="419.51" cy="389.7" class="cls-18" rx="127.73" ry="81.62"/><path d="M479.63 373.69c-32.05 23.18-88.24 22.8-120.26-.34l.33-.93c18.04 5.41 37.18 8.12 56.01 8.54 6.23.11 12.72.02 18.93-.31 7.52-.57 15.13-1.37 22.55-2.71 4.21-.9 10.69-2.05 14.8-3.27l7.34-1.93.3.94Z" class="cls-46"/><path d="M451.83 374.6v2.1c0 1.17-1.19 2.15-3.58 2.95-2.38.79-5.97 1.39-10.75 1.79-4.77.4-10.73.6-17.85.6s-13.08-.2-17.85-.6c-4.78-.4-8.39-1-10.82-1.79s-3.65-1.78-3.65-2.95V245.41h64.5z" class="cls-7"/><ellipse cx="419.51" cy="245.41" class="cls-4" rx="32.32" ry="20.66"/><ellipse cx="419.51" cy="307.12" rx="127.73" ry="81.62" style="stroke-miterlimit:10;stroke:#231f20;stroke-width:3.96px;fill:url(#linear-gradient-5)"/><ellipse cx="419.51" cy="225.71" class="cls-21" rx="127.73" ry="81.62"/><path d="M479.63 209.7c-32.05 23.18-88.24 22.8-120.26-.34l.33-.93c18.04 5.41 37.18 8.12 56.01 8.54 6.23.11 12.72.02 18.93-.31 7.52-.57 15.13-1.37 22.55-2.71 4.21-.9 10.69-2.05 14.8-3.27l7.34-1.93.3.94Z" class="cls-31"/><path d="M451.83 210.61v2.1c0 1.17-1.19 2.15-3.58 2.95-2.38.79-5.97 1.39-10.75 1.79-4.77.4-10.73.6-17.85.6s-13.08-.2-17.85-.6c-4.78-.4-8.39-1-10.82-1.79s-3.65-1.78-3.65-2.95V81.42h64.5z" class="cls-6"/><ellipse cx="419.51" cy="81.42" class="cls-30" rx="32.32" ry="20.66"/></g><g style="filter:url(#drop-shadow-15)"><ellipse cx="763.69" cy="659.46" class="cls-6" rx="154.42" ry="98.68"/><ellipse cx="763.69" cy="630.3" rx="127.73" ry="81.62" style="stroke-miterlimit:10;stroke:#231f20;stroke-width:3.96px;fill:url(#linear-gradient-6)"/><ellipse cx="763.69" cy="552.95" rx="127.73" ry="81.62" style="stroke-miterlimit:10;stroke:#231f20;stroke-width:3.96px;fill:url(#linear-gradient-7)"/><ellipse cx="763.69" cy="471.54" class="cls-21" rx="127.73" ry="81.62"/><path d="M823.81 455.53c-32.05 23.18-88.24 22.8-120.26-.34l.33-.93c18.04 5.41 37.18 8.12 56.01 8.54 6.23.11 12.72.02 18.93-.31 7.52-.57 15.13-1.37 22.55-2.71 4.21-.9 10.69-2.05 14.8-3.27l7.34-1.93.3.94Z" class="cls-31"/><path d="M796.01 456.44v2.1c0 1.17-1.19 2.15-3.58 2.95-2.38.79-5.97 1.39-10.75 1.79-4.77.4-10.73.6-17.85.6s-13.08-.2-17.85-.6c-4.78-.4-8.39-1-10.82-1.79s-3.65-1.78-3.65-2.95V327.25h64.5z" class="cls-6"/><ellipse cx="763.69" cy="327.25" class="cls-30" rx="32.32" ry="20.66"/></g><g style="filter:url(#drop-shadow-16)"><ellipse cx="592.1" cy="780.29" class="cls-6" rx="154.42" ry="98.68"/><ellipse cx="592.1" cy="751.13" rx="127.73" ry="81.62" style="stroke-miterlimit:10;stroke:#231f20;stroke-width:3.96px;fill:url(#linear-gradient-8)"/><ellipse cx="592.1" cy="673.78" rx="127.73" ry="81.62" style="stroke-miterlimit:10;stroke:#231f20;stroke-width:3.96px;fill:url(#linear-gradient-9)"/><ellipse cx="592.1" cy="592.37" class="cls-18" rx="127.73" ry="81.62"/><path d="M652.22 576.37c-32.05 23.18-88.24 22.8-120.26-.34l.33-.93c18.04 5.41 37.18 8.12 56.01 8.54 6.23.11 12.72.02 18.93-.31 7.52-.57 15.13-1.37 22.55-2.71 4.21-.9 10.69-2.05 14.8-3.27l7.34-1.93.3.94Z" class="cls-31"/><path d="M624.42 577.27v2.1c0 1.17-1.19 2.15-3.58 2.95-2.38.79-5.97 1.39-10.75 1.79-4.77.4-10.73.6-17.85.6s-13.08-.2-17.85-.6c-4.78-.4-8.39-1-10.82-1.79s-3.65-1.78-3.65-2.95V448.08h64.5z" class="cls-6"/><ellipse cx="592.1" cy="448.08" class="cls-30" rx="32.32" ry="20.66"/></g><g style="filter:url(#drop-shadow-17)"><ellipse cx="1277.06" cy="780.29" class="cls-6" rx="154.42" ry="98.68"/><ellipse cx="1277.06" cy="751.13" class="cls-18" rx="127.73" ry="81.62"/><ellipse cx="1277.06" cy="673.78" rx="127.73" ry="81.62" style="stroke-miterlimit:10;stroke:#231f20;stroke-width:3.96px;fill:url(#linear-gradient-10)"/><ellipse cx="1277.06" cy="592.37" class="cls-21" rx="127.73" ry="81.62"/><path d="M1337.18 576.37c-32.05 23.18-88.24 22.8-120.26-.34l.33-.93c18.04 5.41 37.18 8.12 56.01 8.54 6.23.11 12.72.02 18.93-.31 7.52-.57 15.13-1.37 22.55-2.71 4.21-.9 10.69-2.05 14.8-3.27l7.34-1.93.3.94Z" class="cls-31"/><path d="M1309.38 577.27v2.1c0 1.17-1.19 2.15-3.58 2.95-2.38.79-5.97 1.39-10.75 1.79-4.77.4-10.73.6-17.85.6s-13.08-.2-17.85-.6c-4.78-.4-8.39-1-10.82-1.79s-3.65-1.78-3.65-2.95V327.24h64.5v250.02Z" class="cls-6"/><ellipse cx="1277.06" cy="327.25" class="cls-30" rx="32.32" ry="20.66"/></g><g style="filter:url(#drop-shadow-18)"><ellipse cx="934.58" cy="782.51" class="cls-16" rx="154.42" ry="98.68"/><ellipse cx="934.58" cy="753.34" rx="127.73" ry="81.62" style="stroke-miterlimit:10;stroke:#231f20;stroke-width:3.96px;fill:url(#New_Gradient_Swatch-5)"/><ellipse cx="934.58" cy="676" rx="127.73" ry="81.62" style="stroke-miterlimit:10;stroke:#231f20;stroke-width:3.96px;fill:url(#New_Gradient_Swatch-6)"/><ellipse cx="934.58" cy="594.59" class="cls-2" rx="127.73" ry="81.62"/><ellipse cx="934.58" cy="513.7" class="cls-2" rx="127.73" ry="81.62"/><path d="M994.7 510.27c-32.05 23.18-88.24 22.8-120.26-.34l.33-.93c18.04 5.41 37.18 8.12 56.01 8.54 6.23.11 12.72.02 18.93-.31 7.52-.57 15.13-1.37 22.55-2.71 4.21-.9 10.69-2.05 14.8-3.27l7.34-1.93.3.94Z" class="cls-31"/><path d="M966.9 511.18v2.1c0 1.17-1.19 2.15-3.58 2.95-2.38.79-5.97 1.39-10.75 1.79-4.77.4-10.73.6-17.85.6s-13.08-.2-17.85-.6c-4.78-.4-8.39-1-10.82-1.79s-3.65-1.78-3.65-2.95v-81.2h64.5z" class="cls-16"/><ellipse cx="934.58" cy="432.08" class="cls-30" rx="32.32" ry="20.66"/></g><g style="filter:url(#drop-shadow-19)"><ellipse cx="351.76" cy="807.38" rx="127.73" ry="81.62" style="stroke-miterlimit:10;stroke:#231f20;stroke-width:4px;fill:url(#New_Gradient_Swatch-7)"/><path d="M291.84 790.71c17.52 2.85 34.77 5.12 52.43 5.33 22.62.43 45.04-1.7 67.39-5.66l.13.38c-14.44 4.76-29.68 7.29-44.8 8.64-1.45.09-8.23.49-9.51.57-1.2.02-4.47.06-5.72.08-10.14.05-20.36-.61-30.38-2.16-10.09-1.32-19.94-3.93-29.68-6.79l.12-.38Z" class="cls-31"/></g><g style="filter:url(#drop-shadow-20)"><ellipse cx="351.76" cy="746.71" class="cls-3" rx="127.73" ry="81.62"/><path d="M291.84 730.04c17.52 2.85 34.77 5.12 52.43 5.33 22.62.43 45.04-1.7 67.39-5.66l.13.38c-14.44 4.76-29.68 7.29-44.8 8.64-1.45.09-8.23.49-9.51.57-1.2.02-4.47.06-5.72.08-10.14.05-20.36-.61-30.38-2.16-10.09-1.32-19.94-3.93-29.68-6.79l.12-.38Z" class="cls-31"/></g><g style="filter:url(#drop-shadow-21)"><ellipse cx="763.77" cy="951.52" rx="127.73" ry="81.62" style="stroke-miterlimit:10;stroke:#231f20;stroke-width:4px;fill:url(#New_Gradient_Swatch-8)"/><path d="M703.85 934.85c17.52 2.85 34.77 5.12 52.43 5.33 22.62.43 45.04-1.7 67.39-5.66l.13.38c-14.44 4.76-29.68 7.29-44.8 8.64-1.45.09-8.23.49-9.51.57-1.2.02-4.47.06-5.72.08-10.14.05-20.36-.61-30.38-2.16-10.09-1.32-19.94-3.93-29.68-6.79l.12-.38Z" class="cls-31"/></g><g style="filter:url(#drop-shadow-22)"><ellipse cx="763.77" cy="890.84" class="cls-3" rx="127.73" ry="81.62"/><path d="M703.85 874.17c17.52 2.85 34.77 5.12 52.43 5.33 22.62.43 45.04-1.7 67.39-5.66l.13.38c-14.44 4.76-29.68 7.29-44.8 8.64-1.45.09-8.23.49-9.51.57-1.2.02-4.47.06-5.72.08-10.14.05-20.36-.61-30.38-2.16-10.09-1.32-19.94-3.93-29.68-6.79l.12-.38Z" class="cls-31"/></g><g style="filter:url(#drop-shadow-23)"><ellipse cx="763.77" cy="808.39" class="cls-3" rx="127.73" ry="81.62"/><path d="M703.79 791.92c63.01 20.01 119.95-.33 119.95-.33" style="fill:#bbdb0c"/><path d="M703.85 791.73c17.52 2.85 34.77 5.12 52.43 5.33 22.62.43 45.04-1.7 67.39-5.66l.13.38c-14.44 4.76-29.68 7.29-44.8 8.64-1.45.09-8.23.49-9.51.57-1.2.02-4.47.06-5.72.08-10.14.05-20.36-.61-30.38-2.16-10.09-1.32-19.94-3.93-29.68-6.79l.12-.38Z" class="cls-31"/></g><g style="filter:url(#drop-shadow-24)"><ellipse cx="763.77" cy="736.87" rx="127.73" ry="81.62" style="stroke-miterlimit:10;stroke:#231f20;stroke-width:4px;fill:url(#New_Gradient_Swatch-9)"/><path d="M703.85 720.2c17.52 2.85 34.77 5.12 52.43 5.33 22.62.43 45.04-1.7 67.39-5.66l.13.38c-14.44 4.76-29.68 7.29-44.8 8.64-1.45.09-8.23.49-9.51.57-1.2.02-4.47.06-5.72.08-10.14.05-20.36-.61-30.38-2.16-10.09-1.32-19.94-3.93-29.68-6.79l.12-.38Z" class="cls-31"/></g><g style="filter:url(#drop-shadow-25)"><ellipse cx="763.77" cy="662.66" rx="127.73" ry="81.62" style="stroke-miterlimit:10;stroke:#231f20;stroke-width:4px;fill:url(#New_Gradient_Swatch-10)"/><path d="M703.85 645.99c17.52 2.85 34.77 5.12 52.43 5.33 22.62.43 45.04-1.7 67.39-5.66l.13.38c-14.44 4.76-29.68 7.29-44.8 8.64-1.45.09-8.23.49-9.51.57-1.2.02-4.47.06-5.72.08-10.14.05-20.36-.61-30.38-2.16-10.09-1.32-19.94-3.93-29.68-6.79l.12-.38Z" class="cls-31"/></g></svg>