<?xml version="1.0" encoding="UTF-8"?>
<svg id="Layer_1" data-name="Layer 1" xmlns="http://www.w3.org/2000/svg" xmlns:xlink="http://www.w3.org/1999/xlink" viewBox="0 0 1804.65 1089.57">
  <defs>
    <style>
      .cls-1, .cls-2, .cls-3, .cls-4 {
        fill: #bbdb0c;
      }

      .cls-2 {
        stroke-width: 3.78px;
      }

      .cls-2, .cls-5, .cls-6, .cls-7, .cls-3, .cls-8, .cls-9, .cls-10, .cls-11, .cls-12, .cls-13, .cls-14, .cls-15, .cls-16, .cls-17, .cls-18, .cls-19, .cls-20, .cls-4, .cls-21, .cls-22, .cls-23, .cls-24, .cls-25, .cls-26, .cls-27, .cls-28, .cls-29, .cls-30 {
        stroke-miterlimit: 10;
      }

      .cls-2, .cls-5, .cls-6, .cls-3, .cls-8, .cls-9, .cls-10, .cls-11, .cls-12, .cls-13, .cls-14, .cls-15, .cls-16, .cls-17, .cls-18, .cls-19, .cls-20, .cls-21, .cls-22, .cls-23, .cls-24, .cls-25, .cls-26, .cls-27, .cls-28, .cls-29, .cls-30 {
        stroke: #231f20;
      }

      .cls-5 {
        fill: url(#New_Gradient_Swatch);
      }

      .cls-5, .cls-6, .cls-7, .cls-11, .cls-12, .cls-13, .cls-14, .cls-15, .cls-16, .cls-18, .cls-19, .cls-20, .cls-4, .cls-21, .cls-22, .cls-23, .cls-24, .cls-25, .cls-26, .cls-27, .cls-28, .cls-29, .cls-30 {
        stroke-width: 3.96px;
      }

      .cls-6 {
        fill: #cbdcef;
      }

      .cls-7, .cls-16 {
        fill: #d4dbb0;
      }

      .cls-7, .cls-4 {
        stroke: #2970d0;
      }

      .cls-31, .cls-30 {
        fill: #231f20;
      }

      .cls-3, .cls-8, .cls-9, .cls-10, .cls-17 {
        stroke-width: 4px;
      }

      .cls-8 {
        fill: url(#New_Gradient_Swatch-9);
      }

      .cls-9 {
        fill: url(#New_Gradient_Swatch-8);
      }

      .cls-10 {
        fill: url(#New_Gradient_Swatch-7);
      }

      .cls-11 {
        fill: url(#New_Gradient_Swatch-5);
      }

      .cls-12 {
        fill: url(#New_Gradient_Swatch-6);
      }

      .cls-13 {
        fill: url(#New_Gradient_Swatch-4);
      }

      .cls-14 {
        fill: url(#New_Gradient_Swatch-2);
      }

      .cls-15 {
        fill: url(#New_Gradient_Swatch-3);
      }

      .cls-17 {
        fill: url(#New_Gradient_Swatch-10);
      }

      .cls-32 {
        filter: url(#drop-shadow-22);
      }

      .cls-33 {
        filter: url(#drop-shadow-20);
      }

      .cls-34 {
        filter: url(#drop-shadow-21);
      }

      .cls-35 {
        filter: url(#drop-shadow-25);
      }

      .cls-36 {
        filter: url(#drop-shadow-24);
      }

      .cls-37 {
        filter: url(#drop-shadow-23);
      }

      .cls-38 {
        filter: url(#drop-shadow-13);
      }

      .cls-39 {
        filter: url(#drop-shadow-16);
      }

      .cls-40 {
        filter: url(#drop-shadow-19);
      }

      .cls-41 {
        filter: url(#drop-shadow-14);
      }

      .cls-42 {
        filter: url(#drop-shadow-18);
      }

      .cls-43 {
        filter: url(#drop-shadow-17);
      }

      .cls-44 {
        filter: url(#drop-shadow-12);
      }

      .cls-45 {
        filter: url(#drop-shadow-15);
      }

      .cls-18 {
        fill: #7ca0d0;
      }

      .cls-19 {
        fill: url(#linear-gradient-10);
      }

      .cls-20 {
        fill: url(#linear-gradient);
      }

      .cls-46 {
        fill: #2970d0;
      }

      .cls-21 {
        fill: #4882d0;
      }

      .cls-22 {
        fill: url(#linear-gradient-5);
      }

      .cls-23 {
        fill: url(#linear-gradient-8);
      }

      .cls-24 {
        fill: url(#linear-gradient-7);
      }

      .cls-25 {
        fill: url(#linear-gradient-3);
      }

      .cls-26 {
        fill: url(#linear-gradient-2);
      }

      .cls-27 {
        fill: url(#linear-gradient-9);
      }

      .cls-28 {
        fill: url(#linear-gradient-4);
      }

      .cls-29 {
        fill: url(#linear-gradient-6);
      }
    </style>
    <filter id="drop-shadow-12" x="936.78" y="48.55" width="346.8" height="735.36" filterUnits="userSpaceOnUse">
      <feOffset dx="5.61" dy="5.61"/>
      <feGaussianBlur result="blur" stdDeviation="5.61"/>
      <feFlood flood-color="#000" flood-opacity=".1"/>
      <feComposite in2="blur" operator="in"/>
      <feComposite in="SourceGraphic"/>
    </filter>
    <linearGradient id="New_Gradient_Swatch" data-name="New Gradient Swatch" x1="976.74" y1="631.42" x2="1232.19" y2="631.42" gradientUnits="userSpaceOnUse">
      <stop offset="0" stop-color="#d4dbb0"/>
      <stop offset="1" stop-color="#bbdb0c"/>
    </linearGradient>
    <linearGradient id="New_Gradient_Swatch-2" data-name="New Gradient Swatch" x1="976.74" y1="554.07" x2="1232.19" y2="554.07" xlink:href="#New_Gradient_Swatch"/>
    <linearGradient id="linear-gradient" x1="975.74" y1="308.24" x2="1231.19" y2="308.24" gradientUnits="userSpaceOnUse">
      <stop offset="0" stop-color="#bbdb0c"/>
      <stop offset="1" stop-color="#d4dbb0"/>
    </linearGradient>
    <linearGradient id="linear-gradient-2" y1="226.83" y2="226.83" xlink:href="#linear-gradient"/>
    <filter id="drop-shadow-13" x="1280.7" y="275.83" width="346.8" height="507.84" filterUnits="userSpaceOnUse">
      <feOffset dx="5.61" dy="5.61"/>
      <feGaussianBlur result="blur-2" stdDeviation="5.61"/>
      <feFlood flood-color="#000" flood-opacity=".1"/>
      <feComposite in2="blur-2" operator="in"/>
      <feComposite in="SourceGraphic"/>
    </filter>
    <linearGradient id="New_Gradient_Swatch-3" data-name="New Gradient Swatch" x1="1320.71" y1="631.09" x2="1576.17" y2="631.09" xlink:href="#New_Gradient_Swatch"/>
    <linearGradient id="New_Gradient_Swatch-4" data-name="New Gradient Swatch" x1="1320.71" y1="553.74" x2="1576.17" y2="553.74" xlink:href="#New_Gradient_Swatch"/>
    <filter id="drop-shadow-14" x="252.78" y="47.35" width="346.8" height="735.6" filterUnits="userSpaceOnUse">
      <feOffset dx="5.61" dy="5.61"/>
      <feGaussianBlur result="blur-3" stdDeviation="5.61"/>
      <feFlood flood-color="#000" flood-opacity=".1"/>
      <feComposite in2="blur-3" operator="in"/>
      <feComposite in="SourceGraphic"/>
    </filter>
    <linearGradient id="linear-gradient-3" x1="292.78" y1="630.3" x2="548.24" y2="630.3" gradientUnits="userSpaceOnUse">
      <stop offset="0" stop-color="#7ca0d0"/>
      <stop offset="1" stop-color="#2970d0"/>
    </linearGradient>
    <linearGradient id="linear-gradient-4" x1="292.78" y1="552.95" y2="552.95" xlink:href="#linear-gradient-3"/>
    <linearGradient id="linear-gradient-5" x1="291.78" y1="307.12" x2="547.24" y2="307.12" gradientUnits="userSpaceOnUse">
      <stop offset="0" stop-color="#2970d0"/>
      <stop offset="1" stop-color="#7ca0d0"/>
    </linearGradient>
    <filter id="drop-shadow-15" x="595.98" y="293.35" width="346.8" height="489.6" filterUnits="userSpaceOnUse">
      <feOffset dx="5.61" dy="5.61"/>
      <feGaussianBlur result="blur-4" stdDeviation="5.61"/>
      <feFlood flood-color="#000" flood-opacity=".1"/>
      <feComposite in2="blur-4" operator="in"/>
      <feComposite in="SourceGraphic"/>
    </filter>
    <linearGradient id="linear-gradient-6" x1="635.96" x2="891.42" xlink:href="#linear-gradient-3"/>
    <linearGradient id="linear-gradient-7" x1="635.96" y1="552.95" x2="891.42" y2="552.95" xlink:href="#linear-gradient-3"/>
    <filter id="drop-shadow-16" x="424.38" y="414.07" width="346.8" height="489.6" filterUnits="userSpaceOnUse">
      <feOffset dx="5.61" dy="5.61"/>
      <feGaussianBlur result="blur-5" stdDeviation="5.61"/>
      <feFlood flood-color="#000" flood-opacity=".1"/>
      <feComposite in2="blur-5" operator="in"/>
      <feComposite in="SourceGraphic"/>
    </filter>
    <linearGradient id="linear-gradient-8" x1="464.37" y1="751.13" x2="719.83" y2="751.13" xlink:href="#linear-gradient-3"/>
    <linearGradient id="linear-gradient-9" x1="464.37" y1="673.78" x2="719.83" y2="673.78" xlink:href="#linear-gradient-3"/>
    <filter id="drop-shadow-17" x="1109.34" y="293.35" width="346.8" height="610.32" filterUnits="userSpaceOnUse">
      <feOffset dx="5.61" dy="5.61"/>
      <feGaussianBlur result="blur-6" stdDeviation="5.61"/>
      <feFlood flood-color="#000" flood-opacity=".1"/>
      <feComposite in2="blur-6" operator="in"/>
      <feComposite in="SourceGraphic"/>
    </filter>
    <linearGradient id="linear-gradient-10" x1="1149.33" y1="673.78" x2="1404.78" y2="673.78" xlink:href="#linear-gradient-3"/>
    <filter id="drop-shadow-18" x="766.86" y="397.99" width="346.8" height="507.84" filterUnits="userSpaceOnUse">
      <feOffset dx="5.61" dy="5.61"/>
      <feGaussianBlur result="blur-7" stdDeviation="5.61"/>
      <feFlood flood-color="#000" flood-opacity=".1"/>
      <feComposite in2="blur-7" operator="in"/>
      <feComposite in="SourceGraphic"/>
    </filter>
    <linearGradient id="New_Gradient_Swatch-5" data-name="New Gradient Swatch" x1="806.85" y1="753.34" x2="1062.31" y2="753.34" xlink:href="#New_Gradient_Swatch"/>
    <linearGradient id="New_Gradient_Swatch-6" data-name="New Gradient Swatch" x1="806.85" y1="676" x2="1062.31" y2="676" xlink:href="#New_Gradient_Swatch"/>
    <filter id="drop-shadow-19" x="221.54" y="723.39" width="260.4" height="168.24" filterUnits="userSpaceOnUse">
      <feOffset dx="0" dy=".1"/>
      <feGaussianBlur result="blur-8" stdDeviation=".1"/>
      <feFlood flood-color="#000" flood-opacity=".1"/>
      <feComposite in2="blur-8" operator="in"/>
      <feComposite in="SourceGraphic"/>
    </filter>
    <linearGradient id="New_Gradient_Swatch-7" data-name="New Gradient Swatch" x1="224.03" y1="807.38" x2="479.48" y2="807.38" xlink:href="#New_Gradient_Swatch"/>
    <filter id="drop-shadow-20" x="221.54" y="662.67" width="260.4" height="168.24" filterUnits="userSpaceOnUse">
      <feOffset dx="0" dy=".1"/>
      <feGaussianBlur result="blur-9" stdDeviation=".1"/>
      <feFlood flood-color="#000" flood-opacity=".1"/>
      <feComposite in2="blur-9" operator="in"/>
      <feComposite in="SourceGraphic"/>
    </filter>
    <filter id="drop-shadow-21" x="633.62" y="867.63" width="260.4" height="168.24" filterUnits="userSpaceOnUse">
      <feOffset dx="0" dy=".1"/>
      <feGaussianBlur result="blur-10" stdDeviation=".1"/>
      <feFlood flood-color="#000" flood-opacity=".1"/>
      <feComposite in2="blur-10" operator="in"/>
      <feComposite in="SourceGraphic"/>
    </filter>
    <linearGradient id="New_Gradient_Swatch-8" data-name="New Gradient Swatch" x1="636.04" y1="951.52" x2="891.49" y2="951.52" xlink:href="#New_Gradient_Swatch"/>
    <filter id="drop-shadow-22" x="633.62" y="806.91" width="260.4" height="168.24" filterUnits="userSpaceOnUse">
      <feOffset dx="0" dy=".1"/>
      <feGaussianBlur result="blur-11" stdDeviation=".1"/>
      <feFlood flood-color="#000" flood-opacity=".1"/>
      <feComposite in2="blur-11" operator="in"/>
      <feComposite in="SourceGraphic"/>
    </filter>
    <filter id="drop-shadow-23" x="633.62" y="724.35" width="260.4" height="168.24" filterUnits="userSpaceOnUse">
      <feOffset dx="0" dy=".1"/>
      <feGaussianBlur result="blur-12" stdDeviation=".1"/>
      <feFlood flood-color="#000" flood-opacity=".1"/>
      <feComposite in2="blur-12" operator="in"/>
      <feComposite in="SourceGraphic"/>
    </filter>
    <filter id="drop-shadow-24" x="633.62" y="652.83" width="260.4" height="168.24" filterUnits="userSpaceOnUse">
      <feOffset dx="0" dy=".1"/>
      <feGaussianBlur result="blur-13" stdDeviation=".1"/>
      <feFlood flood-color="#000" flood-opacity=".1"/>
      <feComposite in2="blur-13" operator="in"/>
      <feComposite in="SourceGraphic"/>
    </filter>
    <linearGradient id="New_Gradient_Swatch-9" data-name="New Gradient Swatch" x1="636.04" y1="736.87" x2="891.49" y2="736.87" xlink:href="#New_Gradient_Swatch"/>
    <filter id="drop-shadow-25" x="633.62" y="578.67" width="260.4" height="168.24" filterUnits="userSpaceOnUse">
      <feOffset dx="0" dy=".1"/>
      <feGaussianBlur result="blur-14" stdDeviation=".1"/>
      <feFlood flood-color="#000" flood-opacity=".1"/>
      <feComposite in2="blur-14" operator="in"/>
      <feComposite in="SourceGraphic"/>
    </filter>
    <linearGradient id="New_Gradient_Swatch-10" data-name="New Gradient Swatch" x1="636.04" y1="662.66" x2="891.49" y2="662.66" xlink:href="#New_Gradient_Swatch"/>
  </defs>
  <g class="cls-44">
    <g>
      <ellipse class="cls-16" cx="1104.46" cy="660.58" rx="154.42" ry="98.68"/>
      <ellipse class="cls-5" cx="1104.46" cy="631.42" rx="127.73" ry="81.62"/>
      <ellipse class="cls-14" cx="1104.46" cy="554.07" rx="127.73" ry="81.62"/>
      <ellipse class="cls-2" cx="1104.46" cy="472.66" rx="127.73" ry="81.62"/>
      <path class="cls-46" d="M1164.59,456.65c-32.05,23.18-88.24,22.8-120.26-.34,0,0,.33-.93.33-.93,18.04,5.41,37.18,8.12,56.01,8.54,6.23.11,12.72.02,18.93-.31,7.52-.57,15.13-1.37,22.55-2.71,4.21-.9,10.69-2.05,14.8-3.27,0,0,7.34-1.93,7.34-1.93l.3.94h0Z"/>
      <g>
        <path class="cls-7" d="M1136.79,457.56v2.1c0,1.17-1.19,2.15-3.58,2.95-2.38.79-5.97,1.39-10.75,1.79-4.77.4-10.73.6-17.85.6s-13.08-.2-17.85-.6c-4.78-.4-8.39-1-10.82-1.79-2.43-.79-3.65-1.78-3.65-2.95v-68.63h64.5v66.52Z"/>
        <ellipse class="cls-4" cx="1104.46" cy="391.04" rx="32.32" ry="20.66"/>
      </g>
      <ellipse class="cls-2" cx="1103.46" cy="390.82" rx="127.73" ry="81.62"/>
      <path class="cls-46" d="M1163.59,374.81c-32.05,23.18-88.24,22.8-120.26-.34,0,0,.33-.93.33-.93,18.04,5.41,37.18,8.12,56.01,8.54,6.23.11,12.72.02,18.93-.31,7.52-.57,15.13-1.37,22.55-2.71,4.21-.9,10.69-2.05,14.8-3.27,0,0,7.34-1.93,7.34-1.93,0,0,.3.94.3.94h0Z"/>
      <g>
        <path class="cls-7" d="M1135.79,375.72v2.1c0,1.17-1.19,2.15-3.58,2.95-2.38.79-5.97,1.39-10.75,1.79-4.77.4-10.73.6-17.85.6s-13.08-.2-17.85-.6c-4.78-.4-8.39-1-10.82-1.79-2.43-.79-3.65-1.78-3.65-2.95v-131.29h64.5v129.19Z"/>
        <ellipse class="cls-4" cx="1103.46" cy="246.53" rx="32.32" ry="20.66"/>
      </g>
      <ellipse class="cls-20" cx="1103.46" cy="308.24" rx="127.73" ry="81.62"/>
      <ellipse class="cls-26" cx="1103.46" cy="226.83" rx="127.73" ry="81.62"/>
      <path class="cls-31" d="M1163.59,210.82c-32.05,23.18-88.24,22.8-120.26-.34,0,0,.33-.93.33-.93,18.04,5.41,37.18,8.12,56.01,8.54,6.23.11,12.72.02,18.93-.31,7.52-.57,15.13-1.37,22.55-2.71,4.21-.9,10.69-2.05,14.8-3.27,0,0,7.34-1.93,7.34-1.93,0,0,.3.94.3.94h0Z"/>
      <g>
        <path class="cls-16" d="M1135.79,211.73v2.1c0,1.17-1.19,2.15-3.58,2.95-2.38.79-5.97,1.39-10.75,1.79-4.77.4-10.73.6-17.85.6s-13.08-.2-17.85-.6c-4.78-.4-8.39-1-10.82-1.79-2.43-.79-3.65-1.78-3.65-2.95V82.54h64.5v129.19Z"/>
        <ellipse class="cls-30" cx="1103.46" cy="82.54" rx="32.32" ry="20.66"/>
      </g>
    </g>
  </g>
  <g class="cls-38">
    <g>
      <ellipse class="cls-16" cx="1448.44" cy="660.25" rx="154.42" ry="98.68"/>
      <ellipse class="cls-15" cx="1448.44" cy="631.09" rx="127.73" ry="81.62"/>
      <ellipse class="cls-13" cx="1448.44" cy="553.74" rx="127.73" ry="81.62"/>
      <ellipse class="cls-2" cx="1448.44" cy="472.34" rx="127.73" ry="81.62"/>
      <ellipse class="cls-2" cx="1448.44" cy="391.45" rx="127.73" ry="81.62"/>
      <path class="cls-31" d="M1508.56,388.02c-32.05,23.18-88.24,22.8-120.26-.34,0,0,.33-.93.33-.93,18.04,5.41,37.18,8.12,56.01,8.54,6.23.11,12.72.02,18.93-.31,7.52-.57,15.13-1.37,22.55-2.71,4.21-.9,10.69-2.05,14.8-3.27,0,0,7.34-1.93,7.34-1.93l.3.94h0Z"/>
      <g>
        <path class="cls-16" d="M1480.77,388.92v2.1c0,1.17-1.19,2.15-3.58,2.95-2.38.79-5.97,1.39-10.75,1.79-4.77.4-10.73.6-17.85.6s-13.08-.2-17.85-.6c-4.78-.4-8.39-1-10.82-1.79-2.43-.79-3.65-1.78-3.65-2.95v-81.2h64.5v79.1Z"/>
        <ellipse class="cls-30" cx="1448.44" cy="309.83" rx="32.32" ry="20.66"/>
      </g>
    </g>
  </g>
  <g class="cls-41">
    <g>
      <ellipse class="cls-6" cx="420.51" cy="659.46" rx="154.42" ry="98.68"/>
      <ellipse class="cls-25" cx="420.51" cy="630.3" rx="127.73" ry="81.62"/>
      <ellipse class="cls-28" cx="420.51" cy="552.95" rx="127.73" ry="81.62"/>
      <ellipse class="cls-18" cx="420.51" cy="471.54" rx="127.73" ry="81.62"/>
      <path class="cls-46" d="M480.63,455.53c-32.05,23.18-88.24,22.8-120.26-.34,0,0,.33-.93.33-.93,18.04,5.41,37.18,8.12,56.01,8.54,6.23.11,12.72.02,18.93-.31,7.52-.57,15.13-1.37,22.55-2.71,4.21-.9,10.69-2.05,14.8-3.27,0,0,7.34-1.93,7.34-1.93l.3.94h0Z"/>
      <g>
        <path class="cls-7" d="M452.83,456.44v2.1c0,1.17-1.19,2.15-3.58,2.95-2.38.79-5.97,1.39-10.75,1.79-4.77.4-10.73.6-17.85.6s-13.08-.2-17.85-.6c-4.78-.4-8.39-1-10.82-1.79-2.43-.79-3.65-1.78-3.65-2.95v-68.63h64.5v66.52Z"/>
        <ellipse class="cls-4" cx="420.51" cy="389.92" rx="32.32" ry="20.66"/>
      </g>
      <ellipse class="cls-18" cx="419.51" cy="389.7" rx="127.73" ry="81.62"/>
      <path class="cls-46" d="M479.63,373.69c-32.05,23.18-88.24,22.8-120.26-.34,0,0,.33-.93.33-.93,18.04,5.41,37.18,8.12,56.01,8.54,6.23.11,12.72.02,18.93-.31,7.52-.57,15.13-1.37,22.55-2.71,4.21-.9,10.69-2.05,14.8-3.27,0,0,7.34-1.93,7.34-1.93,0,0,.3.94.3.94h0Z"/>
      <g>
        <path class="cls-7" d="M451.83,374.6v2.1c0,1.17-1.19,2.15-3.58,2.95-2.38.79-5.97,1.39-10.75,1.79-4.77.4-10.73.6-17.85.6s-13.08-.2-17.85-.6c-4.78-.4-8.39-1-10.82-1.79-2.43-.79-3.65-1.78-3.65-2.95v-131.29h64.5v129.19Z"/>
        <ellipse class="cls-4" cx="419.51" cy="245.41" rx="32.32" ry="20.66"/>
      </g>
      <ellipse class="cls-22" cx="419.51" cy="307.12" rx="127.73" ry="81.62"/>
      <ellipse class="cls-21" cx="419.51" cy="225.71" rx="127.73" ry="81.62"/>
      <path class="cls-31" d="M479.63,209.7c-32.05,23.18-88.24,22.8-120.26-.34,0,0,.33-.93.33-.93,18.04,5.41,37.18,8.12,56.01,8.54,6.23.11,12.72.02,18.93-.31,7.52-.57,15.13-1.37,22.55-2.71,4.21-.9,10.69-2.05,14.8-3.27,0,0,7.34-1.93,7.34-1.93,0,0,.3.94.3.94h0Z"/>
      <g>
        <path class="cls-6" d="M451.83,210.61v2.1c0,1.17-1.19,2.15-3.58,2.95-2.38.79-5.97,1.39-10.75,1.79-4.77.4-10.73.6-17.85.6s-13.08-.2-17.85-.6c-4.78-.4-8.39-1-10.82-1.79-2.43-.79-3.65-1.78-3.65-2.95V81.42h64.5v129.19Z"/>
        <ellipse class="cls-30" cx="419.51" cy="81.42" rx="32.32" ry="20.66"/>
      </g>
    </g>
  </g>
  <g class="cls-45">
    <g>
      <ellipse class="cls-6" cx="763.69" cy="659.46" rx="154.42" ry="98.68"/>
      <ellipse class="cls-29" cx="763.69" cy="630.3" rx="127.73" ry="81.62"/>
      <ellipse class="cls-24" cx="763.69" cy="552.95" rx="127.73" ry="81.62"/>
      <ellipse class="cls-21" cx="763.69" cy="471.54" rx="127.73" ry="81.62"/>
      <path class="cls-31" d="M823.81,455.53c-32.05,23.18-88.24,22.8-120.26-.34,0,0,.33-.93.33-.93,18.04,5.41,37.18,8.12,56.01,8.54,6.23.11,12.72.02,18.93-.31,7.52-.57,15.13-1.37,22.55-2.71,4.21-.9,10.69-2.05,14.8-3.27,0,0,7.34-1.93,7.34-1.93l.3.94h0Z"/>
      <g>
        <path class="cls-6" d="M796.01,456.44v2.1c0,1.17-1.19,2.15-3.58,2.95-2.38.79-5.97,1.39-10.75,1.79-4.77.4-10.73.6-17.85.6s-13.08-.2-17.85-.6c-4.78-.4-8.39-1-10.82-1.79-2.43-.79-3.65-1.78-3.65-2.95v-131.29h64.5v129.19Z"/>
        <ellipse class="cls-30" cx="763.69" cy="327.25" rx="32.32" ry="20.66"/>
      </g>
    </g>
  </g>
  <g class="cls-39">
    <g>
      <ellipse class="cls-6" cx="592.1" cy="780.29" rx="154.42" ry="98.68"/>
      <ellipse class="cls-23" cx="592.1" cy="751.13" rx="127.73" ry="81.62"/>
      <ellipse class="cls-27" cx="592.1" cy="673.78" rx="127.73" ry="81.62"/>
      <ellipse class="cls-18" cx="592.1" cy="592.37" rx="127.73" ry="81.62"/>
      <path class="cls-31" d="M652.22,576.37c-32.05,23.18-88.24,22.8-120.26-.34,0,0,.33-.93.33-.93,18.04,5.41,37.18,8.12,56.01,8.54,6.23.11,12.72.02,18.93-.31,7.52-.57,15.13-1.37,22.55-2.71,4.21-.9,10.69-2.05,14.8-3.27,0,0,7.34-1.93,7.34-1.93l.3.94h0Z"/>
      <g>
        <path class="cls-6" d="M624.42,577.27v2.1c0,1.17-1.19,2.15-3.58,2.95-2.38.79-5.97,1.39-10.75,1.79-4.77.4-10.73.6-17.85.6s-13.08-.2-17.85-.6c-4.78-.4-8.39-1-10.82-1.79-2.43-.79-3.65-1.78-3.65-2.95v-131.29h64.5v129.19Z"/>
        <ellipse class="cls-30" cx="592.1" cy="448.08" rx="32.32" ry="20.66"/>
      </g>
    </g>
  </g>
  <g class="cls-43">
    <g>
      <ellipse class="cls-6" cx="1277.06" cy="780.29" rx="154.42" ry="98.68"/>
      <ellipse class="cls-18" cx="1277.06" cy="751.13" rx="127.73" ry="81.62"/>
      <ellipse class="cls-19" cx="1277.06" cy="673.78" rx="127.73" ry="81.62"/>
      <ellipse class="cls-21" cx="1277.06" cy="592.37" rx="127.73" ry="81.62"/>
      <path class="cls-31" d="M1337.18,576.37c-32.05,23.18-88.24,22.8-120.26-.34,0,0,.33-.93.33-.93,18.04,5.41,37.18,8.12,56.01,8.54,6.23.11,12.72.02,18.93-.31,7.52-.57,15.13-1.37,22.55-2.71,4.21-.9,10.69-2.05,14.8-3.27,0,0,7.34-1.93,7.34-1.93l.3.94h0Z"/>
      <g>
        <path class="cls-6" d="M1309.38,577.27v2.1c0,1.17-1.19,2.15-3.58,2.95-2.38.79-5.97,1.39-10.75,1.79-4.77.4-10.73.6-17.85.6s-13.08-.2-17.85-.6c-4.78-.4-8.39-1-10.82-1.79-2.43-.79-3.65-1.78-3.65-2.95v-252.13h64.5v250.02Z"/>
        <ellipse class="cls-30" cx="1277.06" cy="327.25" rx="32.32" ry="20.66"/>
      </g>
    </g>
  </g>
  <g class="cls-42">
    <g>
      <ellipse class="cls-16" cx="934.58" cy="782.51" rx="154.42" ry="98.68"/>
      <ellipse class="cls-11" cx="934.58" cy="753.34" rx="127.73" ry="81.62"/>
      <ellipse class="cls-12" cx="934.58" cy="676" rx="127.73" ry="81.62"/>
      <ellipse class="cls-2" cx="934.58" cy="594.59" rx="127.73" ry="81.62"/>
      <ellipse class="cls-2" cx="934.58" cy="513.7" rx="127.73" ry="81.62"/>
      <path class="cls-31" d="M994.7,510.27c-32.05,23.18-88.24,22.8-120.26-.34,0,0,.33-.93.33-.93,18.04,5.41,37.18,8.12,56.01,8.54,6.23.11,12.72.02,18.93-.31,7.52-.57,15.13-1.37,22.55-2.71,4.21-.9,10.69-2.05,14.8-3.27,0,0,7.34-1.93,7.34-1.93,0,0,.3.94.3.94h0Z"/>
      <g>
        <path class="cls-16" d="M966.9,511.18v2.1c0,1.17-1.19,2.15-3.58,2.95-2.38.79-5.97,1.39-10.75,1.79-4.77.4-10.73.6-17.85.6s-13.08-.2-17.85-.6c-4.78-.4-8.39-1-10.82-1.79-2.43-.79-3.65-1.78-3.65-2.95v-81.2h64.5v79.1Z"/>
        <ellipse class="cls-30" cx="934.58" cy="432.08" rx="32.32" ry="20.66"/>
      </g>
    </g>
  </g>
  <g class="cls-40">
    <ellipse class="cls-10" cx="351.76" cy="807.38" rx="127.73" ry="81.62"/>
    <path class="cls-31" d="M291.84,790.71c17.52,2.85,34.77,5.12,52.43,5.33,22.62.43,45.04-1.7,67.39-5.66,0,0,.13.38.13.38-14.44,4.76-29.68,7.29-44.8,8.64-1.45.09-8.23.49-9.51.57-1.2.02-4.47.06-5.72.08-10.14.05-20.36-.61-30.38-2.16-10.09-1.32-19.94-3.93-29.68-6.79l.12-.38h0Z"/>
  </g>
  <g class="cls-33">
    <ellipse class="cls-3" cx="351.76" cy="746.71" rx="127.73" ry="81.62"/>
    <path class="cls-31" d="M291.84,730.04c17.52,2.85,34.77,5.12,52.43,5.33,22.62.43,45.04-1.7,67.39-5.66,0,0,.13.38.13.38-14.44,4.76-29.68,7.29-44.8,8.64-1.45.09-8.23.49-9.51.57-1.2.02-4.47.06-5.72.08-10.14.05-20.36-.61-30.38-2.16-10.09-1.32-19.94-3.93-29.68-6.79,0,0,.12-.38.12-.38h0Z"/>
  </g>
  <g class="cls-34">
    <ellipse class="cls-9" cx="763.77" cy="951.52" rx="127.73" ry="81.62"/>
    <path class="cls-31" d="M703.85,934.85c17.52,2.85,34.77,5.12,52.43,5.33,22.62.43,45.04-1.7,67.39-5.66,0,0,.13.38.13.38-14.44,4.76-29.68,7.29-44.8,8.64-1.45.09-8.23.49-9.51.57-1.2.02-4.47.06-5.72.08-10.14.05-20.36-.61-30.38-2.16-10.09-1.32-19.94-3.93-29.68-6.79,0,0,.12-.38.12-.38h0Z"/>
  </g>
  <g class="cls-32">
    <ellipse class="cls-3" cx="763.77" cy="890.84" rx="127.73" ry="81.62"/>
    <path class="cls-31" d="M703.85,874.17c17.52,2.85,34.77,5.12,52.43,5.33,22.62.43,45.04-1.7,67.39-5.66,0,0,.13.38.13.38-14.44,4.76-29.68,7.29-44.8,8.64-1.45.09-8.23.49-9.51.57-1.2.02-4.47.06-5.72.08-10.14.05-20.36-.61-30.38-2.16-10.09-1.32-19.94-3.93-29.68-6.79,0,0,.12-.38.12-.38h0Z"/>
  </g>
  <g class="cls-37">
    <ellipse class="cls-3" cx="763.77" cy="808.39" rx="127.73" ry="81.62"/>
    <g>
      <path class="cls-1" d="M703.79,791.92c63.01,20.01,119.95-.33,119.95-.33"/>
      <path class="cls-31" d="M703.85,791.73c17.52,2.85,34.77,5.12,52.43,5.33,22.62.43,45.04-1.7,67.39-5.66,0,0,.13.38.13.38-14.44,4.76-29.68,7.29-44.8,8.64-1.45.09-8.23.49-9.51.57-1.2.02-4.47.06-5.72.08-10.14.05-20.36-.61-30.38-2.16-10.09-1.32-19.94-3.93-29.68-6.79,0,0,.12-.38.12-.38h0Z"/>
    </g>
  </g>
  <g class="cls-36">
    <ellipse class="cls-8" cx="763.77" cy="736.87" rx="127.73" ry="81.62"/>
    <path class="cls-31" d="M703.85,720.2c17.52,2.85,34.77,5.12,52.43,5.33,22.62.43,45.04-1.7,67.39-5.66,0,0,.13.38.13.38-14.44,4.76-29.68,7.29-44.8,8.64-1.45.09-8.23.49-9.51.57-1.2.02-4.47.06-5.72.08-10.14.05-20.36-.61-30.38-2.16-10.09-1.32-19.94-3.93-29.68-6.79,0,0,.12-.38.12-.38h0Z"/>
  </g>
  <g class="cls-35">
    <ellipse class="cls-17" cx="763.77" cy="662.66" rx="127.73" ry="81.62"/>
    <path class="cls-31" d="M703.85,645.99c17.52,2.85,34.77,5.12,52.43,5.33,22.62.43,45.04-1.7,67.39-5.66,0,0,.13.38.13.38-14.44,4.76-29.68,7.29-44.8,8.64-1.45.09-8.23.49-9.51.57-1.2.02-4.47.06-5.72.08-10.14.05-20.36-.61-30.38-2.16-10.09-1.32-19.94-3.93-29.68-6.79l.12-.38h0Z"/>
  </g>
</svg>