<?xml version="1.0" encoding="UTF-8"?>
<svg id="Layer_1" data-name="Layer 1" xmlns="http://www.w3.org/2000/svg" viewBox="0 0 283.46 283.46">
  <defs>
    <style>
      .cls-1 {
        fill: #fff;
      }

      .cls-2 {
        fill: #eb1c24;
      }
    </style>
  </defs>
  <path class="cls-2" d="M177.3,202.83h-73.23c-15.61,0-28.38-12.77-28.38-28.38v-73.23c0-15.61,12.77-28.38,28.38-28.38h73.23c15.61,0,28.38,12.77,28.38,28.38v73.23c0,15.61-12.77,28.38-28.38,28.38"/>
  <path class="cls-1" d="M100.98,137.26c1.62,0,3,1.01,3.55,2.43l.06.15,2.1,5.84c.78,2.15,2.79,3.58,5.03,3.65v-4.53c-.4-.1-.72-.39-.85-.8l-1.48-4.87c-.9-3.94-4.49-6.85-8.73-6.7-4.48.16-8.13,3.8-8.31,8.27-.2,4.93,3.74,8.98,8.62,8.98,2.26,0,4.32-.87,5.86-2.3l-3.24-3.58c-.78.74-1.87,1.16-3.06,1.03-1.74-.2-3.15-1.6-3.34-3.35-.25-2.29,1.54-4.23,3.78-4.23"/>
  <path class="cls-1" d="M178.28,137.26c1.62,0,3,1.01,3.55,2.43l.06.15,2.1,5.84c.78,2.15,2.79,3.58,5.03,3.65v-4.53c-.4-.1-.72-.39-.85-.8l-1.48-4.87c-.9-3.94-4.49-6.85-8.73-6.7-4.48.16-8.13,3.8-8.31,8.27-.2,4.93,3.74,8.98,8.62,8.98,2.26,0,4.32-.87,5.86-2.3l-3.24-3.58c-.78.74-1.87,1.16-3.06,1.03-1.75-.2-3.15-1.6-3.34-3.35-.25-2.29,1.54-4.23,3.78-4.23"/>
  <path class="cls-1" d="M113.53,140.86v8.43h4.72v-8.86c0-2.05,1.66-3.71,3.71-3.71s3.71,1.66,3.71,3.71v8.86h4.72v-8.43c0-4.66-3.77-8.43-8.43-8.43s-8.43,3.77-8.43,8.43"/>
  <path class="cls-1" d="M148.89,140.86v-8.43h-4.72v8.86c0,2.05-1.66,3.71-3.71,3.71s-3.71-1.66-3.71-3.71v-8.86h-4.72v8.43c0,4.66,3.77,8.43,8.43,8.43s8.43-3.77,8.43-8.43"/>
  <path class="cls-1" d="M167.78,141.06c0-4.77-3.86-8.63-8.63-8.63s-8.63,3.86-8.63,8.63,3.86,8.63,8.63,8.63c1.08,0,2.11-.28,2.92-.91l-1.26-4.18c-.42.15-1.3.26-1.66.26-2.1,0-3.8-1.7-3.8-3.8s1.7-3.8,3.8-3.8,3.72,1.62,3.8,3.65v.25s0,.03,0,.04h0v6.55c0,2.05-1.56,3.71-3.61,3.71-1.36,0-3.12-.73-3.76-1.82l-3.25,3.12c1.55,1.83,4.43,3,7.01,3,4.65,0,8.44-3.77,8.44-8.43v-6.2h0s0-.03,0-.05"/>
  <path class="cls-1" d="M96.98,106.67c0-2.23-1.8-4.03-4.03-4.03h-.61v15.32c0,4.57,3.71,8.28,8.28,8.28v-4.21c-2.01,0-3.64-1.63-3.64-3.64v-5.24h3.65v-3.43h-3.65v-3.05Z"/>
  <polygon class="cls-1" points="189.03 109.72 183.46 109.72 179.98 114.33 176.5 109.72 170.94 109.72 177.2 118.02 170.94 126.32 176.5 126.32 179.98 121.71 183.46 126.32 189.03 126.32 182.76 118.02 189.03 109.72"/>
  <path class="cls-1" d="M110.74,109.68h0c-1.32,0-2.57.32-3.67.87v-3.65c0-2.23-1.8-4.03-4.03-4.03h-.58v23.38h4.64v-8.71c0-2.01,1.63-3.64,3.64-3.64s3.64,1.63,3.64,3.64v8.71h4.64v-8.28c0-4.57-3.71-8.28-8.28-8.28"/>
  <rect class="cls-1" x="141.43" y="114.88" width="4.61" height="11.37"/>
  <rect class="cls-1" x="141.43" y="109.72" width="4.61" height="3.43"/>
  <path class="cls-1" d="M156.15,113.15v-3.43h-3.56c.36-1.64,1.81-2.87,3.56-2.87v-4.21c-4.57,0-8.28,3.71-8.28,8.28v15.32h4.64v-13.09h3.64Z"/>
  <path class="cls-1" d="M138.77,121.05l-1.46-4.78c-.88-3.87-4.41-6.73-8.58-6.58-4.4.16-7.98,3.73-8.16,8.13-.19,4.84,3.67,8.83,8.47,8.83,2.22,0,4.25-.86,5.76-2.26l-3.18-3.52c-.77.73-1.84,1.14-3.01,1.01-1.71-.19-3.09-1.57-3.28-3.29-.25-2.25,1.51-4.16,3.71-4.16,1.59,0,2.95.99,3.49,2.39l.06.15,2.07,5.73c.76,2.12,2.74,3.52,4.95,3.58v-4.45c-.39-.1-.71-.39-.83-.79"/>
  <path class="cls-1" d="M164.08,121.96c-2.07,0-3.74-1.68-3.74-3.74s1.68-3.74,3.74-3.74c1.34,0,2.52.71,3.18,1.78h-3.18v3.43h3.44s0,0,0,0h4.93c.08-.48.13-.97.13-1.47,0-4.69-3.8-8.5-8.5-8.5s-8.5,3.8-8.5,8.5,3.8,8.5,8.5,8.5c2.25,0,4.29-.87,5.81-2.3l-3.21-3.51c-.67.65-1.59,1.05-2.6,1.05"/>
  <g>
    <path class="cls-1" d="M117.08,160.16h2.26l6.11,12.67h-2.58l-1.41-3.04h-6.56l-1.43,3.04h-2.5l6.11-12.67ZM120.57,167.84l-2.4-5.03-2.38,5.03h4.78Z"/>
    <path class="cls-1" d="M135.48,173.01c-1.07,0-2.1-.16-3.07-.49s-1.88-.84-2.72-1.52l1.47-1.58c.68.53,1.36.93,2.04,1.21.69.28,1.47.42,2.34.42.75,0,1.35-.14,1.8-.43.44-.29.66-.67.66-1.15v-.04c0-.23-.04-.43-.13-.6-.09-.17-.25-.34-.48-.49-.23-.16-.55-.3-.95-.43-.4-.13-.93-.26-1.58-.4-.74-.16-1.4-.33-1.98-.53-.58-.2-1.06-.44-1.45-.72-.39-.28-.69-.63-.89-1.03-.21-.41-.31-.9-.31-1.47v-.04c0-.54.12-1.03.35-1.48.24-.45.56-.83.97-1.15.41-.32.91-.57,1.49-.75.58-.18,1.21-.27,1.9-.27,1.02,0,1.93.13,2.75.4.81.27,1.58.66,2.29,1.18l-1.31,1.67c-.63-.42-1.26-.74-1.88-.96-.62-.22-1.25-.33-1.88-.33-.71,0-1.27.14-1.67.43-.4.29-.6.64-.6,1.06v.04c0,.24.05.45.14.64.09.19.26.35.51.5.25.15.58.29,1.01.42.43.13.98.27,1.64.41.73.17,1.37.35,1.94.56.56.2,1.03.45,1.4.75.37.29.65.64.84,1.02.19.39.29.84.29,1.36v.04c0,.59-.12,1.11-.36,1.58-.24.47-.58.86-1.01,1.19-.43.32-.95.57-1.56.74-.61.17-1.27.25-2,.25"/>
    <rect class="cls-1" x="146.21" y="160.25" width="2.42" height="12.58"/>
    <path class="cls-1" d="M160.05,160.16h2.26l6.11,12.67h-2.58l-1.41-3.04h-6.56l-1.43,3.04h-2.5l6.11-12.67ZM163.54,167.84l-2.4-5.03-2.38,5.03h4.78Z"/>
  </g>
</svg>