<svg xmlns="http://www.w3.org/2000/svg" xmlns:xlink="http://www.w3.org/1999/xlink" id="Layer_1" data-name="Layer 1" viewBox="0 0 283.46 283.46"><defs><linearGradient id="linear-gradient" x1="90.01" x2="194.66" y1="106.6" y2="106.6" gradientUnits="userSpaceOnUse"><stop offset=".02" stop-color="#ffd300"/><stop offset=".4" stop-color="#ffde17"/><stop offset=".41" stop-color="#ffdc14"/><stop offset=".46" stop-color="#ffd708"/><stop offset=".54" stop-color="#ffd301"/><stop offset=".74" stop-color="#ffd300"/><stop offset=".79" stop-color="#ffd302"/><stop offset=".81" stop-color="#ffd50b"/><stop offset=".84" stop-color="#ffd71b"/><stop offset=".86" stop-color="#ffdb31"/><stop offset=".88" stop-color="#ffe04d"/><stop offset=".9" stop-color="#ffe66f"/><stop offset=".92" stop-color="#ffed99"/><stop offset=".94" stop-color="#fff5c7"/><stop offset=".96" stop-color="#fffefc"/><stop offset=".96" stop-color="#fff"/><stop offset=".96" stop-color="#fffdf5"/><stop offset=".96" stop-color="#fff5c7"/><stop offset=".96" stop-color="#ffee9c"/><stop offset=".96" stop-color="#ffe777"/><stop offset=".97" stop-color="#ffe156"/><stop offset=".97" stop-color="#ffdd3b"/><stop offset=".97" stop-color="#ffd925"/><stop offset=".97" stop-color="#ffd614"/><stop offset=".98" stop-color="#ffd408"/><stop offset=".98" stop-color="#ffd301"/><stop offset="1" stop-color="#ffd300"/></linearGradient><linearGradient xlink:href="#linear-gradient" id="linear-gradient-2" x1="61.68" x2="84.93" y1="111.13" y2="111.13"/><linearGradient xlink:href="#linear-gradient" id="linear-gradient-3" x1="198.37" x2="224.68" y1="111.17" y2="111.17"/><linearGradient xlink:href="#linear-gradient" id="linear-gradient-4" x1="143.59" x2="174.54" y1="174.55" y2="174.55"/><linearGradient xlink:href="#linear-gradient" id="linear-gradient-5" x1="39.66" x2="70.61" y1="174.54" y2="174.54"/><linearGradient xlink:href="#linear-gradient" id="linear-gradient-6" x1="75.22" x2="103.26" y1="174.54" y2="174.54"/><linearGradient xlink:href="#linear-gradient" id="linear-gradient-7" x1="179.15" x2="206.37" y1="174.55" y2="174.55"/><linearGradient xlink:href="#linear-gradient" id="linear-gradient-8" x1="212.73" x2="237.42" y1="174.55" y2="174.55"/><linearGradient xlink:href="#linear-gradient" id="linear-gradient-9" x1="111.15" x2="137.73" y1="173.76" y2="173.76"/><style>.cls-5{stroke-miterlimit:10;stroke:#231f20;fill:#ffde17;stroke-width:1.15px}</style></defs><g id="logo"><path d="M158.46 84.56c-5.07 1.27-9.75 4.01-13.4 7.76-7.96-23.85-45.38-28.75-54.12-2.81-2.3 7.63-.22 16.01 4.57 22.22-4.28 4.43-5.59 11.6-2.21 16.93 5.54 8.89 16.9 12.06 26.84 12.13 8.91-.05 18.47-2.5 24.74-9.2 3.75 4.2 8.8 7.22 14.27 8.6 11.19 2.97 23.83-1.75 30.32-11.38 15.11-22.13-5.1-50.71-31.01-44.25m-13.57 46.78-.07.07z" style="fill:url(#linear-gradient)"/><ellipse cx="120.14" cy="121.58" rx="26.82" ry="17.14" style="stroke-miterlimit:10;stroke-width:2.36px;stroke:#231f20;fill:#231f20"/><ellipse cx="120.14" cy="117.83" rx="22.19" ry="13.39" style="stroke-miterlimit:10;stroke-width:2.36px;stroke:#231f20;fill:#ffde17"/><path d="M129.88 78.24c-12.52-7.05-28.04-3.9-34.65 7.04s-1.82 25.52 10.7 32.57 28.04 3.9 34.65-7.04 1.82-25.52-10.7-32.57Zm-14.45 24.17c-4.33-2.44-5.98-7.48-3.7-11.26 2.29-3.78 7.65-4.87 11.97-2.43 4.33 2.44 5.98 7.48 3.7 11.26-2.29 3.78-7.65 4.87-11.97 2.43Z" style="stroke-miterlimit:10;stroke:#231f20;fill:#4882d0;stroke-width:2.1px"/><path d="M123.7 88.72c-4.33-2.44-9.69-1.35-11.97 2.43-2.29 3.78-.63 8.82 3.7 11.26s9.69 1.35 11.97-2.43c2.29-3.78.63-8.82-3.7-11.26Z" style="stroke-miterlimit:10;opacity:0;stroke:#2970d0;fill:#4882d0;stroke-width:1.31px"/><path d="M126.6 83.91v15.64c0 .21-.03.43-.08.63-.47 1.99-3.15 3.5-6.37 3.5s-5.94-1.54-6.38-3.54a.3.3 0 0 1-.04-.16V83.91z" class="cls-5"/><ellipse cx="120.14" cy="83.91" class="cls-5" rx="6.45" ry="4.12"/><path d="M180.08 90.44c-12.17-7.88-28.42-4.4-36.3 7.77s-4.4 28.42 7.77 36.3 28.42 4.4 36.3-7.77 4.4-28.42-7.77-36.3Zm-19.19 29.65c-4.2-2.72-5.41-8.34-2.68-12.54 2.72-4.2 8.34-5.41 12.54-2.68s5.41 8.34 2.68 12.54c-2.72 4.2-8.34 5.41-12.54 2.68Z" style="stroke-miterlimit:10;stroke:#231f20;stroke-width:2.1px;fill:#bbdb0c"/><path d="M62.2 84.51h22.13v7.61H70.56v14.83H84.4v7.6H70.56v23.21h-8.37V84.52Z" style="stroke-miterlimit:10;fill:#231f20;stroke-width:1.05px;stroke:url(#linear-gradient-2)"/><path d="M198.9 84.54h12.78c8.37 0 12.47 4.64 12.47 13.16v26.93c0 8.52-4.11 13.16-12.47 13.16H198.9V84.55Zm12.63 45.64c2.66 0 4.26-1.37 4.26-5.17V97.32c0-3.8-1.6-5.17-4.26-5.17h-4.26v38.03z" style="stroke-miterlimit:10;fill:#231f20;stroke-width:1.05px;stroke:url(#linear-gradient-3)"/><path d="M153.19 146.96h11.74l8.99 55.17h-8.67l-1.58-10.96v.16h-9.85l-1.58 10.8h-8.04zm9.46 36.89-3.86-27.27h-.16l-3.78 27.27z" style="stroke-miterlimit:10;fill:#231f20;stroke-width:1.05px;stroke:url(#linear-gradient-4)"/><path d="M49.26 146.96H61l8.99 55.17h-8.67l-1.58-10.96v.16h-9.85l-1.58 10.8h-8.04zm9.46 36.89-3.86-27.27h-.16l-3.78 27.27z" style="stroke-miterlimit:10;fill:#231f20;stroke:url(#linear-gradient-5);stroke-width:1.05px"/><path d="M75.75 146.96H88.6c8.99 0 12.85 4.18 12.85 12.69v3.39c0 5.67-1.81 9.3-5.67 10.88v.16c4.33 1.34 5.75 5.44 5.75 11.66v9.7c0 2.68.08 4.65.95 6.7h-8.83c-.47-1.42-.79-2.29-.79-6.78v-10.09c0-5.12-1.5-6.78-5.44-6.78h-2.99v23.65h-8.67v-55.17Zm11.82 23.64c3.23 0 5.2-1.42 5.2-5.83v-4.26c0-3.94-1.34-5.67-4.41-5.67h-3.94v15.76z" style="stroke-miterlimit:10;fill:#231f20;stroke-width:1.05px;stroke:url(#linear-gradient-6)"/><path d="M179.67 146.96h13.24c8.67 0 12.93 4.81 12.93 13.64v27.9c0 8.83-4.26 13.64-12.93 13.64h-13.24v-55.17Zm13.09 47.29c2.76 0 4.41-1.42 4.41-5.36V160.2c0-3.94-1.65-5.36-4.41-5.36h-4.41v39.41z" style="stroke-miterlimit:10;fill:#231f20;stroke-width:1.05px;stroke:url(#linear-gradient-7)"/><path d="M213.25 146.96h23.65v7.88h-14.98v14.58h11.9v7.88h-11.9v16.95h14.98v7.88h-23.65z" style="stroke-miterlimit:10;fill:#231f20;stroke-width:1.05px;stroke:url(#linear-gradient-8)"/><path d="M111.67 188.57v-29.64c0-8.51 4.41-13.56 12.77-13.56 8.35 0 12.77 5.04 12.77 13.56v5.83h-8.2v-6.38c0-3.63-1.73-5.12-4.33-5.12s-4.33 1.5-4.33 5.12v30.82c0 3.63 1.73 5.04 4.33 5.04s4.33-1.42 4.33-5.04v-8.43h8.2v7.8c0 8.51-4.41 13.56-12.77 13.56-8.35 0-12.77-5.04-12.77-13.56Z" style="stroke-miterlimit:10;fill:#231f20;stroke-width:1.05px;stroke:url(#linear-gradient-9)"/></g></svg>