<?xml version="1.0" encoding="UTF-8"?>
<svg id="Layer_1" data-name="Layer 1" xmlns="http://www.w3.org/2000/svg" viewBox="0 0 283.46 283.46">
  <defs>
    <style>
      .cls-1 {
        fill: #ba0c2f;
      }

      .cls-2 {
        fill: #0a459b;
      }
    </style>
  </defs>
  <g>
    <polygon class="cls-1" points="229.13 125.57 228.08 131.44 208.09 134.91 207.11 129.39 229.13 125.57"/>
    <polygon class="cls-1" points="208.55 137.43 194.22 139.92 195.27 134.05 207.56 131.92 208.55 137.43"/>
    <polygon class="cls-2" points="227.48 134.78 226.43 140.65 209.64 143.57 208.66 138.05 227.48 134.78"/>
    <polygon class="cls-2" points="210.1 146.09 192.57 149.14 193.62 143.27 193.62 143.27 209.12 140.57 210.1 146.09"/>
    <polygon class="cls-1" points="225.78 144.28 224.73 150.15 211.24 152.49 210.25 146.98 225.78 144.28"/>
    <polygon class="cls-1" points="211.7 155.02 190.87 158.63 191.92 152.76 210.71 149.5 211.7 155.02"/>
  </g>
  <g>
    <polygon class="cls-2" points="96.9 135.51 102.4 135.51 102.4 136.76 96.89 142.26 96.89 158.67 104.6 158.67 104.6 129.29 96.9 129.29 96.9 135.51"/>
    <path class="cls-2" d="M85.49,132.72c-.6-.5-1.27-.93-1.95-1.27-.28-.18-.59-.31-.88-.44-.78-.36-1.64-.66-2.55-.88-1.06-.29-2.23-.49-3.46-.58-.81-.09-1.75-.13-2.87-.13h-18.51v6.35h5.5v1.3l-5.5,5.5v16.19h18.51c1.12,0,2.05-.04,2.86-.13,1.72-.16,3.29-.49,4.61-.96.72-.2,1.41-.49,2.26-.93.77-.42,1.42-.85,1.98-1.32.37-.31.67-.6,1-.94.69-.75,1.25-1.63,1.74-2.7.22-.51.46-1.07.63-1.68l.02-.09c.45-1.53.7-3.2.76-5.14v-.76c0-2.37-.27-4.35-.81-6.06-.67-2.28-1.79-4.07-3.33-5.31ZM81.86,144.9c0,2.74-.73,4.68-2.21,5.77-.1.09-.22.16-.34.24-.09.06-.18.12-.23.16-.75.45-1.6.77-2.62.98-1.01.22-2.15.33-3.39.33h-10.11v-16.63h10.11c1.23,0,2.37.11,3.39.34,1.28.27,2.35.71,3.21,1.33.42.3.76.66,1.01,1.08.77,1.05,1.16,2.56,1.16,4.48v1.93Z"/>
    <path class="cls-2" d="M182.13,132.06h0c-1.78-1.78-4.53-2.69-8.18-2.69h-23.55v6.13l5.47-.02v1.25l-5.47,5.47v16.47h7.64v-.06h.03v-9h15.88c3.72,0,6.4-.9,8.18-2.75,1.78-1.81,2.68-4.33,2.68-7.48s-.9-5.51-2.68-7.32ZM177.08,139.98c0,1.15-.3,2-.92,2.63-.62.64-1.69.97-3.18.97h-14.9v-8.1l14.9-.04c1.46,0,2.53.32,3.15.95.64.64.95,1.48.95,2.59v1.01Z"/>
    <polygon class="cls-2" points="110.25 129.29 110.25 135.67 126.68 135.67 126.68 136.91 123.6 139.99 123.6 158.68 131.34 158.68 131.34 135.67 144.73 135.67 144.73 129.29 110.25 129.29"/>
  </g>
</svg>