<svg xmlns="http://www.w3.org/2000/svg" id="Layer_1" data-name="Layer 1" viewBox="0 0 283.46 283.46"><defs><style>.cls-1{fill:#fff}</style></defs><path d="M177.3 202.83h-73.23c-15.61 0-28.38-12.77-28.38-28.38v-73.23c0-15.61 12.77-28.38 28.38-28.38h73.23c15.61 0 28.38 12.77 28.38 28.38v73.23c0 15.61-12.77 28.38-28.38 28.38" style="fill:#eb1c24"/><path d="M100.98 137.26c1.62 0 3 1.01 3.55 2.43l.06.15 2.1 5.84a5.54 5.54 0 0 0 5.03 3.65v-4.53c-.4-.1-.72-.39-.85-.8l-1.48-4.87a8.64 8.64 0 0 0-8.73-6.7c-4.48.16-8.13 3.8-8.31 8.27-.2 4.93 3.74 8.98 8.62 8.98 2.26 0 4.32-.87 5.86-2.3l-3.24-3.58c-.78.74-1.87 1.16-3.06 1.03-1.74-.2-3.15-1.6-3.34-3.35a3.805 3.805 0 0 1 3.78-4.23m77.31.01c1.62 0 3 1.01 3.55 2.43l.06.15 2.1 5.84a5.54 5.54 0 0 0 5.03 3.65v-4.53c-.4-.1-.72-.39-.85-.8l-1.48-4.87a8.64 8.64 0 0 0-8.73-6.7c-4.48.16-8.13 3.8-8.31 8.27-.2 4.93 3.74 8.98 8.62 8.98 2.26 0 4.32-.87 5.86-2.3l-3.24-3.58c-.78.74-1.87 1.16-3.06 1.03-1.75-.2-3.15-1.6-3.34-3.35a3.805 3.805 0 0 1 3.78-4.23m-64.74 3.61v8.43h4.72v-8.86c0-2.05 1.66-3.71 3.71-3.71s3.71 1.66 3.71 3.71v8.86h4.72v-8.43c0-4.66-3.77-8.43-8.43-8.43s-8.43 3.77-8.43 8.43m35.36 0v-8.43h-4.72v8.86c0 2.05-1.66 3.71-3.71 3.71s-3.71-1.66-3.71-3.71v-8.86h-4.72v8.43c0 4.66 3.77 8.43 8.43 8.43s8.43-3.77 8.43-8.43m18.89.2c0-4.77-3.86-8.63-8.63-8.63s-8.63 3.86-8.63 8.63 3.86 8.63 8.63 8.63c1.08 0 2.11-.28 2.92-.91l-1.26-4.18c-.42.15-1.3.26-1.66.26-2.1 0-3.8-1.7-3.8-3.8s1.7-3.8 3.8-3.8 3.72 1.62 3.8 3.65v6.84c0 2.05-1.56 3.71-3.61 3.71-1.36 0-3.12-.73-3.76-1.82l-3.25 3.12c1.55 1.83 4.43 3 7.01 3 4.65 0 8.44-3.77 8.44-8.43v-6.25m-70.8-34.41c0-2.23-1.8-4.03-4.03-4.03h-.61v15.32c0 4.57 3.71 8.28 8.28 8.28v-4.21a3.64 3.64 0 0 1-3.64-3.64v-5.24h3.65v-3.43h-3.65zm92.05 3.05h-5.57l-3.48 4.61-3.48-4.61h-5.56l6.26 8.3-6.26 8.3h5.56l3.48-4.61 3.48 4.61h5.57l-6.27-8.3zm-78.29-.04a8.2 8.2 0 0 0-3.67.87v-3.65c0-2.23-1.8-4.03-4.03-4.03h-.58v23.38h4.64v-8.71a3.64 3.64 0 0 1 7.28 0v8.71h4.64v-8.28c0-4.57-3.71-8.28-8.28-8.28m30.69 5.19h4.61v11.37h-4.61zm0-5.16h4.61v3.43h-4.61zm14.72 3.43v-3.43h-3.56a3.646 3.646 0 0 1 3.56-2.87v-4.21c-4.57 0-8.28 3.71-8.28 8.28v15.32h4.64v-13.09zm-17.38 7.9-1.46-4.78a8.48 8.48 0 0 0-8.58-6.58c-4.4.16-7.98 3.73-8.16 8.13-.19 4.84 3.67 8.83 8.47 8.83 2.22 0 4.25-.86 5.76-2.26l-3.18-3.52a3.74 3.74 0 0 1-3.01 1.01 3.737 3.737 0 1 1 3.92-5.06l.06.15 2.07 5.73a5.41 5.41 0 0 0 4.95 3.58v-4.45c-.39-.1-.71-.39-.83-.79" class="cls-1"/><path d="M164.08 121.96c-2.07 0-3.74-1.68-3.74-3.74s1.68-3.74 3.74-3.74c1.34 0 2.52.71 3.18 1.78h-3.18v3.43h8.37c.08-.48.13-.97.13-1.47 0-4.69-3.8-8.5-8.5-8.5s-8.5 3.8-8.5 8.5 3.8 8.5 8.5 8.5c2.25 0 4.29-.87 5.81-2.3l-3.21-3.51c-.67.65-1.59 1.05-2.6 1.05m-47 38.2h2.26l6.11 12.67h-2.58l-1.41-3.04h-6.56l-1.43 3.04h-2.5zm3.49 7.68-2.4-5.03-2.38 5.03zm14.91 5.17c-1.07 0-2.1-.16-3.07-.49s-1.88-.84-2.72-1.52l1.47-1.58c.68.53 1.36.93 2.04 1.21q1.035.42 2.34.42c.75 0 1.35-.14 1.8-.43.44-.29.66-.67.66-1.15v-.04c0-.23-.04-.43-.13-.6s-.25-.34-.48-.49c-.23-.16-.55-.3-.95-.43s-.93-.26-1.58-.4c-.74-.16-1.4-.33-1.98-.53s-1.06-.44-1.45-.72a2.8 2.8 0 0 1-.89-1.03c-.21-.41-.31-.9-.31-1.47v-.04c0-.54.12-1.03.35-1.48.24-.45.56-.83.97-1.15s.91-.57 1.49-.75 1.21-.27 1.9-.27c1.02 0 1.93.13 2.75.4.81.27 1.58.66 2.29 1.18l-1.31 1.67a8.6 8.6 0 0 0-1.88-.96 5.6 5.6 0 0 0-1.88-.33c-.71 0-1.27.14-1.67.43s-.6.64-.6 1.06v.04c0 .24.05.45.14.64s.26.35.51.5.58.29 1.01.42.98.27 1.64.41c.73.17 1.37.35 1.94.56.56.2 1.03.45 1.4.75.37.29.65.64.84 1.02.19.39.29.84.29 1.36v.04c0 .59-.12 1.11-.36 1.58s-.58.86-1.01 1.19c-.43.32-.95.57-1.56.74s-1.27.25-2 .25m10.73-12.77h2.42v12.58h-2.42zm13.84-.09h2.26l6.11 12.67h-2.58l-1.41-3.04h-6.56l-1.43 3.04h-2.5zm3.49 7.68-2.4-5.03-2.38 5.03z" class="cls-1"/></svg>