<svg xmlns="http://www.w3.org/2000/svg" id="Layer_1" data-name="Layer 1" viewBox="0 0 283.46 283.46"><defs><style>.cls-1{fill:#ba0c2f}.cls-2{fill:#0a459b}</style></defs><path d="m229.13 125.57-1.05 5.87-19.99 3.47-.98-5.52z" class="cls-1"/><path d="m208.55 137.43-14.33 2.49 1.05-5.87 12.29-2.13z" class="cls-1"/><path d="m227.48 134.78-1.05 5.87-16.79 2.92-.98-5.52z" class="cls-2"/><path d="m210.1 146.09-17.53 3.05 1.05-5.87 15.5-2.7z" class="cls-2"/><path d="m225.78 144.28-1.05 5.87-13.49 2.34-.99-5.51z" class="cls-1"/><path d="m211.7 155.02-20.83 3.61 1.05-5.87 18.79-3.26z" class="cls-1"/><path d="M96.9 135.51h5.5v1.25l-5.51 5.5v16.41h7.71v-29.38h-7.7zm-11.41-2.79c-.6-.5-1.27-.93-1.95-1.27-.28-.18-.59-.31-.88-.44-.78-.36-1.64-.66-2.55-.88-1.06-.29-2.23-.49-3.46-.58-.81-.09-1.75-.13-2.87-.13H55.27v6.35h5.5v1.3l-5.5 5.5v16.19h18.51c1.12 0 2.05-.04 2.86-.13 1.72-.16 3.29-.49 4.61-.96.72-.2 1.41-.49 2.26-.93.77-.42 1.42-.85 1.98-1.32.37-.31.67-.6 1-.94.69-.75 1.25-1.63 1.74-2.7.22-.51.46-1.07.63-1.68l.02-.09c.45-1.53.7-3.2.76-5.14v-.76c0-2.37-.27-4.35-.81-6.06-.67-2.28-1.79-4.07-3.33-5.31Zm-3.63 12.18c0 2.74-.73 4.68-2.21 5.77-.1.09-.22.16-.34.24-.09.06-.18.12-.23.16-.75.45-1.6.77-2.62.98-1.01.22-2.15.33-3.39.33H62.96v-16.63h10.11c1.23 0 2.37.11 3.39.34 1.28.27 2.35.71 3.21 1.33.42.3.76.66 1.01 1.08.77 1.05 1.16 2.56 1.16 4.48v1.93Zm100.27-12.84c-1.78-1.78-4.53-2.69-8.18-2.69H150.4v6.13l5.47-.02v1.25l-5.47 5.47v16.47h7.64v-.06h.03v-9h15.88c3.72 0 6.4-.9 8.18-2.75 1.78-1.81 2.68-4.33 2.68-7.48s-.9-5.51-2.68-7.32m-5.05 7.92c0 1.15-.3 2-.92 2.63-.62.64-1.69.97-3.18.97h-14.9v-8.1l14.9-.04c1.46 0 2.53.32 3.15.95.64.64.95 1.48.95 2.59v1.01Zm-66.83-10.69v6.38h16.43v1.24l-3.08 3.08v18.69h7.74v-23.01h13.39v-6.38z" class="cls-2"/></svg>