<svg xmlns="http://www.w3.org/2000/svg" id="Layer_1" data-name="Layer 1" viewBox="0 0 283.46 283.46"><defs><style>.cls-1{fill:#fff;stroke-width:4px;stroke:#231f20;stroke-miterlimit:10}.cls-3{fill:#231f20}</style></defs><path d="M175.42 124.32v57.05c0 .51-.22.99-.66 1.43-2.83 10.09-16.62 17.76-33.21 17.76s-31.27-8.18-33.43-18.75c-.04-.22-.04-.44-.07-.62v-54.92c1.54 11.01 16 19.63 33.62 19.63 18.64 0 33.76-9.65 33.76-21.58Z" class="cls-1"/><path d="M175.42 124.32c0 11.93-15.12 21.58-33.76 21.58-17.62 0-32.07-8.62-33.62-19.63v-1.95z" class="cls-1"/><path d="M175.49 124.32c0 11.93-15.12 21.58-33.76 21.58-17.62 0-32.07-8.62-33.62-19.63-.11-.62-.15-1.28-.15-1.95 0-11.93 15.12-21.58 33.76-21.58s33.76 9.65 33.76 21.58Z" class="cls-1"/><ellipse cx="141.73" cy="120.08" rx="61.8" ry="39.49" style="stroke:#231f20;stroke-miterlimit:10;fill:#bbdb0c;stroke-width:3.78px"/><path d="M179.23 90.41c-6.32 1.11-12.66 2.21-18.55 4.82-11.54 5.06-21.18 13.85-27.44 24.77-3.12 5.48-5.36 11.5-6.64 17.92-.39-6.55 1.07-13.25 3.85-19.33 8.47-18.68 28.24-30.62 48.77-28.17Z" class="cls-3"/><path d="M115.42 90.4c20.53-2.45 40.3 9.49 48.77 28.17 2.78 6.08 4.24 12.78 3.85 19.33-1.28-6.42-3.52-12.44-6.64-17.92-6.26-10.92-15.91-19.71-27.44-24.77-5.88-2.6-12.23-3.7-18.55-4.82Z" class="cls-3"/><path d="M195.45 121.01c-7.97-4.92-16.12-9.63-25.02-12.62-9.8-3.52-20.19-5.66-30.52-6.86-17.42-1.72-35.11-.71-51.88 4.86 18.73-10.01 42.35-11.22 62.95-7.17 9.37 1.77 18.64 4.92 27.09 9.36 6.34 3.27 12.05 7.75 17.4 12.43Z" class="cls-3"/></svg>