<svg xmlns="http://www.w3.org/2000/svg" xmlns:xlink="http://www.w3.org/1999/xlink" viewBox="0 0 388.96 598.04"><defs><linearGradient id="sand-food-grad-a" x1="54.54" x2="310" y1="430.47" y2="430.47" gradientUnits="userSpaceOnUse"><stop offset="0" stop-color="#96d2fa"/><stop offset="1" stop-color="#2890ea"/></linearGradient><linearGradient xlink:href="#sand-food-grad-a" id="sand-food-grad-b" x1="54.54" y1="353.12" y2="353.12"/><filter id="sand-food-drop" width="347.04" height="510.24" x="14.47" y="72.88" filterUnits="userSpaceOnUse"><feOffset dx="5.61" dy="5.61"/><feGaussianBlur result="blur" stdDeviation="5.61"/><feFlood flood-color="#000" flood-opacity=".1"/><feComposite in2="blur" operator="in"/><feComposite in="SourceGraphic"/></filter></defs><g style="filter:url(#sand-food-drop)"><ellipse cx="182.27" cy="459.63" rx="154.42" ry="98.68" style="stroke:#231f20;stroke-miterlimit:10;stroke-width:3.96px;fill:#dfeffb"/><ellipse cx="182.27" cy="430.47" rx="127.73" ry="81.62" style="stroke:#231f20;stroke-miterlimit:10;stroke-width:3.96px;fill:url(#sand-food-grad-a)"/><ellipse cx="182.27" cy="353.12" rx="127.73" ry="81.62" style="stroke:#231f20;stroke-miterlimit:10;stroke-width:3.96px;fill:#4194eb"/><ellipse cx="182.27" cy="271.71" rx="127.73" ry="81.62" style="stroke:#231f20;stroke-miterlimit:10;stroke-width:3.96px;fill:#96d2fa"/><path d="M242.39 255.71c-32.05 23.18-88.24 22.8-120.26-.34l.33-.93c18.04 5.41 37.18 8.12 56.01 8.54 6.23.11 12.72.02 18.93-.31 7.52-.57 15.13-1.37 22.55-2.71 4.21-.9 10.69-2.05 14.8-3.27l7.34-1.93.3.94Z" style="fill:#231f20"/><path d="M214.6 256.61v2.1c0 1.17-1.19 2.15-3.58 2.95-2.38.79-5.97 1.39-10.75 1.79-4.77.4-10.73.6-17.85.6s-13.08-.2-17.85-.6c-4.78-.4-8.39-1-10.82-1.79s-3.65-1.78-3.65-2.95V106.77h64.5z" style="fill:#dfeffb;stroke:#231f20;stroke-miterlimit:10;stroke-width:3.96px"/><ellipse cx="182.27" cy="106.77" rx="32.32" ry="20.66" style="stroke:#231f20;stroke-miterlimit:10;stroke-width:3.96px;fill:#231f20"/></g></svg>
