<svg xmlns="http://www.w3.org/2000/svg" xmlns:xlink="http://www.w3.org/1999/xlink" id="Layer_1" data-name="Layer 1" viewBox="0 0 388.96 598.04"><defs><linearGradient id="New_Gradient_Swatch" x1="66.75" x2="322.21" y1="430.47" y2="430.47" data-name="New Gradient Swatch" gradientUnits="userSpaceOnUse"><stop offset="0" stop-color="#d4dbb0"/><stop offset="1" stop-color="#bbdb0c"/></linearGradient><linearGradient xlink:href="#New_Gradient_Swatch" id="New_Gradient_Swatch-2" y1="353.12" y2="353.12" data-name="New Gradient Swatch"/><filter id="drop-shadow-7" width="346.8" height="507.84" x="26.71" y="75.28" filterUnits="userSpaceOnUse"><feOffset dx="5.61" dy="5.61"/><feGaussianBlur result="blur" stdDeviation="5.61"/><feFlood flood-color="#000" flood-opacity=".1"/><feComposite in2="blur" operator="in"/><feComposite in="SourceGraphic"/></filter><style>.cls-1,.cls-4{fill:#bbdb0c;stroke-width:3.78px;stroke:#231f20;stroke-miterlimit:10}.cls-4{stroke-width:3.96px;fill:#d4dbb0}</style></defs><g style="filter:url(#drop-shadow-7)"><ellipse cx="194.48" cy="459.63" class="cls-4" rx="154.42" ry="98.68"/><ellipse cx="194.48" cy="430.47" rx="127.73" ry="81.62" style="stroke:#231f20;stroke-miterlimit:10;fill:url(#New_Gradient_Swatch);stroke-width:3.96px"/><ellipse cx="194.48" cy="353.12" rx="127.73" ry="81.62" style="stroke:#231f20;stroke-miterlimit:10;stroke-width:3.96px;fill:url(#New_Gradient_Swatch-2)"/><ellipse cx="194.48" cy="271.71" class="cls-1" rx="127.73" ry="81.62"/><ellipse cx="194.48" cy="190.83" class="cls-1" rx="127.73" ry="81.62"/><path d="M254.6 187.4c-32.05 23.18-88.24 22.8-120.26-.34l.33-.93c18.04 5.41 37.18 8.12 56.01 8.54 6.23.11 12.72.02 18.93-.31 7.52-.57 15.13-1.37 22.55-2.71 4.21-.9 10.69-2.05 14.8-3.27l7.34-1.93.3.94Z" style="fill:#231f20"/><path d="M226.8 188.3v2.1c0 1.17-1.19 2.15-3.58 2.95-2.38.79-5.97 1.39-10.75 1.79-4.77.4-10.73.6-17.85.6s-13.08-.2-17.85-.6c-4.78-.4-8.39-1-10.82-1.79s-3.65-1.78-3.65-2.95v-81.2h64.5z" class="cls-4"/><ellipse cx="194.48" cy="109.21" rx="32.32" ry="20.66" style="stroke:#231f20;stroke-miterlimit:10;stroke-width:3.96px;fill:#231f20"/></g></svg>