<?xml version="1.0" encoding="UTF-8"?>
<svg id="Layer_1" data-name="Layer 1" xmlns="http://www.w3.org/2000/svg" xmlns:xlink="http://www.w3.org/1999/xlink" viewBox="0 0 388.96 598.04">
  <defs>
    <style>
      .cls-1 {
        fill: #bbdb0c;
        stroke-width: 3.78px;
      }

      .cls-1, .cls-2, .cls-3, .cls-4, .cls-5 {
        stroke: #231f20;
        stroke-miterlimit: 10;
      }

      .cls-6 {
        filter: url(#drop-shadow-7);
      }

      .cls-2 {
        fill: url(#New_Gradient_Swatch);
      }

      .cls-2, .cls-3, .cls-4, .cls-5 {
        stroke-width: 3.96px;
      }

      .cls-7, .cls-5 {
        fill: #231f20;
      }

      .cls-3 {
        fill: url(#New_Gradient_Swatch-2);
      }

      .cls-4 {
        fill: #d4dbb0;
      }
    </style>
    <filter id="drop-shadow-7" x="26.71" y="75.28" width="346.8" height="507.84" filterUnits="userSpaceOnUse">
      <feOffset dx="5.61" dy="5.61"/>
      <feGaussianBlur result="blur" stdDeviation="5.61"/>
      <feFlood flood-color="#000" flood-opacity=".1"/>
      <feComposite in2="blur" operator="in"/>
      <feComposite in="SourceGraphic"/>
    </filter>
    <linearGradient id="New_Gradient_Swatch" data-name="New Gradient Swatch" x1="66.75" y1="430.47" x2="322.21" y2="430.47" gradientUnits="userSpaceOnUse">
      <stop offset="0" stop-color="#d4dbb0"/>
      <stop offset="1" stop-color="#bbdb0c"/>
    </linearGradient>
    <linearGradient id="New_Gradient_Swatch-2" data-name="New Gradient Swatch" y1="353.12" y2="353.12" xlink:href="#New_Gradient_Swatch"/>
  </defs>
  <g class="cls-6">
    <g>
      <ellipse class="cls-4" cx="194.48" cy="459.63" rx="154.42" ry="98.68"/>
      <ellipse class="cls-2" cx="194.48" cy="430.47" rx="127.73" ry="81.62"/>
      <ellipse class="cls-3" cx="194.48" cy="353.12" rx="127.73" ry="81.62"/>
      <ellipse class="cls-1" cx="194.48" cy="271.71" rx="127.73" ry="81.62"/>
      <ellipse class="cls-1" cx="194.48" cy="190.83" rx="127.73" ry="81.62"/>
      <path class="cls-7" d="M254.6,187.4c-32.05,23.18-88.24,22.8-120.26-.34,0,0,.33-.93.33-.93,18.04,5.41,37.18,8.12,56.01,8.54,6.23.11,12.72.02,18.93-.31,7.52-.57,15.13-1.37,22.55-2.71,4.21-.9,10.69-2.05,14.8-3.27,0,0,7.34-1.93,7.34-1.93l.3.94h0Z"/>
      <g>
        <path class="cls-4" d="M226.8,188.3v2.1c0,1.17-1.19,2.15-3.58,2.95-2.38.79-5.97,1.39-10.75,1.79-4.77.4-10.73.6-17.85.6s-13.08-.2-17.85-.6c-4.78-.4-8.39-1-10.82-1.79-2.43-.79-3.65-1.78-3.65-2.95v-81.2h64.5v79.1Z"/>
        <ellipse class="cls-5" cx="194.48" cy="109.21" rx="32.32" ry="20.66"/>
      </g>
    </g>
  </g>
</svg>