<svg xmlns="http://www.w3.org/2000/svg" width="800" height="800" viewBox="0 0 512 512"><title>touch</title><path fill="#4a4456" fill-rule="evenodd" d="M291.747 258.115v-84.782c0-30.875-25.125-56-56-56-30.876 0-56 25.125-56 56v119.43c-10.366-8.695-23.305-13.627-36.894-13.627-16.177 0-31.708 6.854-42.573 18.812-21.009 23.024-19.642 58.547 2.658 80.149.028.028.039.06.067.088l94.328 91.148h208v-176zm70.92 168.552H213.333s-74.738-70.448-82.008-77.073c-8.274-7.537-8.871-20.354-1.334-28.63 7.54-8.274 20.357-8.87 28.632-1.334 5.539 5.047 41.952 35.037 41.952 35.037l16.505-8.534v-172.8c0-10.31 8.358-18.666 18.667-18.666s18.666 8.356 18.666 18.666v117.875l108.254 34.125zm-253.19-220.292c-2.77-10.576-4.397-21.61-4.397-33.042 0-72.041 58.615-130.666 130.667-130.666s130.666 58.625 130.666 130.666c0 11.433-1.626 22.466-4.397 33.042l-40.471-14.01c1.363-6.146 2.202-12.48 2.202-19.032 0-48.523-39.477-88-88-88s-88 39.477-88 88c0 6.552.838 12.886 2.201 19.032z"/></svg>