<?xml version="1.0" encoding="UTF-8"?>
<svg id="Layer_1" data-name="Layer 1" xmlns="http://www.w3.org/2000/svg" xmlns:xlink="http://www.w3.org/1999/xlink" viewBox="0 0 283.46 283.46">
  <defs>
    <style>
      .cls-1, .cls-2, .cls-3, .cls-4, .cls-5, .cls-6, .cls-7, .cls-8, .cls-9, .cls-10, .cls-11, .cls-12, .cls-13, .cls-14, .cls-15 {
        stroke-miterlimit: 10;
      }

      .cls-1, .cls-4 {
        stroke-width: 2.36px;
      }

      .cls-1, .cls-4, .cls-5, .cls-14, .cls-15 {
        stroke: #231f20;
      }

      .cls-1, .cls-6, .cls-7, .cls-8, .cls-9, .cls-10, .cls-11, .cls-12, .cls-13 {
        fill: #231f20;
      }

      .cls-2 {
        stroke-width: 1.4px;
      }

      .cls-2, .cls-3 {
        opacity: 0;
        stroke: #2970d0;
      }

      .cls-2, .cls-3, .cls-14 {
        fill: #4882d0;
      }

      .cls-3 {
        stroke-width: 1.31px;
      }

      .cls-16 {
        fill: url(#linear-gradient);
      }

      .cls-4, .cls-5 {
        fill: #ffde17;
      }

      .cls-5 {
        stroke-width: 1.15px;
      }

      .cls-6 {
        stroke: url(#linear-gradient-5);
      }

      .cls-6, .cls-7, .cls-8, .cls-9, .cls-10, .cls-11, .cls-12, .cls-13 {
        stroke-width: 1.05px;
      }

      .cls-7 {
        stroke: url(#linear-gradient-3);
      }

      .cls-8 {
        stroke: url(#linear-gradient-2);
      }

      .cls-9 {
        stroke: url(#linear-gradient-4);
      }

      .cls-10 {
        stroke: url(#linear-gradient-9);
      }

      .cls-11 {
        stroke: url(#linear-gradient-8);
      }

      .cls-12 {
        stroke: url(#linear-gradient-7);
      }

      .cls-13 {
        stroke: url(#linear-gradient-6);
      }

      .cls-14, .cls-15 {
        stroke-width: 2.1px;
      }

      .cls-15 {
        fill: #bbdb0c;
      }
    </style>
    <linearGradient id="linear-gradient" x1="90.01" y1="106.6" x2="194.66" y2="106.6" gradientUnits="userSpaceOnUse">
      <stop offset=".02" stop-color="#ffd300"/>
      <stop offset=".4" stop-color="#ffde17"/>
      <stop offset=".41" stop-color="#ffdc14"/>
      <stop offset=".46" stop-color="#ffd708"/>
      <stop offset=".54" stop-color="#ffd301"/>
      <stop offset=".74" stop-color="#ffd300"/>
      <stop offset=".79" stop-color="#ffd302"/>
      <stop offset=".81" stop-color="#ffd50b"/>
      <stop offset=".84" stop-color="#ffd71b"/>
      <stop offset=".86" stop-color="#ffdb31"/>
      <stop offset=".88" stop-color="#ffe04d"/>
      <stop offset=".9" stop-color="#ffe66f"/>
      <stop offset=".92" stop-color="#ffed99"/>
      <stop offset=".94" stop-color="#fff5c7"/>
      <stop offset=".96" stop-color="#fffefc"/>
      <stop offset=".96" stop-color="#fff"/>
      <stop offset=".96" stop-color="#fffdf5"/>
      <stop offset=".96" stop-color="#fff5c7"/>
      <stop offset=".96" stop-color="#ffee9c"/>
      <stop offset=".96" stop-color="#ffe777"/>
      <stop offset=".97" stop-color="#ffe156"/>
      <stop offset=".97" stop-color="#ffdd3b"/>
      <stop offset=".97" stop-color="#ffd925"/>
      <stop offset=".97" stop-color="#ffd614"/>
      <stop offset=".98" stop-color="#ffd408"/>
      <stop offset=".98" stop-color="#ffd301"/>
      <stop offset="1" stop-color="#ffd300"/>
    </linearGradient>
    <linearGradient id="linear-gradient-2" x1="61.68" y1="111.13" x2="84.93" y2="111.13" xlink:href="#linear-gradient"/>
    <linearGradient id="linear-gradient-3" x1="198.37" y1="111.17" x2="224.68" y2="111.17" xlink:href="#linear-gradient"/>
    <linearGradient id="linear-gradient-4" x1="143.59" y1="174.55" x2="174.54" y2="174.55" xlink:href="#linear-gradient"/>
    <linearGradient id="linear-gradient-5" x1="39.66" y1="174.54" x2="70.61" y2="174.54" xlink:href="#linear-gradient"/>
    <linearGradient id="linear-gradient-6" x1="75.22" y1="174.54" x2="103.26" y2="174.54" xlink:href="#linear-gradient"/>
    <linearGradient id="linear-gradient-7" x1="179.15" y1="174.55" x2="206.37" y2="174.55" xlink:href="#linear-gradient"/>
    <linearGradient id="linear-gradient-8" x1="212.73" y1="174.55" x2="237.42" y2="174.55" xlink:href="#linear-gradient"/>
    <linearGradient id="linear-gradient-9" x1="111.15" y1="173.76" x2="137.73" y2="173.76" xlink:href="#linear-gradient"/>
  </defs>
  <g id="logo">
    <g>
      <g>
        <path class="cls-16" d="M158.46,84.56c-5.07,1.27-9.75,4.01-13.4,7.76-7.96-23.85-45.38-28.75-54.12-2.81-2.3,7.63-.22,16.01,4.57,22.22-4.28,4.43-5.59,11.6-2.21,16.93,5.54,8.89,16.9,12.06,26.84,12.13,8.91-.05,18.47-2.5,24.74-9.2,3.75,4.2,8.8,7.22,14.27,8.6,11.19,2.97,23.83-1.75,30.32-11.38,15.11-22.13-5.1-50.71-31.01-44.25ZM144.89,131.34s0,0,0,0c-.02.02-.05.05-.07.07.02-.02.05-.05.07-.07Z"/>
        <g>
          <g>
            <ellipse class="cls-1" cx="120.14" cy="121.58" rx="26.82" ry="17.14"/>
            <ellipse class="cls-4" cx="120.14" cy="117.83" rx="22.19" ry="13.39"/>
          </g>
          <g>
            <path class="cls-14" d="M129.88,78.24c-12.52-7.05-28.04-3.9-34.65,7.04-6.61,10.94-1.82,25.52,10.7,32.57,12.52,7.05,28.04,3.9,34.65-7.04,6.61-10.94,1.82-25.52-10.7-32.57ZM115.43,102.41c-4.33-2.44-5.98-7.48-3.7-11.26,2.29-3.78,7.65-4.87,11.97-2.43,4.33,2.44,5.98,7.48,3.7,11.26-2.29,3.78-7.65,4.87-11.97,2.43Z"/>
            <path class="cls-3" d="M123.7,88.72c-4.33-2.44-9.69-1.35-11.97,2.43-2.29,3.78-.63,8.82,3.7,11.26,4.33,2.44,9.69,1.35,11.97-2.43,2.29-3.78.63-8.82-3.7-11.26Z"/>
          </g>
          <g>
            <path class="cls-5" d="M126.6,83.91v15.64c0,.21-.03.43-.08.63-.47,1.99-3.15,3.5-6.37,3.5s-5.94-1.54-6.38-3.54c-.03-.05-.04-.11-.04-.16v-16.07h12.87Z"/>
            <ellipse class="cls-5" cx="120.14" cy="83.91" rx="6.45" ry="4.12"/>
          </g>
          <g>
            <path class="cls-15" d="M180.08,90.44c-12.17-7.88-28.42-4.4-36.3,7.77-7.88,12.17-4.4,28.42,7.77,36.3s28.42,4.4,36.3-7.77c7.88-12.17,4.4-28.42-7.77-36.3ZM160.89,120.09c-4.2-2.72-5.41-8.34-2.68-12.54,2.72-4.2,8.34-5.41,12.54-2.68s5.41,8.34,2.68,12.54c-2.72,4.2-8.34,5.41-12.54,2.68Z"/>
            <circle class="cls-2" cx="165.82" cy="112.47" r="9.07"/>
          </g>
        </g>
      </g>
      <g>
        <g>
          <path class="cls-8" d="M62.2,84.51h22.13s0,7.61,0,7.61h-13.77s0,14.83,0,14.83h13.84s0,7.6,0,7.6h-13.84s0,23.21,0,23.21h-8.37s0-53.24,0-53.24Z"/>
          <path class="cls-7" d="M198.9,84.54h12.78c8.37,0,12.47,4.64,12.47,13.16v26.93c0,8.52-4.11,13.16-12.47,13.16h-12.78s0-53.24,0-53.24ZM211.53,130.18c2.66,0,4.26-1.37,4.26-5.17v-27.69c0-3.8-1.6-5.17-4.26-5.17h-4.26s0,38.03,0,38.03h4.26Z"/>
        </g>
        <g>
          <path class="cls-9" d="M153.19,146.96h11.74s8.99,55.17,8.99,55.17h-8.67s-1.58-10.96-1.58-10.96v.16h-9.85s-1.58,10.8-1.58,10.8h-8.04s8.99-55.17,8.99-55.17ZM162.65,183.85l-3.86-27.27h-.16s-3.78,27.27-3.78,27.27h7.8Z"/>
          <path class="cls-6" d="M49.26,146.96h11.74s8.99,55.17,8.99,55.17h-8.67s-1.58-10.96-1.58-10.96v.16h-9.85s-1.58,10.8-1.58,10.8h-8.04s8.99-55.17,8.99-55.17ZM58.72,183.85l-3.86-27.27h-.16s-3.78,27.27-3.78,27.27h7.8Z"/>
          <path class="cls-13" d="M75.75,146.96h12.85c8.99,0,12.85,4.18,12.85,12.69v3.39c0,5.67-1.81,9.3-5.67,10.88v.16c4.33,1.34,5.75,5.44,5.75,11.66v9.7c0,2.68.08,4.65.95,6.7h-8.83s0,0,0,0c-.47-1.42-.79-2.29-.79-6.78v-10.09c0-5.12-1.5-6.78-5.44-6.78h-2.99s0,23.65,0,23.65h-8.67s0-55.17,0-55.17ZM87.57,170.6c3.23,0,5.2-1.42,5.2-5.83v-4.26c0-3.94-1.34-5.67-4.41-5.67h-3.94s0,15.76,0,15.76h3.15Z"/>
          <path class="cls-12" d="M179.67,146.96h13.24c8.67,0,12.93,4.81,12.93,13.64v27.9c0,8.83-4.26,13.64-12.93,13.64h-13.24s0-55.17,0-55.17ZM192.76,194.25c2.76,0,4.41-1.42,4.41-5.36v-28.69c0-3.94-1.65-5.36-4.41-5.36h-4.41s0,39.41,0,39.41h4.41Z"/>
          <path class="cls-11" d="M213.25,146.96h23.65s0,7.88,0,7.88h-14.98s0,14.58,0,14.58h11.9s0,7.88,0,7.88h-11.9s0,16.95,0,16.95h14.98s0,7.88,0,7.88h-23.65s0-55.17,0-55.17Z"/>
          <path class="cls-10" d="M111.67,188.57v-29.64c0-8.51,4.41-13.56,12.77-13.56,8.35,0,12.77,5.04,12.77,13.56v5.83h-8.2v-6.38c0-3.63-1.73-5.12-4.33-5.12-2.6,0-4.33,1.5-4.33,5.12v30.82c0,3.63,1.73,5.04,4.33,5.04,2.6,0,4.33-1.42,4.33-5.04v-8.43h8.2v7.8c0,8.51-4.41,13.56-12.77,13.56-8.35,0-12.77-5.04-12.77-13.56Z"/>
        </g>
      </g>
    </g>
  </g>
</svg>